<?xml version="1.0" encoding="UTF-8"?><svg id="Laag_1" xmlns="http://www.w3.org/2000/svg" xmlns:xlink="http://www.w3.org/1999/xlink" viewBox="0 0 1309.6 543.2"><defs><style>.cls-1{fill:none;}.cls-1,.cls-2,.cls-3,.cls-4,.cls-5,.cls-6,.cls-7,.cls-8,.cls-9{stroke-width:0px;}.cls-10{filter:url(#drop-shadow-2);}.cls-3{filter:url(#drop-shadow-3);}.cls-3,.cls-4,.cls-8{fill:#fff;}.cls-4{filter:url(#drop-shadow-1);}.cls-5{fill:#4d4d4d;}.cls-6{fill:#666;}.cls-7{fill:#333;}.cls-9{fill:#fdc300;}</style><filter id="drop-shadow-1" filterUnits="userSpaceOnUse"><feOffset dx="-11" dy="11"/><feGaussianBlur result="blur" stdDeviation="0"/><feFlood flood-color="#fdc300" flood-opacity="1"/><feComposite in2="blur" operator="in"/><feComposite in="SourceGraphic"/></filter><filter id="drop-shadow-2" filterUnits="userSpaceOnUse"><feOffset dx="-11" dy="11"/><feGaussianBlur result="blur-2" stdDeviation="0"/><feFlood flood-color="#fdc300" flood-opacity="1"/><feComposite in2="blur-2" operator="in"/><feComposite in="SourceGraphic"/></filter><filter id="drop-shadow-3" filterUnits="userSpaceOnUse"><feOffset dx="-11" dy="11"/><feGaussianBlur result="blur-3" stdDeviation="0"/><feFlood flood-color="#fdc300" flood-opacity="1"/><feComposite in2="blur-3" operator="in"/><feComposite in="SourceGraphic"/></filter></defs><path class="cls-4" d="M1156.59,141.75c-.11-.34-.24-.68-.38-1.01-.49-1.14-1.12-2.25-2.12-3.74-.6-.89-1.32-1.89-2.17-3.01-.78-1.02-1.61-2.07-2.51-3.15-.92-1.11-1.84-2.16-2.74-3.14-1.11-1.2-2.16-2.23-3.21-3.14-2.01-1.73-4-2.9-6.09-3.58-2.04-.67-4.16-.84-6.23-.6-1.4-.93-2.9-1.66-4.48-2.18-1.47-.48-3.06-.8-4.72-.94-.62-.05-1.25-.07-1.88-.07-1.41-.89-2.98-1.61-4.76-2.19l-1.84-.6c-1.85-.6-3.72-.8-5.54-.65-.24-.19-.46-.39-.7-.58-2.18-1.61-4.7-2.88-7.72-3.86-3.57-1.17-7.05-1.68-10.31-1.52-.17,0-.34.04-.51.05-.09-.09-.16-.18-.25-.27-.07-.38-.14-.76-.23-1.13-1.32-5.49-5.35-9.72-11.08-11.59l-1.31-.43c-4.95-1.63-10.29-.31-14.28,3.53,0,0,0,0,0,0-1.89-1.31-4.02-2.38-6.37-3.15-2.47-.81-4.91-1.22-7.28-1.23-1.34-.83-2.92-1.59-4.78-2.2l-1.86-.61c-2.73-.89-5.1-.91-7.07-.57-2.64-2.36-6.01-4.22-10.09-5.56-1.56-.51-3.09-.89-4.59-1.17-.28-1.66-.78-3.27-1.55-4.8-1.15-2.27-2.82-4.26-4.98-5.91-1.74-1.32-3.81-2.39-6.16-3.16l-1.81-.59c-.96-.32-1.8-.52-2.76-.67-2.82-.41-5.64.06-8.15,1.33-2.26,1.14-3.82,2.71-4.9,4.2-1.33-.13-2.64-.14-3.92-.04-1.37.11-2.7.34-4,.66-2.86-3.49-6.97-6.14-12.31-7.89-2.93-.96-5.76-1.5-8.41-1.62-.28-.01-.55,0-.83,0-1.6-1.87-3.72-3.35-6.27-4.19-2.51-.82-4.88-.82-6.68-.73-1.23.06-2.55.18-4.07.36-1.45.17-2.98.39-4.52.66-1.48.25-2.89.51-4.22.77-1.35.27-2.56.52-3.64.77-1.42.32-2.43.58-3.26.85-.2.07-.41.14-.61.21-1.76.67-3.27,1.52-4.56,2.58-1.96,1.59-3.48,3.68-4.52,6.25l-1.13,2.81c-.1.25-.2.51-.28.77-.32.97-.55,1.97-.67,2.85-.32,2.26-.08,4.56.7,6.86.02.06.04.12.06.17.54,1.51,1.32,2.96,2.5,4.67.58.84,1.27,1.78,2.06,2.83.78,1.02,1.62,2.08,2.52,3.16.93,1.12,1.85,2.17,2.74,3.13,1.12,1.22,2.17,2.25,3.2,3.13,1.29,1.11,2.58,1.97,3.89,2.64.38.86.8,1.7,1.3,2.49,1.47,2.32,3.42,4.26,5.79,5.8,1.72,1.11,3.61,2,5.61,2.66,2.35.77,4.65,1.18,6.89,1.23,1.51,1.12,3.38,2.13,5.68,2.88,2.1.69,4.2,1.03,6.25,1.03.89,0,1.78-.07,2.65-.2.21.19.41.4.63.59,2.25,1.86,4.81,3.27,7.6,4.18h0c2.36.77,4.7,1.16,6.98,1.17.22.13.44.26.67.38,1.27.7,2.65,1.3,4.09,1.77l1.7.56c1.73.57,3.33.79,4.77.79.07,0,.14,0,.21-.01.45.35.9.69,1.38,1,1.71,1.11,3.6,2,5.62,2.66,2.34.77,4.64,1.18,6.88,1.23.91.68,1.97,1.3,3.16,1.87.26,1.44.7,2.85,1.33,4.16,1.17,2.44,2.92,4.54,5.21,6.24,1.71,1.27,3.68,2.26,6.04,3.03l1.68.55c1.71.56,3.3.79,4.74.79,2.6,0,4.72-.73,6.29-1.52,1.37-.71,3.08-1.89,4.58-3.81,2.03.22,4.08.17,6.14-.15.5-.08.98-.21,1.47-.32,2,2.52,5.18,5.17,10.24,6.82,2.7.88,5.12,1.23,7.26,1.23,1.31,0,2.51-.13,3.61-.35,1.13,1.07,2.35,2.04,3.7,2.89,2.17,1.37,4.49,2.46,6.9,3.25,1.74.57,3.59,1,5.48,1.28,1.33.2,2.65.29,3.94.29.75,0,1.47-.06,2.2-.12.48.44.98.87,1.52,1.27,1.71,1.27,3.69,2.26,6.05,3.03l1.7.56c1.45.48,2.95.71,4.47.71s2.95-.23,4.41-.68c1.77-.56,3.37-1.48,4.76-2.65,1.33,1.11,2.87,1.97,4.58,2.53,1.9.62,3.71.78,5.25.78.51,0,.98-.02,1.42-.04,1.22-.06,2.55-.18,4.07-.36,1.43-.17,2.95-.39,4.53-.66,1.48-.25,2.89-.51,4.22-.77,1.36-.27,2.57-.52,3.64-.76,1.41-.32,2.41-.58,3.25-.85.2-.07.41-.14.61-.21,1.74-.66,3.3-1.54,4.56-2.57,1.97-1.59,3.49-3.68,4.54-6.26l1.13-2.81c.1-.26.2-.52.29-.79.3-.92.53-1.88.68-2.95.29-2.19.06-4.43-.69-6.66Z"/><path class="cls-2" d="M124.24,178.12c-.67,6.01-1.46,12.51-2.38,19.52-.92,7.01-1.84,14.06-2.76,21.16-.92,7.11-1.79,14.06-2.59,20.86-.81,6.81-1.53,12.81-2.16,18.02-.64,5.21-1.18,9.51-1.63,12.91-.46,3.4-.69,5.2-.7,5.4-.31,2.4-.91,3.99-1.78,4.75-.88.77-2.7,1.1-5.45.99l-11.43-.46c-11.43-.46-19.32-3.35-23.66-8.65-4.35-5.31-6.31-13.08-5.9-23.32.05-1.21.33-4.21.84-9.02.51-4.81,1.17-10.56,1.97-17.27.8-6.7,1.69-14.16,2.65-22.37.97-8.21,1.94-16.41,2.9-24.62l-14.92-.6c-2.33-.09-3.45-1.24-3.36-3.45.06-1.61.26-3.96.6-7.07.34-3.1.67-6.16,1.01-9.16.31-2.4.78-4.84,1.41-7.34.63-2.49,1.67-4.66,3.13-6.51,1.45-1.85,3.58-3.37,6.39-4.57,2.8-1.19,6.43-1.8,10.89-1.82l1.76-12c1.8-13,4.83-23.84,9.11-32.52,4.27-8.68,9.69-15.55,16.26-20.61,6.57-5.06,14.29-8.57,23.17-10.53,8.88-1.95,18.72-2.71,29.51-2.28,10.58.43,19.6,1.7,27.04,3.81,7.44,2.11,13.43,4.87,17.96,8.27,4.52,3.4,7.76,7.36,9.7,11.86,1.93,4.51,2.81,9.27,2.6,14.29-.42,10.44-4.17,17.74-11.22,21.87-7.06,4.14-16.41,5.97-28.05,5.5-3.18-.13-5.34-.47-6.48-1.02-1.15-.55-1.68-1.73-1.61-3.53.27-6.63-.16-11.87-1.27-15.74-1.12-3.86-4.53-5.92-10.25-6.15-4.24-.17-7.88.89-10.94,3.18-3.06,2.29-5.62,5.36-7.69,9.19s-3.67,8.25-4.83,13.23c-1.16,4.98-2.16,10.07-3,15.27l36.52,1.48c3.38.14,5.02,1.61,4.91,4.42l-1.93,16.21c-.67,6.01-2.61,10.81-5.83,14.4-3.22,3.59-9.59,5.19-19.12,4.81l-19.37-.78Z"/><path class="cls-2" d="M243.24,191.71c-.91.16-1.94.31-3.09.43-1.15.13-2.28.17-3.38.13-1.1-.04-2.07-.18-2.89-.43-.83-.24-1.29-.67-1.4-1.28-.35-1.97-.6-3.8-.74-5.5-.15-1.69-.38-3.45-.7-5.27-.59-3.34-1.53-5.99-2.82-7.95-1.29-1.96-3.3-2.7-6.03-2.22-4.25.75-7.29,4.15-9.11,10.19-1.83,6.04-2.13,14.66-.92,25.87.56,4.91,1.12,10.48,1.68,16.72.56,6.24,1.12,12.24,1.67,18.02.56,5.77,1.07,10.88,1.55,15.34.48,4.46.84,7.36,1.08,8.73.27,1.52-.06,2.75-.99,3.7-.93.95-2,1.53-3.21,1.74l-8.19,1.46c-4.71.84-8.62,1.03-11.76.56-3.13-.46-5.74-1.45-7.8-2.96-2.07-1.51-3.68-3.53-4.83-6.07-1.15-2.53-2.04-5.54-2.66-9.04-.4-2.28-.86-5.52-1.38-9.73-.51-4.21-1.12-10.05-1.82-17.52-.7-7.47-1.64-16.92-2.81-28.38-1.18-11.45-2.64-25.63-4.38-42.54-.48-4.45.72-6.94,3.61-7.45l8.88-1.58c4.25-.75,7.89-.93,10.94-.53,3.04.4,5.62,1.23,7.72,2.5,2.1,1.27,3.76,2.89,4.97,4.87,1.21,1.98,2.17,4.08,2.88,6.3,1.2-3.81,2.83-7.19,4.89-10.14,2.06-2.95,4.31-5.46,6.76-7.54,2.45-2.08,5.05-3.71,7.81-4.91,2.76-1.19,5.36-2.01,7.78-2.44,2.88-.51,5.9-.5,9.05.04,3.15.54,6.12,1.65,8.93,3.34,2.8,1.7,5.22,4.08,7.26,7.16,2.03,3.08,3.46,6.9,4.26,11.45.73,4.1.81,8.07.24,11.93-.57,3.86-1.74,7.39-3.52,10.6-1.78,3.21-4.16,5.9-7.14,8.08-2.98,2.17-6.44,3.61-10.39,4.31Z"/><path class="cls-2" d="M255.45,189.07c.35-13.87,6.87-24.57,19.55-32.11,12.68-7.54,31.2-11.3,55.56-11.3.19-1.69.35-3.11.46-4.27.11-1.15.18-2.58.23-4.27.13-4.93-.7-8.88-2.47-11.86-1.77-2.97-5.59-4.54-11.44-4.69-3.24-.08-5.87.31-7.89,1.19-2.03.87-3.68,2.1-4.95,3.69-1.28,1.59-2.33,3.53-3.16,5.82-.83,2.29-1.59,4.82-2.27,7.57-.35,1.38-1.06,2.25-2.15,2.6-1.09.36-2.79.51-5.1.45-15.71-.4-23.42-6.53-23.12-18.4.12-4.77,1.35-9.29,3.7-13.55,2.34-4.25,5.75-7.91,10.22-10.95,4.47-3.04,10.04-5.41,16.72-7.09,6.67-1.68,14.4-2.41,23.18-2.18,17.1.44,29.41,4.3,36.93,11.58,7.52,7.28,11.12,17.4,10.79,30.34-.04,1.7-.32,4.73-.81,9.11-.5,4.38-1.08,8.99-1.74,13.83-.67,4.84-1.25,9.41-1.74,13.71-.5,4.31-.76,7.3-.81,9-.1,3.85.53,6.6,1.87,8.26,1.34,1.65,2.89,2.81,4.65,3.47,1.75.66,3.32,1.17,4.7,1.51,1.38.35,2.05,1.13,2.02,2.36-.09,3.39-.64,6.84-1.65,10.36-1.02,3.52-2.6,6.72-4.75,9.59-2.16,2.88-5.07,5.19-8.73,6.95-3.67,1.76-8.12,2.57-13.36,2.43-7.39-.19-12.9-2.1-16.5-5.74-3.61-3.64-5.95-8.63-7.02-14.98-3.84,5.3-8.77,9.87-14.8,13.73-6.04,3.85-13.83,5.66-23.38,5.42-4.62-.12-8.96-.77-13.01-1.95-4.06-1.18-7.55-3.04-10.49-5.59-2.94-2.54-5.25-5.8-6.92-9.77-1.67-3.97-2.44-8.73-2.29-14.28ZM327.99,164.56c-4.01-.1-7.94.11-11.81.62-3.87.52-7.32,1.4-10.36,2.63-3.04,1.23-5.51,2.91-7.41,5.01-1.9,2.11-2.89,4.71-2.97,7.79-.09,3.55.96,6.04,3.16,7.48,2.2,1.44,4.6,2.2,7.23,2.27,2.46.06,4.94-.41,7.44-1.43,2.49-1.01,4.73-2.61,6.71-4.8,1.98-2.18,3.71-4.88,5.18-8.08,1.47-3.2,2.41-7.03,2.84-11.49Z"/><path class="cls-2" d="M435.55,281.03c.65-3.66,1.76-8.41,3.33-14.23,1.57-5.82,3.21-11.97,4.9-18.46,1.69-6.49,3.35-12.76,4.97-18.84,1.62-6.07,2.8-11.19,3.53-15.35.76-4.33.5-8.37-.79-12.12-1.3-3.75-4.67-6.11-10.14-7.07-5.31-.94-9.96-.3-13.95,1.92-3.99,2.22-7.82,6.86-11.5,13.95-3.68,7.08-7.44,17.07-11.28,29.96-3.84,12.9-8.27,29.55-13.28,49.97-.51,1.97-1.12,3.24-1.84,3.8-.73.56-2.08.66-4.05.32l-8.2-1.45c-4.71-.83-8.44-2.05-11.21-3.65-2.77-1.6-4.85-3.56-6.24-5.87-1.39-2.31-2.17-4.98-2.34-8.01-.17-3.03.09-6.47.76-10.3.44-2.5,1.18-6.02,2.22-10.56,1.04-4.54,2.57-10.8,4.6-18.77,2.03-7.97,4.56-18.09,7.59-30.35,3.02-12.26,6.76-27.45,11.21-45.56.8-3.64,1.56-5.74,2.29-6.3.54-.42,1.8-.46,3.77-.11l8.88,1.57c4.55.8,8.21,2.05,10.96,3.74,2.75,1.69,4.87,3.65,6.36,5.89,1.48,2.24,2.37,4.72,2.68,7.43.3,2.72.29,5.42-.02,8.11,6.26-8,12.73-13.17,19.4-15.51,6.67-2.34,14.56-2.71,23.67-1.1,6.37,1.13,11.78,2.85,16.22,5.18,4.44,2.33,7.9,5.56,10.38,9.69,2.48,4.13,3.97,9.2,4.47,15.22.5,6.01,0,13.27-1.49,21.77-.47,2.67-1.3,6.47-2.48,11.41-1.19,4.94-2.53,10.34-4.03,16.17-1.5,5.84-3.08,11.91-4.74,18.23-1.67,6.32-3.21,12.19-4.63,17.61-1.43,5.42-2.66,10.18-3.7,14.29-1.04,4.11-1.68,6.83-1.91,8.17-.65,3.67-1.42,5.81-2.31,6.42-.89.62-2.63.7-5.21.24l-7.28-1.29c-4.86-.86-8.72-2.05-11.57-3.59-2.86-1.54-4.96-3.36-6.31-5.49-1.35-2.13-2.12-4.62-2.32-7.49s.01-6.05.63-9.55Z"/><path class="cls-2" d="M615.53,182.31c.16.76.05,2.35-.32,4.79-.38,2.44-1.24,5.07-2.61,7.88-1.37,2.81-3.26,5.42-5.69,7.83-2.43,2.41-5.61,4.03-9.53,4.86-4.61.98-9.46.59-14.56-1.16-5.1-1.75-10.36-4.49-15.79-8.22-5.43-3.73-11.09-8.31-16.97-13.76-5.89-5.44-11.93-11.44-18.14-18.01,1.01,8.14,2,16.12,2.95,23.95.95,7.83,1.85,15.44,2.71,22.82.21,1.84.04,3.14-.51,3.89-.56.75-1.94,1.36-4.16,1.83l-9.21,1.96c-5.29,1.12-9.75,1.56-13.37,1.3-3.62-.25-6.56-1.09-8.82-2.5-2.26-1.41-4.07-3.43-5.43-6.05-1.36-2.62-2.43-5.75-3.19-9.37-.38-1.81-.7-3.71-.95-5.71-.25-1.99-.59-4.84-1.01-8.53-.43-3.69-.97-8.54-1.62-14.54-.65-6-1.58-13.92-2.77-23.75-1.2-9.83-2.74-21.91-4.63-36.24-1.89-14.33-4.3-31.74-7.22-52.23-.54-3.35-.52-5.4.03-6.15.42-.56,1.73-1.08,3.95-1.55l9.98-2.12c5.29-1.12,9.75-1.52,13.39-1.19,3.64.33,6.67,1.18,9.1,2.56,2.43,1.37,4.29,3.19,5.57,5.43,1.28,2.25,2.19,4.66,2.74,7.22.32,1.51.73,4.06,1.23,7.66.5,3.6,1.11,7.96,1.84,13.08.73,5.12,1.47,10.91,2.22,17.37.75,6.46,1.6,13.21,2.57,20.25l33.94-41.72c1.28-1.53,2.51-2.66,3.69-3.38,1.18-.72,2.12-1.16,2.8-1.3,1.88-.4,4.15.22,6.82,1.86,2.66,1.64,5.28,3.65,7.83,6.02,2.55,2.37,4.79,4.89,6.69,7.56,1.91,2.67,3.05,4.91,3.43,6.71.93,4.37-2.06,9.81-8.97,16.32-6.91,6.51-17.75,14.49-32.5,23.92,8.67,5.56,16.87,10.59,24.61,15.09,7.73,4.5,14.51,8.49,20.34,11.98,5.82,3.49,10.49,6.36,14,8.6,3.51,2.25,5.36,3.82,5.55,4.73Z"/><g class="cls-10"><path class="cls-8" d="M1283.66,199.57c4.23-7.32,6.38-15.95,6.38-25.65,0-6.51-1.09-12.76-3.25-18.6-2.41-6.51-6.27-12.27-11.49-17.14-5.03-4.68-11.4-8.33-18.94-10.84-6.98-2.33-14.91-3.46-24.22-3.46-11.26,0-21.35,1.68-29.97,4.98-8.57,3.28-16.07,7.72-22.31,13.2-6.16,5.41-11.24,11.65-15.1,18.53-3.48,6.19-6.24,12.55-8.2,18.87-1.78,5.73-3.02,11.42-3.74,16.93-10.99,1.97-20.16,6.13-27.24,12.36-.8.7-1.58,1.44-2.34,2.21-1.05-.51-2.13-.97-3.23-1.39-5.03-1.92-10.45-2.95-16.15-3.08-4.76-.1-9.63.28-14.51,1.15-9.76,1.73-18.24,5.3-25.22,10.6-.92.7-1.82,1.44-2.68,2.23-2.2-.81-4.55-1.44-7.02-1.88-1.32-.23-2.67-.4-4.06-.49.11-1.01.22-2.03.33-3.06.49-4.4.92-8.73,1.29-12.88.41-4.67.59-7.7.59-9.82,0-21.26-8.96-33.97-16.49-40.89-10.64-9.78-25.74-14.53-46.18-14.53-9.55,0-18.23,1.07-25.81,3.18-8.05,2.25-15.05,5.48-20.79,9.61-6.36,4.58-11.3,10.21-14.67,16.72-1.21,2.34-2.2,4.75-2.99,7.21-1.19-.36-2.38-.68-3.59-.93-3.59-.75-7.52-1.09-11.67-.98-4.56.12-9.15.93-13.64,2.43-.58.19-1.15.4-1.73.61-2.05-1.82-4.36-3.47-6.93-4.91-2.33-1.31-4.9-2.41-7.7-3.35l.52-6.8c.04-.47.05-.93.05-1.4,0-.55-.02-1.09-.05-1.62,7.49-1.49,14.1-4.16,19.74-7.96,7.99-5.39,17.53-16.1,17.56-36.53.01-7.39-1.49-14.48-4.48-21.11-3.23-7.13-8.31-13.26-15.1-18.23-6.07-4.42-13.69-7.83-22.67-10.12-8.27-2.11-17.67-3.15-28.74-3.17h-.26c-11.13,0-21.52,1.3-30.87,3.87-10.56,2.91-19.86,7.86-27.66,14.72-7.78,6.85-14.05,15.83-18.64,26.69-4.09,9.67-6.77,20.92-8.16,34.19-.17.08-.34.16-.5.25-5.36,2.67-9.62,6.29-12.67,10.73-2.69,3.9-4.54,8.35-5.52,13.2-.62,3.07-1.06,6.13-1.31,9.07,0,.09-.01.19-.02.28-.2,2.84-.39,5.73-.58,8.63-.22,3.32-.33,5.89-.34,7.85-.02,10.08,6.05,18.18,14.93,21.03l-.28,3.8c-.5,6.64-.96,12.75-1.39,18.33l-.2,2.61c-.49,6.38-.88,11.85-1.17,16.43-.41,6.47-.47,8.45-.48,9.63-.02,14.14,3.5,25.51,10.46,33.8,4.26,5.07,9.81,8.77,16.58,11.09-.79-.14-1.56-.29-2.37-.43-6.06-1.04-11.97-.13-17.11,2.62-2.43,1.3-4.56,2.96-6.35,4.88-.57-4.62-1.39-8.98-2.49-12.98-4.26-15.44-11.96-26.91-22.89-34.09-4.66-3.06-9.84-5.12-15.51-6.19,6.95-2.25,12.15-5.98,15.44-11.07,3.43-5.27,4.71-11.77,3.93-19.86l-2-27.79c-.79-10.93-1.64-22.4-2.57-34.41-.92-12-1.89-24.16-2.9-36.47-1.01-12.3-2.11-24.25-3.29-35.51-1.17-11.23-2.49-21.68-3.91-31.06-1.5-9.84-3.04-17.57-4.72-23.65-3.77-13.66-12.85-24.5-26.26-31.36-13.2-6.72-29.9-7.16-51.07-1.31l-26.13,7.21c-6.21,1.71-13.89,4.65-18.17,12.21-4.07,7.16-3.39,15.38-1.09,25.51,1.21,5.94,2.38,11.66,3.5,17.17-1.83-1.4-3.69-2.69-5.59-3.86-6.94-4.26-13.91-5.7-20.7-4.25-2.87.61-5.66,1.78-8.76,3.68-2.98,1.82-5.72,4.25-8.36,7.41-.05.06-.1.13-.16.19l-6.05,7.43c-.37-2.6-.69-4.95-.98-7.03-.57-4.15-1.04-7.02-1.46-9-.95-4.46-2.57-8.73-4.81-12.67-3-5.26-7.28-9.49-12.72-12.56-4.77-2.7-10.4-4.36-16.75-4.94-5.6-.5-11.83,0-19.03,1.53l-9.99,2.12c-2.83.6-10.35,2.2-15.25,8.81-4.89,6.59-4.56,13.94-3.56,20.29,2.91,20.42,5.33,37.87,7.17,51.88,1.36,10.37,2.55,19.59,3.55,27.56-.5-.1-.99-.2-1.49-.29-12.31-2.17-23.5-1.54-33.26,1.89-1.51.53-3.01,1.15-4.49,1.84-2.24-2.24-4.82-4.26-7.72-6.04-4.85-2.97-10.6-5.01-17.57-6.24l-8.88-1.57c-.88-.15-2.33-.41-4.13-.5.07-.98.11-1.85.13-2.59.47-18.4-5.1-33.36-16.57-44.47-11.18-10.82-27.42-16.35-49.65-16.92-10.47-.27-19.99.66-28.3,2.75-8.8,2.22-16.46,5.52-22.78,9.81-6.94,4.73-12.38,10.62-16.16,17.48-2.8,5.08-4.63,10.47-5.49,16.07-1.15-.29-2.32-.55-3.5-.75-5.29-.9-10.52-.9-15.54-.01-.81.14-1.64.33-2.46.52,2.53-5.34,4.29-11.93,4.62-20.07.32-7.84-1.07-15.43-4.14-22.57-3.25-7.55-8.54-14.12-15.74-19.53-6.38-4.79-14.51-8.61-24.17-11.35-8.97-2.54-19.26-4.02-31.45-4.51-12.37-.5-23.92.41-34.37,2.71-11.59,2.55-21.91,7.27-30.68,14.04-8.85,6.83-16.15,16-21.69,27.25-4.98,10.11-8.56,22.48-10.65,36.66-.51.19-1.02.4-1.52.61-5.77,2.46-10.44,5.93-13.87,10.3-3.1,3.95-5.33,8.52-6.6,13.57-.82,3.24-1.44,6.47-1.84,9.6-.01.1-.02.2-.03.3-.34,3.03-.68,6.1-1.01,9.21-.39,3.55-.62,6.28-.7,8.36-.44,10.8,6.2,19.63,16.07,22.35l-.57,4.88c-.83,7.03-1.6,13.51-2.3,19.43l-.35,2.9c-.79,6.62-1.46,12.51-2,17.51-.73,6.9-.88,9.01-.93,10.26-.6,14.99,2.82,27.14,10.18,36.11,7.91,9.66,20.56,14.91,37.59,15.59l11.44.46c.5.02,1.16.05,1.97.05,3.89,0,10.92-.63,16.74-5.71,4.46-3.9,7.19-9.49,8.12-16.61.03-.22.05-.44.07-.66.08-.65.28-2.2.61-4.66.46-3.46,1.01-7.83,1.66-13.14.63-5.22,1.36-11.24,2.17-18.09.77-6.51,1.63-13.45,2.57-20.64.92-7.09,1.84-14.14,2.76-21.13.1-.77.2-1.54.3-2.31l1.86.07c3.83.15,7.38.05,10.67-.31.09.88.18,1.77.27,2.62,1.15,11.23,2.09,20.73,2.79,28.21.71,7.56,1.34,13.63,1.88,18.05.56,4.61,1.06,8.13,1.53,10.75.9,5.05,2.27,9.62,4.08,13.59,2.52,5.53,6.19,10.08,10.9,13.52,4.58,3.35,10.05,5.51,16.24,6.42,2.04.3,4.17.45,6.42.45,3.5,0,7.29-.37,11.43-1.1l8.19-1.46c5.12-.91,9.78-3.39,13.46-7.16,5.23-5.34,7.45-12.74,6.11-20.3-.03-.15-.27-1.61-.9-7.44-.47-4.39-.98-9.43-1.53-15.12-.55-5.73-1.11-11.69-1.66-17.9-.31-3.47-.63-6.78-.94-9.89,1.39.24,2.82.38,4.29.43,1.45.05,2.9,0,4.35-.1,2.8,6.49,6.77,11.99,11.81,16.34,5.01,4.33,10.93,7.51,17.61,9.45,5.61,1.63,11.61,2.54,17.84,2.7,13.24.34,24.61-2.43,33.83-8.23,5.94,5.27,13.59,8.42,22.79,9.44-.96,3.88-1.76,7.21-2.38,9.94-1.12,4.9-1.91,8.66-2.4,11.49-.93,5.25-1.27,10.18-1.02,14.65.34,6.15,2.04,11.8,5.04,16.77,3.06,5.07,7.43,9.28,12.96,12.48,4.75,2.76,10.45,4.7,17.45,5.94l8.2,1.45c7.44,1.31,13.82-.03,18.93-3.97,4.22-3.25,7.04-7.86,8.65-14.12.02-.07.03-.13.05-.2,4.92-20.05,9.31-36.56,13.04-49.07,2.63-8.84,5.19-16.12,7.62-21.74-.01.05-.02.09-.04.14-1.63,6.11-3.3,12.42-4.99,18.94-1.68,6.43-3.3,12.54-4.86,18.3-1.74,6.41-2.95,11.61-3.7,15.89h0c-.88,5-1.18,9.76-.87,14.16.42,6.05,2.17,11.55,5.2,16.33,3.11,4.92,7.61,8.99,13.38,12.08,4.69,2.52,10.33,4.34,17.26,5.56l7.29,1.29c1.18.21,3.35.59,6.04.59,3.82,0,8.7-.77,13.27-3.92,6.92-4.79,9.04-12.16,10.2-18.73.03-.14.29-1.55,1.62-6.82,1.02-4.06,2.24-8.76,3.65-14.11l4.63-17.61c1.67-6.35,3.26-12.47,4.77-18.33.65-2.51,1.27-4.99,1.88-7.43,1.24.19,2.51.35,3.81.44,1.13.08,2.28.12,3.46.12,4.55,0,9.55-.59,15.2-1.79l9.21-1.96c2.56-.54,10.36-2.2,15.47-9.1,2.97-4.01,4.42-8.8,4.33-14.3,6.69,4.56,13.42,8.01,20,10.27,8.37,2.88,16.68,3.48,24.68,1.78,7.24-1.54,13.4-4.71,18.36-9.41.08.29.15.6.23.89,2.27,8.22,4.96,15.53,8,21.69,3.76,7.67,8.63,13.95,14.47,18.64,6.42,5.17,14.04,8.25,22.68,9.18-4.44,2.26-8.4,4.88-11.85,7.86-7.27,6.27-12.56,13.65-15.69,21.91-2.87,7.53-4.28,15.61-4.18,23.99.09,7.61,1.18,15.25,3.24,22.72,3.87,14.04,10.69,25.27,20.25,33.38,7.57,6.42,16.9,9.65,27.87,9.64,5.97,0,12.43-.95,19.36-2.86,12.41-3.42,22.35-8.93,29.55-16.36,5.11-5.28,9.09-11.03,11.88-17.16.09,1.1.17,2.24.27,3.45,1.22,15.59,3.1,38.71,5.59,68.7.27,4.04,1.08,8.03,2.41,11.86,1.5,4.35,3.74,8.41,6.67,12.07,2.91,3.63,6.51,6.78,10.68,9.36,4.42,2.74,9.68,4.64,15.62,5.65l14.28,2.43c3.98.68,7.44.77,10.52.29,5.42-.82,10.38-3.65,14.17-8.06.06.1.12.2.19.29,2.81,4.35,6.67,8.02,11.45,10.88,4.36,2.62,9.51,4.4,15.72,5.46l12.04,2.05c2.11.36,4.12.54,6.04.54,4.46,0,8.42-.98,11.98-2.96,3.94-2.18,7.3-5.5,10.59-10.44.13-.2.26-.4.39-.61,2.29-3.75,5.05-8.17,8.27-13.28,3.28-5.22,6.72-10.72,10.32-16.53.57-.92,1.13-1.85,1.7-2.77,3.03,2,6.3,3.76,9.82,5.27,8.75,3.75,18.95,5.57,31.19,5.57,2.8,0,5.52-.1,8.17-.3-.53,7.07-1.01,13.12-1.42,18.14-.56,6.8-.96,12.27-1.18,16.27-.23,4.19-.34,7.41-.34,9.83,0,4.76.52,9.18,1.53,13.11,1.44,5.61,4.13,10.49,7.99,14.51,3.74,3.91,8.49,6.84,14.12,8.71,4.68,1.56,10.07,2.32,16.47,2.32h7.45c5.07,0,9.96-1.58,14.14-4.57,5.98-4.27,9.41-11.03,9.41-18.56,0-.13.01-1.47.37-6.57.27-3.94.61-8.46,1.02-13.56.41-5.14.85-10.47,1.34-16.03.19-2.21.37-4.35.53-6.41.5.13,1,.25,1.51.36,1.87.4,3.81.67,5.69.79.05,0,.1,0,.15,0-.19,2.18-.35,4.1-.49,5.75-.29,3.38-.5,5.99-.63,7.77-.18,2.26-.27,4.5-.27,6.65,0,4.81.5,9.29,1.47,13.28,1.38,5.7,3.97,10.64,7.65,14.65,3.76,4.1,8.66,7.16,14.53,9.06,4.71,1.54,10.09,2.28,16.45,2.28h7.45c7,0,12.71-2.15,16.94-6.38,1.71-1.71,3.1-3.68,4.16-5.9,2.91,2.83,5.89,5.29,8.91,7.34,6.85,4.65,14.16,7.01,21.75,7.01,7.15,0,13.84-2.11,19.35-6.12,4.01-2.91,7.43-6.41,10.17-10.39,2.51-3.65,4.42-7.41,5.68-11.17,1.43-4.29,2.01-7.22,2.01-10.14,0-8.49-5.43-14.56-8.37-17.85-2.55-2.84-5.84-6.39-9.79-10.55-3.62-3.81-7.85-8.21-12.61-13.1,3.13-1.76,5.91-3.48,8.37-5.17,11.85-8.15,17.85-17.66,17.85-28.27,0-4.04-.92-8.4-2.82-13.34-1.45-3.76-3.3-7.48-5.53-11.08-2.21-3.55-4.65-6.78-7.29-9.62-6.88-7.4-14.06-8.96-18.87-8.96-3.02,0-6.11.65-9.43,1.98-2.5,1-4.89,2.4-7.25,4.26.18-2.97.26-5.13.26-6.71,0-1.88-.13-3.75-.37-5.6,1.72-.18,3.49-.41,5.36-.74l6.52-1.16c2.53-.45,4.58-1,6.37-1.7,4.74-1.84,8.53-5.07,11.04-9.43,1.45-2.57,2.36-5.39,2.7-8.46,1.56,1.73,3.29,3.26,5.21,4.59,4.36,3.06,9.62,4.96,15.64,5.66,4.75.55,10.09.28,16.33-.82l6.53-1.16c2.53-.45,4.58-1,6.37-1.7,4.76-1.85,8.57-5.1,11.02-9.4,1.95-3.42,2.91-7.3,2.87-11.61-.02-1.31-.11-2.9-.27-4.87-.02-.21-.04-.42-.06-.63-.8-6.84-1.53-14.04-2.16-21.42-.44-5.06-.89-10.04-1.35-14.91,1.44.07,2.89.14,4.33.14,5.6,0,11.42-.51,17.29-1.51,6.42-1.1,12.42-2.91,17.81-5.37,6.44-2.93,11.88-6.96,16.17-11.96,5.42-6.33,8.29-14.18,8.29-22.71,0-7.04-1.88-13.26-5.62-18.5-1.32-1.85-2.78-3.54-4.35-5.07,5.18-4.21,9.51-9.29,12.91-15.16ZM608.85,152.83c-5.72-3.42-12.43-7.38-19.97-11.77,4.18-3.23,7.76-6.26,10.79-9.11,1.83-1.72,3.47-3.44,4.96-5.17,1.67,8.54,3.16,16.24,4.47,23.08.23,1.2.46,2.37.68,3.53-.31-.19-.61-.37-.93-.56ZM134.04,277.83c.03-.31.05-.62.06-.93,0,.14-.01.45-.06.93ZM1015.4,292.84c.11,1.06.21,2.09.31,3.11-1.71-1.27-3.52-2.44-5.42-3.51,1.64.22,3.36.34,5.11.4ZM992.12,285.22c.37.28.77.53,1.15.8-.61-.14-1.21-.29-1.83-.41.22-.13.46-.25.68-.39ZM964.42,358.22c.28-2.45.86-4.69,1.76-6.86,0,0,0-.02.01-.03.01.34.02.71.02,1.1,0,1.6-.13,4.52-.77,9.31-.32,2.39-.85,4.71-1.59,6.92-.02-.61-.03-1.25-.03-1.95,0-1.5.1-4.19.6-8.5ZM1038.32,367.63c.11-.88.19-1.73.28-2.59,3.18,1.64,6.69,2.79,10.5,3.42-3.22.11-6.6.57-10.09,1.39-.35.08-.7.2-1.05.29.12-.84.27-1.68.37-2.52ZM798.33,308.66l10.13.02h.08c6.07,0,11.17-1.45,15.23-4.26,1.59,1.33,3.33,2.55,5.21,3.65,4.26,2.49,9.38,4.34,15.64,5.66l7.29,1.53c1.64.35,3.3.52,4.96.52,3.35,0,6.68-.7,9.82-2.08,6.73-2.95,11.47-8.86,13.02-16.24.03-.13.31-1.42,1.71-6.34,1.07-3.8,2.34-8.15,3.78-13.06,1.46-4.94,2.99-10.07,4.6-15.41.64-2.13,1.25-4.18,1.83-6.16.46.23.93.45,1.41.66,1.75.78,3.58,1.44,5.41,1.95,1.39.39,2.72.72,3.98.99,4.25.89,8.45,1.13,12.58.74.59,2.12,1.31,4.17,2.18,6.1,2.79,6.2,6.73,11.41,11.69,15.47,3.27,2.68,6.92,4.84,10.9,6.48-2.05.75-4.05,1.54-5.95,2.45-10.58,5.06-19.31,11.95-25.94,20.48-3.7,4.75-6.77,9.92-9.23,15.43-3,.17-6.2.79-9.33,2.28-2.64,1.26-5,2.97-6.99,5.04-3.13-3.87-6.99-7.11-11.5-9.65-4.15-2.33-8.92-4.17-14.21-5.49-4.08-1.01-8.5-1.92-13.13-2.71-13.58-2.32-21.76,1.47-26.61,6.04-2.18-2.61-4.79-4.93-7.82-6.92-4.21-2.78-9.2-4.97-15.25-6.73-1-.29-2.06-.57-3.14-.84,2.44.26,4.98.41,7.63.42Z"/></g><path class="cls-2" d="M819.08,192.14c-.39,5.63-.87,11.73-1.44,18.3-.57,6.57-1.15,13.19-1.73,19.85-.58,6.67-1.11,13.19-1.58,19.57-.48,6.38-.92,12.02-1.3,16.89-.39,4.88-.72,8.92-1.01,12.11-.29,3.19-.43,4.88-.43,5.07-.19,2.25-.67,3.76-1.42,4.5-.75.75-2.35,1.12-4.79,1.12l-10.14-.02c-10.14-.02-17.22-2.42-21.25-7.22-4.03-4.8-6.03-11.98-6.02-21.55,0-1.13.15-3.94.44-8.45.29-4.51.67-9.9,1.16-16.19.48-6.29,1.01-13.28,1.59-20.98.58-7.7,1.15-15.39,1.73-23.09l-13.23-.02c-2.07,0-3.1-1.03-3.09-3.1,0-1.5.1-3.7.29-6.62.19-2.91.38-5.77.58-8.59.19-2.25.52-4.55,1-6.9.47-2.34,1.32-4.41,2.55-6.19,1.22-1.78,3.06-3.28,5.5-4.5,2.44-1.21,5.64-1.91,9.58-2.09l1.15-11.26c1.15-12.2,3.46-22.43,6.96-30.68,3.49-8.25,8.05-14.86,13.69-19.83,5.64-4.96,12.36-8.52,20.15-10.67,7.79-2.14,16.48-3.21,26.05-3.19,9.39.02,17.41.88,24.07,2.58,6.66,1.7,12.05,4.06,16.18,7.07,4.12,3.01,7.12,6.59,8.99,10.72,1.87,4.14,2.8,8.55,2.79,13.24-.02,9.76-3.08,16.71-9.19,20.82-6.11,4.12-14.33,6.17-24.65,6.15-2.82,0-4.74-.24-5.77-.71-1.03-.47-1.55-1.55-1.54-3.24.01-6.2-.54-11.08-1.66-14.65-1.12-3.57-4.21-5.36-9.28-5.37-3.76,0-6.95,1.11-9.58,3.36-2.64,2.25-4.8,5.2-6.49,8.86-1.7,3.66-2.97,7.84-3.82,12.52-.85,4.69-1.57,9.48-2.14,14.36l32.38.06c3,0,4.5,1.32,4.5,3.95l-1.15,15.2c-.39,5.63-1.95,10.18-4.67,13.65-2.73,3.47-8.32,5.19-16.77,5.18l-17.18-.03Z"/><path class="cls-2" d="M903.22,241.35c-.81-.17-1.72-.39-2.71-.68-1-.28-1.95-.62-2.85-1.02-.9-.4-1.66-.84-2.26-1.32-.61-.48-.85-.99-.74-1.53.37-1.75.78-3.36,1.22-4.82.45-1.46.84-3,1.18-4.62.62-2.97.73-5.49.32-7.55-.41-2.06-1.84-3.35-4.27-3.86-3.78-.79-7.44,1.01-10.97,5.42-3.54,4.41-6.68,11.47-9.42,21.19-1.18,4.27-2.58,9.08-4.2,14.45-1.62,5.37-3.17,10.55-4.64,15.53-1.47,4.98-2.75,9.4-3.84,13.26-1.09,3.86-1.77,6.4-2.02,7.61-.28,1.35-.97,2.26-2.06,2.74-1.09.48-2.17.6-3.25.38l-7.29-1.53c-4.19-.88-7.51-2.03-9.96-3.47-2.45-1.43-4.28-3.12-5.49-5.07-1.21-1.95-1.88-4.17-1.99-6.66-.11-2.49.16-5.29.81-8.4.43-2.03,1.13-4.87,2.11-8.55.98-3.67,2.43-8.72,4.35-15.16,1.91-6.44,4.3-14.61,7.16-24.52,2.85-9.91,6.38-22.17,10.58-36.81,1.09-3.86,2.92-5.52,5.49-4.98l7.9,1.66c3.78.79,6.87,1.87,9.27,3.21,2.39,1.35,4.26,2.9,5.58,4.66s2.16,3.66,2.5,5.71c.34,2.05.44,4.11.29,6.19,2.27-2.77,4.76-5.03,7.46-6.79s5.41-3.09,8.14-4c2.73-.91,5.44-1.4,8.13-1.47,2.69-.07,5.12.12,7.28.58,2.56.54,5.07,1.56,7.5,3.06,2.43,1.5,4.53,3.42,6.3,5.76,1.76,2.35,2.97,5.14,3.63,8.38.66,3.24.56,6.89-.29,10.94-.77,3.65-2.03,6.98-3.79,9.99-1.76,3.01-3.92,5.56-6.47,7.63-2.55,2.08-5.43,3.51-8.63,4.32-3.2.81-6.56.84-10.07.11Z"/><path class="cls-2" d="M929.02,246.24c0-12.42,5.59-22.15,16.77-29.19,11.18-7.04,27.67-10.83,49.48-11.39.14-1.52.24-2.79.31-3.83.07-1.04.1-2.31.1-3.83,0-4.42-.83-7.94-2.48-10.56-1.66-2.62-5.11-3.93-10.35-3.93-2.9,0-5.25.41-7.04,1.24-1.8.83-3.24,1.97-4.35,3.42-1.11,1.45-2,3.21-2.69,5.28-.69,2.07-1.31,4.35-1.86,6.83-.28,1.24-.9,2.04-1.86,2.38-.97.35-2.49.52-4.56.52-14.08,0-21.12-5.31-21.12-15.94,0-4.28,1-8.35,3-12.21,2-3.86,4.97-7.21,8.9-10.04,3.93-2.83,8.87-5.07,14.8-6.73,5.93-1.66,12.84-2.48,20.7-2.48,15.32,0,26.43,3.18,33.33,9.52,6.9,6.35,10.35,15.32,10.35,26.91,0,1.52-.17,4.24-.52,8.18-.35,3.93-.76,8.07-1.24,12.42-.49,4.35-.9,8.46-1.24,12.32-.35,3.87-.52,6.56-.52,8.07,0,3.45.62,5.9,1.86,7.35,1.24,1.45,2.66,2.45,4.24,3,1.59.55,3,.97,4.24,1.24,1.24.28,1.86.97,1.86,2.07,0,3.04-.41,6.14-1.24,9.32-.83,3.18-2.17,6.07-4.04,8.69-1.86,2.62-4.42,4.76-7.66,6.42-3.24,1.66-7.21,2.48-11.9,2.48-6.62,0-11.59-1.59-14.91-4.76-3.31-3.17-5.52-7.59-6.62-13.25-3.31,4.83-7.63,9.04-12.94,12.63-5.31,3.59-12.25,5.38-20.81,5.38-4.14,0-8.04-.49-11.7-1.45-3.66-.96-6.83-2.55-9.52-4.76-2.69-2.21-4.83-5.07-6.42-8.59-1.59-3.52-2.38-7.76-2.38-12.73ZM993.41,222.64c-3.59,0-7.11.28-10.56.83-3.45.55-6.52,1.42-9.21,2.59-2.69,1.17-4.87,2.73-6.52,4.66-1.66,1.93-2.48,4.28-2.48,7.04,0,3.18,1,5.38,3,6.62,2,1.24,4.17,1.86,6.52,1.86,2.21,0,4.42-.48,6.63-1.45,2.21-.96,4.17-2.45,5.9-4.45,1.72-2,3.21-4.45,4.45-7.35,1.24-2.9,2-6.35,2.28-10.35Z"/><path class="cls-9" d="M688.68,281.75c12.4-3.42,22.09-2.84,29.08,1.75,6.98,4.59,11.99,12.34,15,23.26,1.3,4.73,2.13,10.06,2.51,15.99.37,5.94-.33,11.77-2.08,17.49-1.76,5.73-5.04,11.09-9.86,16.07-4.82,4.98-11.81,8.74-20.96,11.26-13.28,3.67-23.25,2.68-29.89-2.95-6.64-5.63-11.38-13.61-14.23-23.95-1.63-5.9-2.48-11.86-2.55-17.88-.07-6.01.9-11.69,2.93-17.01,2.02-5.33,5.47-10.09,10.35-14.3,4.87-4.2,11.44-7.45,19.71-9.73ZM689.86,248.06c-7.38,2.04-13.68,2.82-18.89,2.35-5.22-.47-9.66-2.18-13.33-5.14-3.68-2.95-6.79-7.02-9.32-12.2-2.54-5.17-4.79-11.31-6.74-18.39-.73-2.66-1.46-5.55-2.16-8.7-.71-3.14-1.49-7.13-2.35-11.98-.86-4.84-2.05-10.87-3.56-18.08-1.51-7.21-3.35-16.47-5.52-27.78-2.17-11.32-4.82-24.96-7.96-40.93-3.14-15.97-6.99-35.08-11.54-57.34-1.5-6.57-1.82-10.62-.96-12.13.64-1.13,2.88-2.22,6.72-3.28l26.13-7.21c16.23-4.48,28.7-4.5,37.39-.07,8.69,4.44,14.22,10.93,16.58,19.49,1.47,5.31,2.88,12.47,4.25,21.46,1.37,9,2.64,19.05,3.8,30.17,1.16,11.12,2.25,22.81,3.25,35.09,1,12.28,1.97,24.4,2.89,36.38.92,11.98,1.77,23.42,2.56,34.32.78,10.91,1.46,20.25,2.02,28.04.38,3.71.08,6.34-.92,7.88-1,1.55-3.13,2.77-6.38,3.66l-15.94,4.4Z"/><path class="cls-2" d="M1068.02,309.92c.7,6.33,1.28,12.36,1.74,18.09.45,5.74.92,10.74,1.4,15,.15,1.65,0,2.8-.44,3.44-.45.64-1.56,1.12-3.32,1.43l-7.34,1.3c-4.21.75-7.72.92-10.53.5-2.81-.41-5.14-1.3-6.99-2.65-1.85-1.35-3.3-3.16-4.33-5.43-1.03-2.27-1.83-4.97-2.38-8.09-.36-2.04-.77-4.94-1.23-8.72-.46-3.77-1-9-1.63-15.69-.63-6.69-1.46-15.16-2.51-25.42-1.05-10.25-2.36-22.95-3.92-38.1-.4-3.01-.37-4.84.08-5.48.34-.48,1.39-.88,3.15-1.19l7.95-1.41c4.08-.72,7.49-.84,10.24-.34,2.75.5,5.07,1.34,6.97,2.55,1.9,1.21,3.36,2.77,4.41,4.69,1.04,1.92,1.82,3.95,2.34,6.1,2.64-8.04,6.24-13.79,10.81-17.27,4.57-3.47,10.25-5.81,17.05-7.02,3.67-.65,7.26-.94,10.78-.86,3.52.08,6.78.69,9.79,1.84,3.01,1.15,5.7,2.88,8.07,5.19,2.37,2.31,4.33,5.44,5.87,9.37,2.81-8.63,6.46-14.92,10.95-18.87,4.48-3.95,10.53-6.6,18.14-7.95,4.21-.75,8.33-1.02,12.36-.83,4.03.2,7.66,1.13,10.9,2.8,3.24,1.67,6.04,4.22,8.4,7.66,2.36,3.44,4.04,7.94,5.02,13.51.75,4.21,1.46,9.41,2.14,15.6.68,6.19,1.38,12.9,2.1,20.13.72,7.23,1.41,14.68,2.07,22.34.66,7.66,1.4,15,2.22,22,.13,1.52.2,2.7.21,3.54,0,.84-.12,1.49-.39,1.96-.27.47-.73.83-1.38,1.09-.66.26-1.59.49-2.82.71l-6.52,1.16c-4.35.77-7.96.99-10.82.66-2.86-.33-5.18-1.11-6.93-2.35-1.76-1.23-3.14-2.91-4.15-5.04-1.01-2.13-1.77-4.63-2.27-7.48-.31-1.76-.66-4.3-1.03-7.6-.37-3.3-.73-6.88-1.06-10.74-.34-3.86-.7-7.87-1.08-12-.39-4.14-.71-7.97-.99-11.49-.28-3.53-.54-6.6-.79-9.22-.25-2.62-.45-4.33-.6-5.15-.63-3.53-1.89-6.53-3.8-9-1.91-2.46-4.9-3.34-8.98-2.61-3.54.63-6.39,2.33-8.56,5.09-2.17,2.77-3.78,6.35-4.82,10.74-1.04,4.39-1.62,9.47-1.71,15.23-.1,5.77.23,11.95.98,18.54.47,4.26.99,9.15,1.55,14.65.56,5.51,1.28,12.39,2.19,20.64.13,1.52.2,2.7.21,3.54,0,.84-.12,1.49-.39,1.96-.27.47-.73.83-1.39,1.09-.66.26-1.59.49-2.82.71l-6.52,1.16c-4.35.77-7.96.99-10.82.66-2.86-.33-5.18-1.11-6.93-2.35-1.76-1.23-3.14-2.91-4.15-5.04-1.01-2.13-1.77-4.63-2.27-7.48s-.95-6.73-1.4-12.05c-.45-5.31-.94-10.84-1.47-16.56-.53-5.72-1-11.18-1.43-16.36-.43-5.18-.85-8.92-1.26-11.24-.63-3.53-1.89-6.53-3.8-9-1.91-2.46-4.9-3.34-8.98-2.61-3.67.65-6.56,2.57-8.65,5.74-2.1,3.18-3.6,7.19-4.49,12.04-.89,4.86-1.3,10.43-1.24,16.73.07,6.3.49,12.81,1.26,19.54Z"/><path class="cls-2" d="M1218.04,260.73c-6.08,0-12.11-.76-18.11-2.28-6-1.52-11.39-4.14-16.15-7.87-4.76-3.73-8.66-8.69-11.7-14.91-3.04-6.21-4.55-14.01-4.55-23.39,0-3.45.27-7.59.83-12.42.55-4.83,1.62-9.8,3.21-14.91,1.58-5.1,3.79-10.18,6.62-15.22,2.83-5.04,6.52-9.56,11.08-13.56,4.55-4,10.07-7.25,16.56-9.73,6.49-2.48,14.21-3.73,23.19-3.73,7.17,0,13.25.83,18.22,2.48,4.97,1.66,8.97,3.9,12.01,6.73,3.03,2.83,5.24,6.11,6.62,9.83,1.38,3.73,2.07,7.73,2.07,12.01,0,6.35-1.28,11.73-3.83,16.15-2.56,4.42-5.87,8.11-9.94,11.08-4.07,2.97-8.59,5.28-13.56,6.94-4.97,1.66-9.87,2.93-14.7,3.83-4.83.9-9.28,1.45-13.35,1.66-4.07.21-7.21.31-9.42.31,0,2.62.38,5.21,1.14,7.76.76,2.56,1.9,4.8,3.42,6.73,1.52,1.93,3.52,3.52,6,4.76,2.49,1.24,5.52,1.86,9.11,1.86s6.38-.59,8.38-1.76c2-1.17,3.62-2.48,4.87-3.93s2.31-2.76,3.21-3.93c.9-1.17,2.1-1.76,3.62-1.76.69,0,1.9.17,3.62.52,1.72.35,3.48,1.07,5.28,2.17,1.79,1.11,3.38,2.62,4.76,4.55,1.38,1.93,2.07,4.42,2.07,7.45,0,4-1.24,7.45-3.73,10.35-2.48,2.9-5.69,5.25-9.63,7.04-3.93,1.8-8.32,3.11-13.15,3.93-4.83.83-9.52,1.24-14.08,1.24ZM1221.98,170.27c-3.04,0-5.63.86-7.76,2.59-2.14,1.73-3.93,3.9-5.38,6.52-1.45,2.62-2.55,5.52-3.31,8.69-.76,3.18-1.35,6.21-1.76,9.11,8.56-.14,15.49-1.58,20.81-4.35,5.31-2.76,7.97-6.69,7.97-11.8,0-2.76-.86-5.24-2.59-7.45-1.73-2.21-4.38-3.31-7.97-3.31Z"/><path class="cls-2" d="M863.02,432.71c3.46-9.63,6.47-18.04,9.03-25.24,2.56-7.19,4.74-13.44,6.55-18.73,1.81-5.29,3.36-9.86,4.65-13.7,1.28-3.84,2.42-7.25,3.42-10.23,1-2.98,1.87-5.63,2.62-7.95.74-2.32,1.54-4.74,2.39-7.26.53-1.45,1.44-2.48,2.73-3.1,1.29-.62,3.58-.65,6.84-.09,1.77.3,4.23.83,7.4,1.58,3.16.75,6.24,1.8,9.23,3.15,2.99,1.35,5.46,3.07,7.42,5.15,1.95,2.09,2.68,4.62,2.17,7.61-.37,2.18-1.53,5.3-3.49,9.38-1.95,4.08-4.36,8.74-7.22,14-2.86,5.26-6.05,10.83-9.58,16.74-3.53,5.91-7.08,11.74-10.65,17.51-3.57,5.76-6.99,11.24-10.25,16.42-3.27,5.19-6.06,9.68-8.39,13.48-1.51,2.26-2.84,3.72-4,4.36-1.16.64-3.03.74-5.62.3l-12.04-2.05c-3.81-.65-6.86-1.66-9.14-3.03-2.29-1.37-4.04-3-5.26-4.89-1.22-1.89-2.06-3.95-2.51-6.2-.46-2.25-.68-4.63-.67-7.15-.18-7.17-.02-16.73.48-28.69.5-11.95,1.49-26,2.98-42.12-1.19,2.88-2.66,6.76-4.4,11.64-1.75,4.88-3.62,10.16-5.64,15.84-2.02,5.68-4.09,11.48-6.23,17.42-2.13,5.94-4.12,11.45-5.97,16.52-1.85,5.08-3.49,9.42-4.95,13.02-1.45,3.6-2.55,5.9-3.27,6.9-.92,1.25-1.91,1.95-2.99,2.12-1.08.17-2.57.09-4.47-.24l-14.29-2.44c-3.54-.6-6.48-1.63-8.82-3.08-2.35-1.45-4.29-3.15-5.85-5.09-1.56-1.95-2.74-4.07-3.53-6.38-.8-2.31-1.27-4.66-1.42-7.07-2.52-30.39-4.39-53.32-5.6-68.79-1.22-15.47-1.73-23.74-1.54-24.83.21-1.22,1.01-2.21,2.39-2.95,1.39-.74,3.03-.95,4.94-.63,5.85,1,10.84,2.09,14.98,3.29,4.13,1.2,7.49,2.64,10.08,4.34,2.58,1.7,4.43,3.77,5.56,6.2,1.12,2.43,1.59,5.45,1.4,9.06-.19,1.93-.58,5.85-1.17,11.77-.59,5.92-1.28,12.63-2.07,20.12-.79,7.5-1.59,15.1-2.41,22.79-.83,7.7-1.48,14.24-1.98,19.61,3.07-8.16,5.55-14.66,7.42-19.53,1.88-4.86,3.45-8.93,4.71-12.22,1.26-3.28,2.35-6.18,3.27-8.68.91-2.5,2.01-5.46,3.3-8.89,1.28-3.42,2.82-7.71,4.61-12.87,1.79-5.16,4.25-12.01,7.39-20.58,1.1-3.17,4.98-4.19,11.65-3.05,4.22.72,8.14,1.53,11.77,2.43,3.63.9,6.78,2.1,9.46,3.61,2.68,1.51,4.88,3.42,6.58,5.74,1.7,2.32,2.67,5.25,2.91,8.79.11,1,.18,1.99.23,2.98.04.99.05,2.39.02,4.2-.03,1.82-.14,4.32-.33,7.5-.19,3.19-.51,7.47-.93,12.86-.43,5.39-.98,12.09-1.64,20.09-.67,8.01-1.42,17.75-2.25,29.23Z"/><path class="cls-2" d="M955.38,420.61c-9.52,0-17.42-1.35-23.7-4.04-6.28-2.69-11.28-6.38-15.01-11.08-3.73-4.69-6.35-10.18-7.87-16.46-1.52-6.28-2.28-13.01-2.28-20.18,0-8.28,1-16.39,3-24.32,2-7.94,5.42-15.01,10.25-21.22,4.83-6.21,11.21-11.21,19.15-15.01,7.94-3.79,17.84-5.69,29.71-5.69,17.39,0,29.85,4.24,37.37,12.73,7.52,8.49,11.28,20.39,11.28,35.71,0,4.28-.31,9.01-.93,14.18s-1.8,10.32-3.52,15.42c-1.73,5.11-4.07,10.08-7.04,14.91-2.97,4.83-6.73,9.11-11.28,12.84-4.55,3.73-10.04,6.7-16.46,8.9-6.42,2.21-13.97,3.31-22.67,3.31ZM965.11,330.14c-5.25,0-9.42,1.35-12.52,4.04-3.1,2.69-5.45,5.94-7.04,9.73-1.59,3.8-2.62,7.8-3.11,12.01-.49,4.21-.72,7.76-.72,10.66,0,9.11,1.45,15.81,4.35,20.08,2.9,4.28,7.04,6.42,12.42,6.42,4.83,0,8.8-1.52,11.9-4.55,3.1-3.03,5.52-6.69,7.25-10.97,1.72-4.28,2.9-8.76,3.52-13.46.62-4.69.93-8.62.93-11.8,0-6.9-1.28-12.32-3.83-16.25-2.56-3.93-6.94-5.9-13.15-5.9Z"/><path class="cls-2" d="M1046.27,438.82c-.83,0-1.76-.03-2.79-.1-1.04-.07-2.04-.21-3-.41-.97-.21-1.8-.48-2.48-.83-.69-.34-1.04-.79-1.04-1.35,0-1.79.07-3.45.21-4.97.14-1.52.21-3.1.21-4.76,0-3.03-.41-5.52-1.24-7.45-.83-1.93-2.48-2.9-4.97-2.9-3.87,0-7.07,2.52-9.63,7.56-2.56,5.04-4.18,12.6-4.87,22.67-.28,4.42-.66,9.42-1.14,15.01-.49,5.59-.93,10.97-1.35,16.15-.41,5.18-.76,9.77-1.04,13.77-.28,4-.41,6.62-.41,7.87,0,1.38-.49,2.42-1.45,3.1-.97.69-2,1.04-3.1,1.04h-7.45c-4.28,0-7.76-.45-10.46-1.35-2.69-.9-4.83-2.17-6.42-3.83-1.59-1.66-2.69-3.69-3.31-6.11-.62-2.41-.93-5.21-.93-8.38,0-2.07.1-5,.31-8.8.21-3.79.59-9.04,1.14-15.73.55-6.69,1.21-15.18,1.97-25.46.76-10.28,1.69-23.01,2.79-38.2.27-4,1.72-6,4.35-6h8.08c3.86,0,7.11.41,9.73,1.24,2.62.83,4.76,1.97,6.42,3.42,1.65,1.45,2.86,3.14,3.62,5.07.76,1.93,1.28,3.93,1.55,6,1.65-3.17,3.62-5.9,5.9-8.18,2.28-2.28,4.66-4.14,7.14-5.59,2.49-1.45,5.04-2.48,7.66-3.11,2.62-.62,5.04-.93,7.24-.93,2.62,0,5.28.49,7.97,1.45,2.69.97,5.14,2.42,7.35,4.35,2.21,1.93,3.97,4.42,5.28,7.45,1.31,3.04,1.97,6.62,1.97,10.76,0,3.73-.55,7.25-1.65,10.56-1.11,3.31-2.69,6.25-4.76,8.8-2.07,2.56-4.59,4.55-7.56,6-2.97,1.45-6.25,2.17-9.83,2.17Z"/><path class="cls-2" d="M1158.47,481.36c0,.69-.35,2.07-1.04,4.14-.69,2.07-1.8,4.21-3.31,6.42-1.52,2.21-3.42,4.14-5.69,5.8-2.28,1.66-5,2.48-8.18,2.48-3.73,0-7.42-1.24-11.08-3.73-3.66-2.48-7.28-5.86-10.87-10.14-3.59-4.28-7.21-9.35-10.87-15.22-3.66-5.86-7.35-12.25-11.08-19.15-.55,7.32-1.11,14.49-1.66,21.53-.55,7.04-1.11,13.87-1.66,20.5-.14,1.66-.49,2.76-1.04,3.31-.55.55-1.73.83-3.52.83h-7.45c-4.28,0-7.8-.45-10.56-1.35-2.76-.9-4.9-2.17-6.42-3.83-1.52-1.66-2.59-3.76-3.21-6.31-.62-2.55-.93-5.49-.93-8.8,0-1.66.07-3.38.21-5.18.14-1.79.34-4.35.62-7.66.27-3.31.65-7.66,1.14-13.04.48-5.38,1.07-12.49,1.76-21.32.69-8.83,1.48-19.7,2.38-32.61.9-12.9,1.89-28.6,3-47.1.14-3.03.48-4.83,1.04-5.38.41-.41,1.52-.62,3.31-.62h8.07c4.28,0,7.8.49,10.56,1.45,2.76.97,4.97,2.28,6.63,3.93,1.66,1.66,2.79,3.59,3.42,5.8.62,2.21.93,4.49.93,6.83,0,1.38-.1,3.69-.31,6.94-.21,3.24-.45,7.18-.72,11.8-.28,4.63-.66,9.83-1.14,15.63-.49,5.8-.93,11.87-1.35,18.22l33.12-30.23c1.24-1.1,2.38-1.86,3.42-2.28,1.04-.41,1.83-.62,2.38-.62,1.52,0,3.17.97,4.97,2.9,1.79,1.93,3.48,4.18,5.07,6.73,1.58,2.56,2.9,5.18,3.93,7.87,1.03,2.69,1.55,4.87,1.55,6.52,0,4-3.21,8.21-9.63,12.63-6.42,4.42-16.12,9.39-29.09,14.91,5.8,6.49,11.31,12.42,16.56,17.8,5.24,5.38,9.83,10.14,13.77,14.28,3.93,4.14,7.07,7.52,9.42,10.14,2.35,2.62,3.52,4.35,3.52,5.18Z"/><path class="cls-2" d="M934.12,80.46c.65.66,1.13,1.15,1.45,1.46.31.31.57.57.76.77.19.2.38.38.55.55.17.16.44.42.79.78.35.36.86.87,1.54,1.52s1.62,1.56,2.84,2.72c.25.29.31.66.16,1.1-.09.28-.26.7-.51,1.24s-.55,1.08-.91,1.6c-.36.52-.76.95-1.18,1.28-.42.33-.87.42-1.34.27-.41-.13-.94-.48-1.59-1.04s-1.35-1.25-2.11-2.07c-.76-.82-1.52-1.7-2.29-2.63-.77-.93-1.49-1.83-2.16-2.71-.67-.88-1.25-1.67-1.73-2.36-.48-.7-.79-1.22-.92-1.58-.11-.31-.15-.56-.12-.74.02-.18.07-.37.13-.56l1.13-2.81c.17-.43.37-.73.58-.9.21-.17.52-.33.91-.48.43-.14,1.13-.32,2.1-.54s2.08-.45,3.3-.69,2.52-.48,3.88-.71c1.36-.23,2.65-.42,3.86-.56s2.28-.24,3.19-.28c.92-.05,1.55-.01,1.9.1.38.12.5.39.37.8-.38,1.16-.74,2.09-1.07,2.78s-.68,1.23-1.05,1.61c-.37.38-.75.66-1.15.82s-.86.3-1.38.41c-.55.1-1.13.19-1.73.27-.6.08-1.28.15-2.05.22-.77.06-1.66.12-2.66.17-1.01.05-2.17.12-3.48.22Z"/><path class="cls-9" d="M943.98,95.25c.92-2.83,2.92-4.62,5.98-5.39,3.07-.77,7.1-.41,12.1,1.09.14-.34.26-.62.36-.85.09-.23.2-.52.31-.86.33-1,.4-1.87.22-2.59-.18-.72-.87-1.27-2.06-1.66-.66-.22-1.22-.3-1.69-.24-.47.05-.88.21-1.24.45-.36.25-.69.58-1,1-.31.42-.62.89-.93,1.41-.16.26-.36.4-.6.4-.25,0-.6-.07-1.07-.22-3.2-1.05-4.41-2.78-3.62-5.2.32-.97.85-1.82,1.59-2.55.74-.73,1.67-1.27,2.77-1.62,1.1-.35,2.39-.49,3.87-.43,1.47.06,3.1.39,4.89.97,3.48,1.14,5.77,2.69,6.87,4.64,1.1,1.96,1.21,4.25.35,6.89-.11.35-.35.95-.73,1.82-.37.87-.77,1.78-1.21,2.73-.43.95-.83,1.86-1.2,2.71-.37.85-.61,1.45-.72,1.8-.26.78-.3,1.39-.12,1.81s.42.76.74,1c.32.24.61.44.87.6s.35.36.27.61c-.23.69-.55,1.37-.98,2.03-.42.66-.95,1.22-1.56,1.68-.62.46-1.36.76-2.22.89-.86.14-1.83.03-2.89-.32-1.51-.49-2.52-1.22-3.04-2.19-.52-.97-.69-2.14-.52-3.51-1.11.85-2.41,1.49-3.88,1.91s-3.19.31-5.13-.32c-.94-.31-1.79-.71-2.55-1.2s-1.36-1.09-1.81-1.79c-.45-.7-.72-1.51-.82-2.43-.1-.92.04-1.94.41-3.07ZM960.38,94.67c-.82-.27-1.64-.47-2.46-.6-.83-.13-1.59-.16-2.29-.1-.7.07-1.31.26-1.83.57-.52.32-.88.79-1.09,1.42-.24.72-.17,1.3.19,1.73s.81.73,1.35.91c.5.16,1.04.22,1.61.16.57-.06,1.13-.25,1.67-.57.54-.33,1.06-.77,1.56-1.34.5-.57.93-1.3,1.29-2.18Z"/><path class="cls-9" d="M978.47,113.46c-1.22-.4-2.32-1-3.29-1.81s-1.72-1.81-2.24-3.03c-.52-1.21-.79-2.62-.81-4.23-.02-1.6.31-3.42.98-5.46.3-.91.69-1.9,1.18-2.98.49-1.07,1.08-2.12,1.76-3.15.68-1.03,1.48-1.98,2.4-2.86.91-.88,1.94-1.6,3.07-2.15,1.13-.55,2.39-.88,3.76-.98,1.37-.11,2.87.11,4.51.64s2.74,1.2,3.52,2.06c.78.86,1.07,2.01.88,3.44.46-1.2.87-2.25,1.23-3.14s.69-1.72,1-2.49c.3-.77.61-1.54.94-2.3.32-.76.67-1.64,1.07-2.62.26-.68.47-1.06.64-1.15.08-.04.18-.06.27-.04.1.02.27.06.53.15l1.84.6c.94.31,1.69.67,2.25,1.1.56.43.96.89,1.21,1.39s.38,1.02.38,1.56c0,.54-.09,1.07-.27,1.61-.64,1.53-1.22,2.93-1.74,4.2-.52,1.27-1.12,2.72-1.78,4.34-.67,1.62-1.36,3.3-2.06,5.03-.71,1.73-1.41,3.45-2.1,5.15-.7,1.7-1.34,3.26-1.95,4.68-.6,1.42-1.12,2.64-1.54,3.67-.42,1.03-.71,1.71-.85,2.04-.19.36-.35.58-.48.68-.14.09-.42.07-.86-.07l-1.7-.55c-.66-.22-1.26-.47-1.81-.77-.55-.3-.99-.65-1.32-1.06s-.55-.87-.63-1.41c-.09-.53-.01-1.16.22-1.88-.95,1.01-2.13,1.7-3.52,2.08s-2.95.29-4.68-.28ZM989.29,94.23c-1.6-.52-3.01-.21-4.24.93-1.23,1.15-2.22,2.9-2.99,5.25-.27.82-.47,1.63-.62,2.46-.15.82-.18,1.59-.1,2.31s.3,1.35.66,1.88c.36.54.92.93,1.68,1.17,1.35.44,2.69.15,4.04-.87,1.34-1.02,2.47-2.94,3.4-5.77.26-.78.46-1.56.61-2.33.15-.77.17-1.48.07-2.14-.1-.66-.34-1.24-.73-1.75-.39-.51-.98-.89-1.76-1.15Z"/><path class="cls-9" d="M999.11,113.28c.92-2.83,2.92-4.62,5.98-5.39,3.07-.77,7.1-.41,12.1,1.09.14-.34.26-.62.36-.85.09-.23.2-.52.31-.86.33-1,.4-1.87.22-2.59-.18-.72-.87-1.27-2.06-1.66-.66-.22-1.22-.3-1.69-.24-.47.05-.88.21-1.24.45-.36.25-.69.58-1,1-.31.42-.62.89-.93,1.41-.16.26-.36.4-.6.4-.25,0-.6-.07-1.07-.22-3.2-1.05-4.41-2.78-3.62-5.2.32-.97.85-1.82,1.59-2.55.74-.73,1.67-1.27,2.77-1.62,1.1-.35,2.39-.49,3.87-.43,1.47.06,3.1.39,4.89.97,3.48,1.14,5.77,2.69,6.87,4.64,1.1,1.96,1.21,4.25.35,6.89-.11.35-.35.95-.73,1.82-.37.87-.77,1.78-1.21,2.73-.43.95-.83,1.86-1.2,2.71-.37.85-.61,1.45-.72,1.8-.26.78-.3,1.39-.12,1.81s.42.76.74,1c.32.24.61.44.87.6s.35.36.27.61c-.23.69-.55,1.37-.98,2.03-.42.66-.95,1.22-1.56,1.68-.62.46-1.36.76-2.22.89-.86.14-1.83.03-2.89-.32-1.51-.49-2.52-1.22-3.04-2.19-.52-.97-.69-2.14-.52-3.51-1.11.85-2.41,1.49-3.88,1.91s-3.19.31-5.13-.32c-.94-.31-1.79-.71-2.55-1.2s-1.36-1.09-1.81-1.79c-.45-.7-.72-1.51-.82-2.43-.1-.92.04-1.94.41-3.07ZM1015.51,112.7c-.82-.27-1.64-.47-2.46-.6-.83-.13-1.59-.16-2.29-.1-.7.07-1.31.26-1.83.57-.52.32-.88.79-1.09,1.42-.24.72-.17,1.3.19,1.73s.81.73,1.35.91c.5.16,1.04.22,1.61.16.57-.06,1.13-.25,1.67-.57.54-.33,1.06-.77,1.56-1.34.5-.57.93-1.3,1.29-2.18Z"/><path class="cls-9" d="M1050.05,107.16c2.95.96,4.87,2.6,5.77,4.91.9,2.31.7,5.42-.58,9.35-.8,2.45-1.8,4.54-2.99,6.27-1.19,1.73-2.51,3.1-3.95,4.1-1.44,1.01-2.95,1.63-4.52,1.88-1.58.25-3.15.12-4.72-.4-1.66-.54-2.85-1.33-3.55-2.36-.71-1.03-1.11-2.29-1.21-3.78-.46,1.1-.82,1.94-1.08,2.51s-.46,1.04-.61,1.39c-.15.35-.28.66-.39.94-.11.28-.26.64-.46,1.1-.2.45-.47,1.08-.8,1.88-.33.8-.79,1.89-1.39,3.3-.15.37-.32.59-.48.68-.17.08-.45.06-.86-.07l-1.69-.55c-.97-.32-1.73-.68-2.28-1.08-.55-.4-.94-.85-1.17-1.35-.24-.49-.34-1.04-.3-1.63.04-.6.18-1.25.41-1.98.1-.31.43-1.15.97-2.5.55-1.35,1.21-2.97,1.98-4.85s1.61-3.91,2.51-6.08c.9-2.17,1.76-4.24,2.58-6.22s1.54-3.73,2.16-5.26c.62-1.53,1.06-2.59,1.32-3.16.26-.68.47-1.06.64-1.15.13-.06.39-.03.8.11l1.84.6c1.7.55,2.81,1.31,3.35,2.27.54.96.65,1.92.33,2.9,1.19-1.21,2.47-1.94,3.82-2.19,1.35-.25,2.87-.1,4.57.45ZM1044.56,112.3c-1.6-.52-3-.22-4.21.92-1.21,1.14-2.2,2.9-2.98,5.28-.27.82-.47,1.63-.62,2.46-.15.82-.18,1.59-.1,2.31.08.72.3,1.35.66,1.88.36.54.92.93,1.68,1.17,1.35.44,2.69.15,4.04-.87,1.34-1.02,2.47-2.94,3.4-5.77.26-.78.45-1.56.58-2.34.13-.77.15-1.49.05-2.15-.1-.66-.34-1.24-.73-1.75-.39-.51-.98-.89-1.76-1.15Z"/><path class="cls-9" d="M1070.46,121.4c-.48,1.16-.97,2.31-1.46,3.43-.49,1.13-.95,2.19-1.38,3.2-.43,1.01-.81,1.91-1.12,2.71-.31.8-.54,1.42-.69,1.86-.27.82-.35,1.39-.25,1.72.1.33.37.56.81.71.34.11.66.15.96.1.29-.04.57-.11.85-.19.27-.09.51-.16.73-.23.21-.07.43-.07.65,0s.38.26.49.58c.11.31.01.92-.29,1.83-.56,1.73-1.48,2.94-2.75,3.63-1.27.7-3.05.67-5.34-.08s-3.76-1.81-4.5-3.22c-.74-1.41-.75-3.19-.05-5.36.15-.47.36-1.02.62-1.65.26-.63.6-1.44,1.04-2.45.43-1,.97-2.24,1.6-3.7s1.39-3.28,2.28-5.46l-2.5-.82c-.25-.08-.38-.19-.39-.31-.01-.13.02-.3.09-.52l.93-2.35c.16-.4.35-.78.56-1.15.21-.37.48-.67.82-.91.34-.24.76-.38,1.26-.42.5-.04,1.11.05,1.83.29.4-.49.88-1.09,1.42-1.78.54-.69,1.07-1.36,1.59-2.01.52-.64,1-1.17,1.43-1.59.43-.41.76-.59.98-.51l1.37.45c1.32.43,2.09,1.14,2.33,2.12.24.98.17,2.03-.2,3.17-.21.63-.55,1.54-1.05,2.73l4.94,1.62c.5.16.68.47.54.91l-1.02,2.48c-.37.92-.88,1.6-1.52,2.03-.65.43-1.67.42-3.09-.05l-2.5-.82Z"/><path class="cls-9" d="M1083.13,147.69c-1.38-.45-2.7-1.07-3.95-1.86-1.25-.79-2.28-1.79-3.09-2.99-.81-1.2-1.32-2.62-1.55-4.26-.23-1.64,0-3.52.7-5.66.26-.78.63-1.71,1.11-2.76.48-1.06,1.1-2.11,1.84-3.15.74-1.04,1.62-2.03,2.64-2.97s2.19-1.69,3.53-2.26c1.33-.57,2.83-.9,4.49-.98,1.66-.08,3.51.21,5.55.88,1.63.53,2.95,1.17,3.96,1.92,1.01.75,1.75,1.55,2.23,2.42.48.87.74,1.78.78,2.73.04.95-.1,1.91-.42,2.89-.47,1.44-1.16,2.57-2.07,3.39-.91.81-1.94,1.41-3.08,1.78-1.15.37-2.35.56-3.6.57-1.25,0-2.46-.07-3.63-.22-1.17-.15-2.22-.36-3.16-.62-.94-.26-1.66-.47-2.17-.63-.19.6-.3,1.21-.32,1.85-.02.64.07,1.23.28,1.78.2.55.54,1.06,1.01,1.53.47.47,1.12.83,1.93,1.1s1.49.34,2.04.22c.54-.12,1.01-.3,1.4-.53s.73-.46,1.02-.66c.29-.2.61-.24.95-.13.16.05.42.18.79.39.37.21.71.5,1.04.89.33.38.57.85.74,1.39.17.54.14,1.16-.08,1.85-.3.91-.84,1.6-1.62,2.08-.78.48-1.69.77-2.71.88-1.03.12-2.12.09-3.28-.08-1.16-.17-2.26-.43-3.29-.76ZM1090.75,127.4c-.69-.23-1.34-.22-1.96.01-.62.23-1.18.59-1.71,1.08-.52.49-.99,1.07-1.4,1.73-.41.67-.77,1.31-1.08,1.94,1.96.61,3.64.79,5.06.56,1.41-.23,2.31-.93,2.69-2.09.21-.63.19-1.26-.03-1.89-.23-.63-.75-1.08-1.57-1.35Z"/><path class="cls-9" d="M1117.45,142.18c-.19-.06-.4-.14-.63-.23-.23-.09-.45-.2-.65-.32-.2-.12-.37-.24-.5-.37-.13-.13-.18-.26-.14-.38.13-.41.27-.78.42-1.11.14-.33.28-.69.4-1.07.23-.69.32-1.29.27-1.79-.04-.5-.35-.84-.91-1.03-.88-.29-1.8.05-2.75,1-.96.96-1.89,2.55-2.79,4.79-.39.98-.85,2.09-1.38,3.33-.53,1.24-1.03,2.43-1.51,3.57s-.9,2.16-1.26,3.05c-.36.89-.59,1.48-.68,1.76-.1.31-.29.51-.56.6-.27.09-.53.09-.78,0l-1.7-.55c-.97-.32-1.73-.68-2.28-1.08-.55-.4-.94-.85-1.17-1.35-.24-.5-.34-1.04-.3-1.63s.18-1.25.41-1.98c.15-.47.4-1.13.73-1.98.33-.85.8-2.01,1.43-3.49.62-1.48,1.4-3.36,2.34-5.65.94-2.28,2.1-5.11,3.48-8.48.36-.89.84-1.24,1.44-1.04l1.84.6c.88.29,1.59.62,2.12,1.01.53.38.94.8,1.21,1.25.27.45.42.93.45,1.42.03.5,0,.99-.09,1.48.61-.6,1.26-1.07,1.95-1.42.69-.35,1.37-.6,2.04-.74.67-.14,1.33-.19,1.97-.14s1.21.16,1.72.33c.6.19,1.16.5,1.7.92.54.42.99.93,1.35,1.54.36.6.57,1.3.65,2.09.07.79-.05,1.65-.35,2.59-.28.85-.66,1.61-1.16,2.28s-1.08,1.22-1.74,1.65c-.66.43-1.38.69-2.16.8-.78.11-1.58.03-2.4-.24Z"/><path class="cls-2" d="M1136.43,146.62c-.65-.66-1.13-1.15-1.45-1.46-.32-.31-.57-.57-.76-.77-.2-.2-.38-.38-.55-.55-.17-.16-.44-.42-.79-.78-.35-.36-.87-.87-1.56-1.53-.69-.66-1.63-1.56-2.81-2.72-.25-.29-.31-.66-.16-1.1.09-.28.26-.7.51-1.24.25-.54.55-1.08.92-1.6.36-.52.75-.95,1.18-1.28.42-.33.87-.42,1.34-.27.41.13.94.48,1.59,1.04.65.56,1.35,1.25,2.11,2.07s1.52,1.7,2.29,2.63c.77.93,1.49,1.84,2.16,2.71.67.88,1.24,1.67,1.72,2.39.48.71.79,1.23.93,1.55.11.31.15.56.12.74-.03.18-.07.37-.13.56l-1.13,2.81c-.18.43-.37.73-.58.9-.21.17-.52.34-.91.48-.43.14-1.13.32-2.1.54-.98.22-2.08.45-3.3.69-1.23.24-2.52.48-3.88.71-1.36.23-2.65.42-3.86.56-1.21.14-2.28.24-3.19.28-.92.05-1.55.01-1.9-.1-.38-.12-.5-.39-.36-.8.38-1.16.73-2.09,1.06-2.78.33-.69.68-1.23,1.05-1.61.37-.38.75-.66,1.15-.82.4-.16.86-.3,1.38-.41.55-.1,1.13-.19,1.73-.27.6-.08,1.28-.15,2.05-.22.77-.06,1.65-.12,2.64-.18.99-.06,2.16-.13,3.51-.21Z"/><path class="cls-1" d="M837.71,373.59c-.9,2.51-1.83,5.14-2.8,7.86,1.79.69,3.61,1.36,5.42,2.04.48-6.72,1.08-13.89,1.78-21.54-1.19,2.88-2.66,6.76-4.4,11.64Z"/><path class="cls-1" d="M978.05,417.3c-2.47.85-5.11,1.53-7.92,2.05,4.52.81,9.1,1.59,13.76,2.34.17-2.27.34-4.59.51-7.02-2.02.96-4.11,1.86-6.36,2.63Z"/><path class="cls-1" d="M911.42,396.78c-1.36,2.36-2.76,4.76-4.24,7.23-.2.33-.4.65-.59.98,4.16,1.14,8.37,2.24,12.61,3.32-.9-.9-1.75-1.83-2.53-2.82-2.1-2.65-3.84-5.56-5.24-8.72Z"/><path class="cls-1" d="M1036.12,418.94c-.83-1.93-2.48-2.9-4.97-2.9-3.87,0-7.07,2.52-9.63,7.56-.46.9-.87,1.91-1.27,2.97,5.6.61,11.28,1.17,17.07,1.67.02-.61.04-1.22.04-1.84,0-3.03-.41-5.52-1.24-7.45Z"/><path class="cls-1" d="M168.64,159.05l-.08.65c-.67,6.01-2.61,10.81-5.83,14.4-3.22,3.59-9.59,5.19-19.12,4.81l-19.37-.78c-.67,6.01-1.46,12.51-2.38,19.52-.92,7.01-1.84,14.06-2.76,21.16-.71,5.43-1.37,10.74-2,16,17.99-9.87,36.85-18.97,56.55-26.97-.3-3.02-.63-6.2-.97-9.57-1.1-10.68-2.44-23.77-4.04-39.2Z"/><path class="cls-1" d="M231.03,179.79c-.59-3.34-1.53-5.99-2.82-7.95-1.29-1.96-3.3-2.7-6.03-2.22-4.25.75-7.29,4.15-9.11,10.19-1.15,3.79-1.69,8.6-1.64,14.42,6.81-2.13,13.7-4.13,20.68-5.96-.16-1.11-.3-2.19-.38-3.2-.15-1.69-.38-3.45-.7-5.27Z"/><path class="cls-1" d="M1232.53,181.03c0-2.76-.86-5.24-2.59-7.45-1.73-2.21-4.38-3.31-7.97-3.31-3.04,0-5.63.86-7.76,2.59-2.14,1.73-3.93,3.9-5.38,6.52-1.45,2.62-2.55,5.52-3.31,8.69-.76,3.18-1.35,6.21-1.76,9.11,8.56-.14,15.49-1.58,20.81-4.35,5.31-2.76,7.97-6.69,7.97-11.8Z"/><path class="cls-1" d="M986.68,240.34c1.72-2,3.21-4.45,4.45-7.35,1.24-2.9,2-6.35,2.28-10.35-3.59,0-7.11.28-10.56.83-3.45.55-6.52,1.42-9.21,2.59-2.69,1.17-4.87,2.73-6.52,4.66-1.66,1.93-2.48,4.28-2.48,7.04,0,.53.04,1.03.09,1.5,3.99,2.29,8.04,4.53,12.19,6.71,1.29-.23,2.58-.61,3.87-1.18,2.21-.96,4.17-2.45,5.9-4.45Z"/><path class="cls-1" d="M958.49,393.08c4.83,0,8.8-1.52,11.9-4.55,3.1-3.03,5.52-6.69,7.25-10.97,1.72-4.28,2.9-8.76,3.52-13.46.62-4.69.93-8.62.93-11.8,0-6.9-1.28-12.32-3.83-16.25-2.56-3.93-6.94-5.9-13.15-5.9-5.25,0-9.42,1.35-12.52,4.04-3.1,2.69-5.45,5.94-7.04,9.73-1.59,3.8-2.62,7.8-3.11,12.01-.49,4.21-.72,7.76-.72,10.66,0,9.11,1.45,15.81,4.35,20.08,2.9,4.28,7.04,6.42,12.42,6.42Z"/><path class="cls-1" d="M824.11,139.77c-.85,4.69-1.57,9.48-2.14,14.36l32.38.06c3,0,4.5,1.32,4.5,3.95l-1.15,15.2c-.22,3.12-.8,5.9-1.74,8.36.74-.39,1.58-.5,2.53-.3l7.9,1.66c3.78.79,6.87,1.87,9.27,3.21,2.39,1.35,4.26,2.9,5.58,4.66,1.32,1.76,2.16,3.66,2.5,5.71.34,2.05.44,4.11.29,6.19,2.27-2.77,4.76-5.03,7.46-6.79,2.57-1.68,5.15-2.95,7.75-3.86-24.63-21.72-46.39-45.85-66.96-71.65-1.68,1.89-3.13,4.11-4.33,6.71-1.7,3.66-2.97,7.84-3.82,12.52Z"/><path class="cls-1" d="M325.9,174.18c1.04-2.8,1.75-5.99,2.09-9.62-4.01-.1-7.94.11-11.81.62-3.87.52-7.32,1.4-10.36,2.63-3.04,1.23-5.51,2.91-7.41,5.01-.95,1.06-1.68,2.24-2.17,3.54,8.71-.95,17.52-1.66,26.44-2.07,1.08-.05,2.14-.07,3.22-.11Z"/><path class="cls-1" d="M967.63,244.38c2,1.24,4.17,1.86,6.52,1.86.92,0,1.84-.1,2.76-.27-4.14-2.18-8.19-4.43-12.19-6.71.28,2.37,1.24,4.09,2.91,5.12Z"/><path class="cls-2" d="M119.1,218.8c.92-7.1,1.84-14.15,2.76-21.16.92-7,1.71-13.51,2.38-19.52l19.37.78c9.53.39,15.9-1.21,19.12-4.81,3.22-3.59,5.16-8.39,5.83-14.4l.08-.65c-.11-1.11-.23-2.2-.34-3.33-.34-3.14.18-5.27,1.51-6.46l.69-5.77c.11-2.81-1.53-4.29-4.91-4.42l-36.52-1.48c.85-5.19,1.85-10.28,3-15.27,1.16-4.98,2.77-9.39,4.83-13.23,2.06-3.84,4.62-6.9,7.69-9.19,3.06-2.29,6.71-3.35,10.94-3.18,5.72.23,9.13,2.28,10.25,6.15,1.12,3.87,1.54,9.11,1.27,15.74-.07,1.81.46,2.99,1.61,3.53,1.14.55,3.3.89,6.48,1.02,11.64.47,20.99-1.36,28.05-5.5,7.06-4.14,10.8-11.43,11.22-21.87.2-5.02-.67-9.78-2.6-14.29-1.94-4.5-5.18-8.45-9.7-11.86-4.53-3.4-10.52-6.16-17.96-8.27-7.44-2.11-16.46-3.38-27.04-3.81-10.8-.44-20.64.33-29.51,2.28-8.88,1.96-16.6,5.47-23.17,10.53-6.57,5.07-11.99,11.94-16.26,20.61-4.28,8.68-7.31,19.52-9.11,32.52l-1.76,12c-4.45.02-8.09.63-10.89,1.82-2.81,1.2-4.94,2.72-6.39,4.57-1.46,1.85-2.5,4.02-3.13,6.51-.63,2.49-1.1,4.93-1.41,7.34-.34,3-.67,6.06-1.01,9.16-.34,3.11-.54,5.46-.6,7.07-.09,2.21,1.03,3.36,3.36,3.45l14.92.6c-.97,8.21-1.93,16.42-2.9,24.62-.97,8.21-1.86,15.67-2.65,22.37-.8,6.71-1.46,12.46-1.97,17.27-.51,4.81-.79,7.81-.84,9.02-.27,6.67.49,12.27,2.24,16.85,16.13-10.98,33.17-21.54,51.07-31.35.64-5.25,1.3-10.57,2-16Z"/><path class="cls-2" d="M172.68,198.25c.34,3.37.67,6.54.97,9.57,12.27-4.99,24.87-9.54,37.78-13.59-.05-5.82.5-10.63,1.64-14.42,1.82-6.04,4.86-9.43,9.11-10.19,2.73-.48,4.74.25,6.03,2.22,1.29,1.96,2.23,4.62,2.82,7.95.32,1.82.56,3.58.7,5.27.09,1.01.22,2.09.38,3.2,7.89-2.08,15.89-3.94,24-5.61,1.2-6.61,4.02-12.39,8.48-17.33.14-2.79-.04-5.63-.55-8.54-.81-4.55-2.23-8.37-4.26-11.45-2.04-3.08-4.46-5.47-7.26-7.16-2.81-1.69-5.78-2.81-8.93-3.34-3.15-.53-6.17-.55-9.05-.04-2.43.43-5.02,1.24-7.78,2.44-2.76,1.19-5.37,2.83-7.81,4.91-2.45,2.08-4.7,4.59-6.76,7.54-2.06,2.95-3.69,6.33-4.89,10.14-.71-2.22-1.67-4.32-2.88-6.3-1.21-1.98-2.87-3.6-4.97-4.87-2.1-1.27-4.68-2.1-7.72-2.5-3.05-.4-6.69-.22-10.94.53l-8.88,1.58c-.85.15-1.54.5-2.1.99l-1.16,9.79c1.59,15.43,2.94,28.52,4.04,39.2Z"/><path class="cls-2" d="M168.3,155.71c.12,1.13.23,2.22.34,3.33l1.16-9.79c-1.33,1.18-1.85,3.32-1.51,6.46Z"/><path class="cls-2" d="M260.77,179.32c-.54.97-1.14,1.88-1.79,2.75,12.18-2.42,24.61-4.33,37.27-5.71.5-1.3,1.22-2.48,2.17-3.54,1.9-2.11,4.37-3.78,7.41-5.01,3.04-1.23,6.49-2.11,10.36-2.63,3.87-.52,7.8-.73,11.81-.62-.35,3.64-1.05,6.83-2.09,9.62,13.52-.52,26.65-.41,39.4.34.13-1.63.35-3.69.64-6.22.49-4.3,1.07-8.88,1.74-13.71.66-4.84,1.24-9.45,1.74-13.83.49-4.38.77-7.42.81-9.11.33-12.94-3.27-23.05-10.79-30.34-7.52-7.28-19.83-11.14-36.93-11.58-8.78-.22-16.51.5-23.18,2.18-6.67,1.68-12.24,4.04-16.72,7.09-4.47,3.05-7.88,6.7-10.22,10.95-2.35,4.26-3.58,8.78-3.7,13.55-.3,11.87,7.4,18,23.12,18.4,2.31.06,4.01-.09,5.1-.45,1.09-.36,1.8-1.23,2.15-2.6.68-2.76,1.44-5.28,2.27-7.57.83-2.29,1.88-4.23,3.16-5.82,1.27-1.59,2.92-2.82,4.95-3.69,2.02-.87,4.66-1.27,7.89-1.19,5.85.15,9.67,1.71,11.44,4.69,1.77,2.98,2.6,6.93,2.47,11.86-.04,1.7-.12,3.12-.23,4.27-.11,1.15-.26,2.58-.46,4.27-24.36,0-42.88,3.76-55.56,11.3-4.12,2.45-7.59,5.25-10.41,8.37-.06,1.14-.15,2.27-.31,3.39-.57,3.86-1.74,7.39-3.52,10.6Z"/><path class="cls-2" d="M258.98,182.07c.65-.87,1.25-1.78,1.79-2.75,1.78-3.21,2.95-6.75,3.52-10.6.16-1.12.26-2.25.31-3.39-4.46,4.94-7.28,10.72-8.48,17.33.95-.2,1.9-.4,2.86-.59Z"/><path class="cls-2" d="M491.93,198.66c-.25-1.99-.59-4.84-1.01-8.53-.26-2.27-.57-4.99-.92-8.14-.47-1.07-.99-2.1-1.57-3.07-2.48-4.13-5.94-7.36-10.38-9.69-4.44-2.33-9.85-4.06-16.22-5.18-9.11-1.61-17-1.24-23.67,1.1-6.67,2.34-13.14,7.52-19.4,15.51.32-2.69.32-5.39.02-8.11-.31-2.72-1.2-5.19-2.68-7.43-1.48-2.23-3.6-4.2-6.36-5.89-2.75-1.69-6.41-2.93-10.96-3.74l-8.88-1.57c-1.97-.35-3.23-.31-3.77.11-.73.56-1.49,2.66-2.29,6.3-1.32,5.39-2.58,10.51-3.78,15.38,40.44,3.93,77.35,13.95,112.66,27.88-.31-1.58-.59-3.21-.8-4.93Z"/><path class="cls-2" d="M492.92,203.66c12.41,4.9,24.63,10.28,36.73,16.05l3.26-.69c2.22-.47,3.6-1.08,4.16-1.83.55-.74.72-2.04.51-3.89-.86-7.38-1.76-14.99-2.71-22.82-.95-7.83-1.94-15.81-2.95-23.95,6.21,6.56,12.25,12.56,18.14,18.01,5.88,5.45,11.54,10.04,16.97,13.76,5.43,3.73,10.69,6.47,15.79,8.22,5.1,1.75,9.95,2.14,14.56,1.16,3.92-.83,7.1-2.46,9.53-4.86,2.43-2.41,4.33-5.02,5.69-7.83,1.36-2.81,2.23-5.44,2.61-7.88.37-2.44.48-4.04.32-4.79-.19-.9-2.05-2.48-5.55-4.73-3.51-2.24-8.18-5.12-14-8.6-5.82-3.49-12.61-7.48-20.34-11.98-7.74-4.5-15.94-9.53-24.61-15.09,14.76-9.44,25.59-17.41,32.5-23.92,6.91-6.51,9.9-11.95,8.97-16.32-.38-1.81-1.53-4.05-3.43-6.71-1.9-2.67-4.14-5.18-6.69-7.56-2.56-2.37-5.17-4.37-7.83-6.02-2.67-1.64-4.94-2.26-6.82-1.86-.68.15-1.62.58-2.8,1.3-1.18.72-2.41,1.85-3.69,3.38l-33.94,41.72c-.96-7.04-1.82-13.79-2.57-20.25-.75-6.46-1.49-12.25-2.22-17.37-.73-5.12-1.35-9.48-1.84-13.08-.5-3.59-.9-6.15-1.23-7.66-.54-2.56-1.46-4.97-2.74-7.22-1.28-2.25-3.14-4.06-5.57-5.43-2.43-1.37-5.47-2.22-9.1-2.56-3.64-.33-8.1.07-13.39,1.19l-9.98,2.12c-2.22.47-3.54.99-3.95,1.55-.56.75-.57,2.8-.03,6.15,2.93,20.49,5.34,37.9,7.22,52.23,1.89,14.33,3.43,26.41,4.63,36.24,1.19,9.83,2.12,17.75,2.77,23.75.25,2.31.48,4.44.7,6.41,1.54,3.5,2.52,7.54,2.9,12.15.24,2.88.24,6.07.02,9.52Z"/><path class="cls-2" d="M491.93,198.66c.21,1.72.48,3.35.8,4.93.06.03.13.05.19.08.22-3.45.22-6.64-.02-9.52-.39-4.6-1.36-8.65-2.9-12.15.35,3.15.66,5.87.92,8.14.42,3.69.76,6.54,1.01,8.53Z"/><path class="cls-2" d="M759.67,192.03l13.23.02c-.58,7.7-1.15,15.39-1.73,23.09-.58,7.7-1.11,14.69-1.59,20.98-.48,6.29-.87,11.68-1.16,16.19-.29,4.5-.44,7.32-.44,8.45-.02,9.57,1.99,16.76,6.02,21.55,4.03,4.79,11.11,7.2,21.25,7.22l10.14.02c2.44,0,4.04-.37,4.79-1.12.75-.75,1.22-2.25,1.42-4.5,0-.19.14-1.87.43-5.07.29-3.19.62-7.22,1.01-12.11.38-4.88.82-10.51,1.3-16.89.48-6.38,1.01-12.9,1.58-19.57.57-6.66,1.15-13.28,1.73-19.85.57-6.57,1.05-12.67,1.44-18.3l17.18.03c8.18.01,13.65-1.62,16.47-4.87.09-.31.17-.61.26-.92.69-2.44,1.68-4,2.96-4.68.93-2.46,1.52-5.23,1.74-8.36l1.15-15.2c0-2.63-1.5-3.95-4.5-3.95l-32.38-.06c.57-4.88,1.28-9.67,2.14-14.36.85-4.69,2.13-8.87,3.82-12.52,1.2-2.6,2.66-4.82,4.33-6.71-8.85-11.1-17.47-22.5-26.02-34.15-3.01,1.68-5.82,3.63-8.39,5.89-5.64,4.97-10.21,11.58-13.69,19.83-3.49,8.26-5.81,18.48-6.96,30.68l-1.15,11.26c-3.94.18-7.14.88-9.58,2.09-2.44,1.22-4.28,2.72-5.5,4.5-1.23,1.78-2.08,3.85-2.55,6.19-.47,2.35-.81,4.65-1,6.9-.19,2.82-.39,5.68-.58,8.59-.19,2.91-.29,5.12-.29,6.62,0,2.07,1.02,3.1,3.09,3.1Z"/><path class="cls-2" d="M884.02,202.83c.15-2.08.06-4.15-.29-6.19-.35-2.05-1.18-3.95-2.5-5.71-1.32-1.76-3.18-3.31-5.58-4.66-2.4-1.35-5.49-2.42-9.27-3.21l-7.9-1.66c-.94-.2-1.78-.09-2.53.3-.75,1.98-1.72,3.75-2.93,5.29-.09.11-.2.2-.29.31-4.08,14.22-7.53,26.19-10.32,35.89-2.86,9.91-5.24,18.08-7.16,24.52-1.92,6.44-3.37,11.49-4.35,15.16-.98,3.67-1.69,6.52-2.11,8.55-.65,3.11-.92,5.91-.81,8.4.11,2.49.77,4.71,1.99,6.66,1.21,1.95,3.04,3.64,5.49,5.07,2.45,1.43,5.77,2.59,9.96,3.47l7.29,1.53c1.08.23,2.16.1,3.25-.38,1.08-.48,1.77-1.39,2.06-2.74.26-1.22.93-3.75,2.02-7.61,1.09-3.86,2.37-8.28,3.84-13.26,1.47-4.98,3.01-10.16,4.64-15.53,1.62-5.37,3.02-10.19,4.2-14.45,2.74-9.72,5.88-16.78,9.42-21.19,3.53-4.4,7.19-6.21,10.97-5.42,2.43.51,3.85,1.8,4.27,3.86.41,2.06.31,4.58-.32,7.55-.34,1.62-.74,3.16-1.18,4.62-.45,1.46-.85,3.07-1.22,4.82-.11.54.13,1.05.74,1.53.6.48,1.36.92,2.26,1.32.9.4,1.85.74,2.85,1.02,1,.28,1.9.51,2.71.68,3.51.74,6.87.7,10.07-.11,3.2-.81,6.08-2.25,8.63-4.32,2.55-2.07,4.7-4.62,6.47-7.63,1.76-3.01,3.02-6.35,3.79-9.99.06-.27.08-.53.13-.79-11.63-8.3-22.62-17.08-33.09-26.31-2.6.9-5.18,2.18-7.75,3.86-2.7,1.76-5.18,4.03-7.46,6.79Z"/><path class="cls-2" d="M855.96,181.69c-1.28.68-2.27,2.24-2.96,4.68-.09.31-.18.61-.26.92.09-.11.21-.2.29-.31,1.21-1.55,2.18-3.32,2.93-5.29Z"/><path class="cls-2" d="M1016.64,264.18c-14.02-5.54-27.22-11.63-39.73-18.21-.92.17-1.84.27-2.76.27-2.35,0-4.52-.62-6.52-1.86-1.67-1.03-2.63-2.75-2.91-5.12-9.11-5.22-17.84-10.71-26.24-16.45-6.31,6.29-9.46,14.11-9.46,23.44,0,4.97.79,9.21,2.38,12.73,1.58,3.52,3.73,6.39,6.42,8.59,2.69,2.21,5.86,3.8,9.52,4.76,3.66.96,7.56,1.45,11.7,1.45,8.56,0,15.49-1.8,20.81-5.38,5.31-3.59,9.63-7.8,12.94-12.63,1.1,5.66,3.31,10.08,6.62,13.25,3.31,3.17,8.28,4.76,14.91,4.76,4.69,0,8.66-.83,11.9-2.48,1.01-.51,1.92-1.09,2.8-1.7-.03-.26-.05-.52-.08-.79-4.1-1.48-8.2-3.01-12.3-4.63Z"/><path class="cls-2" d="M1071.16,345.1c.07-.57.07-1.27,0-2.1-.48-4.26-.94-9.26-1.4-15-.46-5.73-1.04-11.76-1.74-18.09-.77-6.73-1.19-13.24-1.26-19.54-.04-3.51.09-6.77.35-9.83-12.47-3.21-24.95-7.01-37.41-11.47-.23.17-.45.34-.69.51.53,5.11,1.01,9.82,1.45,14.08,1.05,10.26,1.88,18.73,2.51,25.42.62,6.69,1.17,11.92,1.63,15.69.46,3.78.87,6.68,1.23,8.72.55,3.13,1.35,5.83,2.38,8.09,1.03,2.27,2.48,4.08,4.33,5.43,1.85,1.35,4.18,2.24,6.99,2.65,2.81.42,6.32.25,10.53-.5l7.34-1.3c.81-.14,1.47-.33,2-.54.17-.91.4-1.51.68-1.79.2-.2.57-.35,1.08-.45Z"/><path class="cls-2" d="M1161.23,294.51c.32,3.68.66,7.1,1.02,10.26.38,3.3.72,5.83,1.03,7.6.51,2.85,1.26,5.35,2.27,7.48,1.01,2.13,2.39,3.82,4.15,5.04,1.76,1.23,4.07,2.01,6.93,2.35,2.86.33,6.47.11,10.82-.66l6.52-1.16c1.22-.22,2.16-.45,2.82-.71.65-.25,1.12-.62,1.38-1.09.27-.47.4-1.12.39-1.96-.01-.84-.08-2.02-.21-3.54-.82-7-1.56-14.34-2.22-22-.03-.4-.07-.77-.1-1.17-11.5.23-23.11.1-34.81-.45Z"/><path class="cls-2" d="M1096.61,295.07c.52,5.73,1.01,11.25,1.47,16.56.45,5.32.92,9.33,1.4,12.05.51,2.85,1.26,5.35,2.27,7.48,1.01,2.13,2.39,3.82,4.15,5.04,1.76,1.23,4.07,2.01,6.93,2.34,2.86.33,6.47.11,10.82-.66l6.52-1.16c1.22-.22,2.16-.45,2.82-.71.65-.25,1.12-.62,1.39-1.09.26-.47.4-1.12.39-1.96-.01-.84-.08-2.02-.21-3.54-.9-8.25-1.63-15.13-2.19-20.64-.56-5.51-1.07-10.39-1.55-14.65-.08-.69-.13-1.36-.2-2.04-11.53-1.27-23.12-2.98-34.74-5.16.23,2.64.47,5.35.73,8.12Z"/><path class="cls-2" d="M1028.93,268.81c.03.26.05.53.08.79.24-.16.46-.34.69-.51-.26-.09-.51-.19-.77-.28Z"/><path class="cls-2" d="M801.32,358.56c.59-5.92.98-9.84,1.17-11.77.19-3.61-.27-6.63-1.4-9.06-1.13-2.43-2.98-4.5-5.56-6.2-2.58-1.7-5.94-3.15-10.08-4.34-4.14-1.19-9.13-2.29-14.98-3.29-1.91-.32-3.55-.11-4.94.63-1.39.75-2.18,1.73-2.39,2.95-.18,1.05.29,8.72,1.4,22.98,11.66,5.75,23.62,11.35,35.9,16.75.31-3.04.61-5.94.87-8.65Z"/><path class="cls-2" d="M907.19,404.01c1.48-2.47,2.88-4.87,4.24-7.23-1.08-2.43-1.96-5.01-2.62-7.74-1.52-6.28-2.28-13.01-2.28-20.18s.74-14.03,2.2-20.86c-.02,0-.05-.01-.07-.02-3.16-.75-5.63-1.27-7.4-1.58-3.27-.56-5.55-.53-6.84.09-1.3.62-2.21,1.65-2.73,3.1-.85,2.52-1.65,4.94-2.39,7.26-.75,2.32-1.62,4.97-2.62,7.95-1,2.98-2.14,6.39-3.42,10.23-1.29,3.84-2.83,8.41-4.65,13.7-.76,2.22-1.6,4.65-2.5,7.21,9.93,3.18,20.09,6.21,30.49,9.05.2-.33.4-.65.59-.98Z"/><path class="cls-2" d="M837.71,373.59c1.74-4.88,3.21-8.76,4.4-11.64-.71,7.66-1.3,14.83-1.78,21.54,8.45,3.18,17.05,6.26,25.83,9.21.28-3.44.53-6.55.75-9.3.43-5.39.74-9.67.93-12.86.19-3.19.3-5.69.33-7.5.03-1.81.02-3.22-.02-4.2-.04-.98-.12-1.98-.23-2.98-.24-3.54-1.21-6.47-2.91-8.79-1.7-2.32-3.9-4.23-6.58-5.74-2.68-1.51-5.84-2.71-9.47-3.61-3.63-.9-7.55-1.71-11.77-2.43-6.67-1.14-10.55-.12-11.65,3.05-3.14,8.57-5.61,15.43-7.39,20.58-1.79,5.16-3.33,9.44-4.61,12.87-.12.32-.23.62-.35.93,7.12,2.99,14.35,5.9,21.7,8.74.97-2.72,1.9-5.35,2.8-7.86Z"/><path class="cls-2" d="M925.3,356.28c1.95,2.09,2.68,4.62,2.17,7.61-.37,2.18-1.53,5.3-3.49,9.38-1.95,4.08-4.36,8.74-7.22,14-1.66,3.06-3.45,6.24-5.34,9.51,1.4,3.16,3.14,6.07,5.24,8.72.78.99,1.64,1.92,2.53,2.82,7.44,1.89,14.99,3.7,22.68,5.4,9.07,2,18.49,3.89,28.25,5.64,2.81-.52,5.45-1.21,7.92-2.05,2.25-.77,4.34-1.67,6.36-2.63.43-5.93.9-12.36,1.41-19.33.27-4,1.72-6,4.35-6h8.08c3.86,0,7.11.41,9.73,1.24.18.06.34.13.51.19,1.72-3.31,3.19-6.68,4.35-10.11,1.72-5.1,2.9-10.25,3.52-15.42.62-5.18.93-9.9.93-14.18,0-15.32-3.76-27.22-11.28-35.71-7.52-8.49-19.98-12.73-37.37-12.73-11.87,0-21.77,1.9-29.71,5.69-7.94,3.8-14.32,8.8-19.15,15.01-4.83,6.21-8.25,13.28-10.25,21.22-.29,1.15-.55,2.31-.8,3.47,3.14.75,6.19,1.79,9.16,3.13,2.99,1.35,5.46,3.07,7.42,5.15ZM942.44,355.92c.48-4.21,1.52-8.21,3.11-12.01,1.58-3.79,3.93-7.04,7.04-9.73,3.1-2.69,7.28-4.04,12.52-4.04,6.21,0,10.59,1.97,13.15,5.9,2.55,3.93,3.83,9.35,3.83,16.25,0,3.18-.31,7.11-.93,11.8-.62,4.69-1.8,9.18-3.52,13.46-1.73,4.28-4.14,7.94-7.25,10.97-3.1,3.04-7.07,4.55-11.9,4.55-5.38,0-9.52-2.14-12.42-6.42-2.9-4.28-4.35-10.97-4.35-20.08,0-2.9.24-6.45.72-10.66Z"/><path class="cls-2" d="M908.8,389.04c.66,2.73,1.54,5.31,2.62,7.74,1.89-3.28,3.68-6.46,5.34-9.51,2.85-5.25,5.26-9.92,7.22-14,1.95-4.08,3.12-7.2,3.49-9.38.51-2.99-.21-5.53-2.17-7.61-1.96-2.08-4.43-3.8-7.42-5.15-2.97-1.34-6.02-2.38-9.16-3.13-1.46,6.83-2.2,13.78-2.2,20.86s.76,13.91,2.28,20.18Z"/><path class="cls-2" d="M994.51,408.4c-2.96,2.42-6.35,4.49-10.1,6.27-.18,2.44-.35,4.76-.51,7.02,11.66,1.86,23.78,3.51,36.37,4.88.4-1.06.81-2.07,1.27-2.97,2.55-5.04,5.76-7.56,9.63-7.56,2.48,0,4.14.97,4.97,2.9.83,1.93,1.24,4.42,1.24,7.45,0,.63-.02,1.24-.04,1.84,8.59.74,17.38,1.34,26.38,1.8.68-8.72,1.46-19.38,2.33-32.01.03-.38.05-.78.08-1.16-.96-1.44-2.04-2.72-3.29-3.81-2.21-1.93-4.66-3.38-7.35-4.35-2.69-.96-5.35-1.45-7.97-1.45-2.21,0-4.63.31-7.25.93-2.62.62-5.18,1.66-7.66,3.11-2.48,1.45-4.87,3.31-7.14,5.59s-4.24,5-5.9,8.18c-.28-2.07-.8-4.07-1.55-6-.76-1.93-1.97-3.62-3.62-5.07-1.54-1.35-3.52-2.42-5.9-3.23-.84,1.61-1.72,3.21-2.69,4.8-2.97,4.83-6.73,9.11-11.28,12.84Z"/><path class="cls-2" d="M998.24,389.34h-8.08c-2.62,0-4.07,2-4.35,6-.51,6.97-.98,13.39-1.41,19.33,3.75-1.78,7.14-3.85,10.1-6.27,4.55-3.73,8.31-8,11.28-12.84.97-1.58,1.85-3.18,2.69-4.8-.18-.06-.33-.13-.51-.19-2.62-.83-5.87-1.24-9.73-1.24Z"/><path class="cls-2" d="M1070.07,411.28c0,3.73-.55,7.25-1.65,10.56-1.03,3.07-2.48,5.8-4.34,8.22,18.55.93,37.98,1.23,58.27.75,9.43-4.27,16.76-8.2,21.94-11.76,6.42-4.42,9.63-8.62,9.63-12.63,0-1.66-.52-3.83-1.55-6.52-1.04-2.69-2.35-5.31-3.93-7.87-1.59-2.55-3.28-4.79-5.07-6.73-1.8-1.93-3.45-2.9-4.97-2.9-.55,0-1.35.21-2.38.62-1.04.41-2.17,1.17-3.42,2.28l-33.12,30.23c.41-6.35.86-12.42,1.35-18.22.48-5.8.86-11,1.14-15.63.28-4.62.52-8.56.72-11.8.21-3.24.31-5.55.31-6.94,0-2.35-.31-4.62-.93-6.83-.62-2.21-1.76-4.14-3.42-5.8s-3.87-2.97-6.63-3.93c-2.76-.96-6.28-1.45-10.56-1.45h-8.07c-.93,0-1.67.06-2.23.17-.07.58-.22,1.03-.44,1.35-.24.35-.69.64-1.32.89-.17.9-.29,2.09-.36,3.6-1.07,17.96-2.05,33.26-2.92,45.94.74,1.12,1.42,2.32,1.99,3.64,1.31,3.04,1.97,6.62,1.97,10.76Z"/><path class="cls-2" d="M1071.16,345.1c-.52.1-.89.25-1.08.45-.28.28-.5.88-.68,1.79.63-.25,1.08-.54,1.32-.89.22-.32.37-.77.44-1.35Z"/><path class="cls-2" d="M1063.7,430.04c.13,0,.25.01.38.02,1.85-2.42,3.31-5.15,4.34-8.22,1.1-3.31,1.65-6.83,1.65-10.56,0-4.14-.66-7.73-1.97-10.76-.57-1.32-1.25-2.52-1.99-3.64-.03.38-.05.78-.08,1.16-.88,12.62-1.66,23.28-2.33,32.01Z"/><path class="cls-7" d="M1026.62,240.1c-.45.64-.47,2.47-.08,5.48.88,8.53,1.67,16.25,2.39,23.23.26.09.51.19.77.28,1.64-1.23,3.05-2.62,4.18-4.21,1.86-2.62,3.21-5.52,4.04-8.69.83-3.17,1.24-6.28,1.24-9.32,0-1.1-.62-1.79-1.86-2.07-1.24-.27-2.66-.69-4.24-1.24-1.59-.55-3-1.55-4.24-3-.3-.35-.56-.76-.78-1.22-.71.23-1.2.48-1.4.77Z"/><path class="cls-7" d="M256.12,182.66c-.18,1-.33,2.02-.44,3.07,1.23-1.11,2.32-2.33,3.3-3.66-.96.19-1.91.39-2.86.59Z"/><path class="cls-7" d="M376.72,203.27c1.01-3.52,1.57-6.97,1.65-10.36.03-1.21-.63-1.99-1.96-2.34-1.36,5.53-2.62,10.65-3.78,15.33-.75,3.03-1.47,5.93-2.15,8.7.52-.56,1.03-1.13,1.49-1.73,2.15-2.87,3.74-6.07,4.75-9.59Z"/><path class="cls-7" d="M492.73,203.59c.05.26.09.53.15.78,0,0,0,.01,0,.02.02-.25.03-.48.04-.73-.06-.03-.13-.05-.19-.08Z"/><path class="cls-5" d="M834.42,118.38c2.63-2.25,5.82-3.37,9.58-3.36,5.07,0,8.16,1.8,9.28,5.37,1.12,3.57,1.67,8.45,1.66,14.65,0,1.69.51,2.77,1.54,3.24,1.03.47,2.96.71,5.77.71,10.32.02,18.54-2.03,24.65-6.15,6.11-4.12,9.17-11.06,9.19-20.82,0-4.69-.93-9.11-2.79-13.24-1.87-4.13-4.87-7.71-8.99-10.72-4.13-3.01-9.52-5.37-16.18-7.07-6.66-1.7-14.69-2.56-24.07-2.58-9.58-.02-18.26,1.05-26.05,3.19-4.25,1.17-8.16,2.77-11.77,4.78,8.54,11.65,17.17,23.06,26.02,34.15.68-.77,1.4-1.5,2.16-2.15Z"/><path class="cls-5" d="M932.47,208.35c-.66-3.24-1.87-6.03-3.63-8.38-1.77-2.34-3.86-4.27-6.3-5.76-2.44-1.5-4.94-2.52-7.5-3.06-2.16-.45-4.59-.65-7.28-.58-2.69.07-5.41.56-8.13,1.47-.13.04-.26.1-.39.14,10.46,9.23,21.46,18.02,33.09,26.31.7-3.73.77-7.12.15-10.15Z"/><path class="cls-5" d="M964.63,237.75c0-2.76.83-5.1,2.48-7.04,1.66-1.93,3.83-3.48,6.52-4.66,2.69-1.17,5.76-2.03,9.21-2.59,3.45-.55,6.97-.83,10.56-.83-.28,4.01-1.04,7.45-2.28,10.35-1.24,2.9-2.73,5.35-4.45,7.35-1.73,2-3.69,3.49-5.9,4.45-1.29.56-2.58.94-3.87,1.18,12.51,6.58,25.71,12.67,39.73,18.21,4.1,1.62,8.19,3.15,12.3,4.63-.72-6.98-1.51-14.7-2.39-23.23-.4-3.01-.37-4.84.08-5.48.2-.29.69-.54,1.4-.77-.72-1.47-1.08-3.51-1.08-6.13,0-1.52.17-4.21.52-8.07.34-3.86.76-7.97,1.24-12.32.48-4.35.9-8.49,1.24-12.42.34-3.93.52-6.66.52-8.18,0-11.59-3.45-20.56-10.35-26.91-6.9-6.35-18.01-9.52-33.33-9.52-7.87,0-14.77.83-20.7,2.48-5.94,1.66-10.87,3.9-14.8,6.73-3.93,2.83-6.9,6.18-8.9,10.04-2,3.87-3,7.94-3,12.21,0,10.63,7.04,15.94,21.12,15.94,2.07,0,3.59-.17,4.56-.52.96-.34,1.58-1.14,1.86-2.38.55-2.48,1.17-4.76,1.86-6.83.69-2.07,1.59-3.83,2.69-5.28,1.1-1.45,2.55-2.59,4.35-3.42,1.79-.83,4.14-1.24,7.04-1.24,5.24,0,8.69,1.31,10.35,3.93,1.65,2.62,2.48,6.14,2.48,10.56,0,1.52-.04,2.79-.1,3.83-.07,1.04-.17,2.31-.31,3.83-21.81.55-38.3,4.35-49.48,11.39-2.78,1.75-5.21,3.67-7.3,5.75,8.39,5.75,17.13,11.24,26.24,16.45-.06-.48-.09-.97-.09-1.5Z"/><path class="cls-5" d="M1033.05,243.55c1.59.55,3,.97,4.24,1.24,1.24.28,1.86.97,1.86,2.07,0,3.04-.41,6.14-1.24,9.32-.83,3.18-2.17,6.07-4.04,8.69-1.13,1.59-2.54,2.98-4.18,4.21,12.46,4.45,24.94,8.25,37.41,11.47.21-2.43.49-4.75.89-6.9.89-4.85,2.39-8.87,4.49-12.04,2.1-3.17,4.98-5.09,8.65-5.74,4.08-.72,7.07.15,8.98,2.61,1.91,2.47,3.18,5.46,3.8,9,.41,2.31.83,6.06,1.26,11.24.22,2.67.45,5.42.7,8.24,11.62,2.18,23.21,3.89,34.74,5.16-.59-5.83-.86-11.34-.77-16.5.1-5.76.67-10.84,1.71-15.23,1.04-4.39,2.65-7.97,4.82-10.74,2.17-2.77,5.02-4.47,8.56-5.09,4.08-.72,7.07.15,8.98,2.61,1.91,2.47,3.18,5.46,3.8,9,.14.82.34,2.53.6,5.15.25,2.62.52,5.69.79,9.22.27,3.53.6,7.36.99,11.49.38,4.14.74,8.14,1.08,12,.01.16.03.32.04.48,11.7.55,23.32.68,34.81.45-.63-7.25-1.28-14.31-1.97-21.17-.65-6.45-1.27-12.45-1.88-18.07-2.99-1.38-5.8-3.08-8.42-5.13-4.76-3.73-8.66-8.69-11.7-14.91-2.82-5.76-4.31-12.9-4.51-21.39-.68-.08-1.36-.17-2.06-.2-4.03-.19-8.15.08-12.36.83-7.61,1.35-13.66,4-18.14,7.95-4.49,3.95-8.14,10.24-10.95,18.87-1.54-3.93-3.5-7.05-5.87-9.37-2.37-2.31-5.06-4.04-8.07-5.19-3.01-1.15-6.27-1.76-9.79-1.84-3.52-.08-7.11.21-10.78.86-6.8,1.21-12.48,3.55-17.05,7.02-4.57,3.48-8.18,9.23-10.81,17.27-.52-2.15-1.3-4.18-2.34-6.1-1.04-1.92-2.51-3.48-4.41-4.69-1.9-1.2-4.22-2.05-6.97-2.55-2.75-.49-6.17-.38-10.24.34l-7.95,1.41c-.71.13-1.27.27-1.75.42.23.46.49.87.78,1.22,1.24,1.45,2.66,2.45,4.24,3Z"/><path class="cls-5" d="M1184.81,224.55c2.36,3.44,4.04,7.94,5.02,13.51.75,4.21,1.46,9.41,2.14,15.6.07.67.15,1.37.22,2.06,2.45,1.13,5.03,2.05,7.73,2.74,6,1.52,12.04,2.28,18.11,2.28,4.55,0,9.25-.41,14.08-1.24,4.83-.83,9.21-2.14,13.15-3.93,3.93-1.79,7.14-4.14,9.63-7.04,2.48-2.9,3.73-6.35,3.73-10.35,0-3.03-.69-5.52-2.07-7.45-1.38-1.93-2.97-3.45-4.76-4.55-1.8-1.1-3.56-1.83-5.28-2.17-1.73-.34-2.93-.52-3.62-.52-1.52,0-2.73.59-3.62,1.76-.9,1.17-1.97,2.48-3.21,3.93-1.24,1.45-2.87,2.76-4.87,3.93-2,1.17-4.8,1.76-8.38,1.76s-6.62-.62-9.11-1.86c-2.48-1.24-4.49-2.83-6-4.76-1.52-1.93-2.66-4.17-3.42-6.73-.76-2.55-1.14-5.14-1.14-7.76,2.21,0,5.35-.1,9.42-.31,4.07-.21,8.52-.76,13.35-1.66,4.83-.9,9.73-2.17,14.7-3.83,4.97-1.66,9.49-3.97,13.56-6.94,4.07-2.97,7.38-6.66,9.94-11.08,2.55-4.42,3.83-9.8,3.83-16.15,0-4.28-.69-8.28-2.07-12.01-1.38-3.73-3.59-7-6.62-9.83-3.04-2.83-7.04-5.07-12.01-6.73-4.97-1.66-11.04-2.48-18.22-2.48-8.97,0-16.7,1.24-23.19,3.73-6.49,2.48-12.01,5.73-16.56,9.73-4.55,4-8.25,8.52-11.08,13.56-2.83,5.04-5.04,10.11-6.62,15.22-1.59,5.11-2.66,10.08-3.21,14.91-.55,4.83-.83,8.97-.83,12.42,0,.68.03,1.34.04,2.01,3.21.38,6.17,1.22,8.84,2.6,3.24,1.67,6.04,4.22,8.4,7.66ZM1205.52,188.07c.76-3.17,1.86-6.07,3.31-8.69,1.45-2.62,3.24-4.79,5.38-6.52,2.14-1.72,4.73-2.59,7.76-2.59,3.59,0,6.24,1.11,7.97,3.31,1.72,2.21,2.59,4.69,2.59,7.45,0,5.11-2.66,9.04-7.97,11.8-5.32,2.76-12.25,4.21-20.81,4.35.41-2.9,1-5.93,1.76-9.11Z"/><path class="cls-5" d="M1183.78,250.59c2.62,2.05,5.43,3.75,8.42,5.13-.07-.68-.15-1.39-.22-2.06-.68-6.19-1.39-11.39-2.14-15.6-.99-5.57-2.66-10.07-5.02-13.51-2.36-3.43-5.16-5.99-8.4-7.66-2.67-1.38-5.63-2.22-8.84-2.6.2,8.49,1.7,15.63,4.51,21.39,3.03,6.21,6.94,11.18,11.7,14.91Z"/><path class="cls-5" d="M93.35,281.27l11.43.46c2.75.11,4.57-.22,5.45-.99.88-.77,1.47-2.35,1.78-4.75,0-.2.24-2,.7-5.4.46-3.4,1-7.7,1.63-12.91.63-5.2,1.35-11.21,2.16-18.02.19-1.61.39-3.25.59-4.87-17.9,9.81-34.94,20.37-51.07,31.35.94,2.45,2.14,4.62,3.66,6.47,4.34,5.3,12.23,8.19,23.66,8.65Z"/><path class="cls-5" d="M175.49,226.63c.7,7.47,1.31,13.31,1.82,17.52.51,4.22.97,7.46,1.38,9.73.62,3.49,1.51,6.5,2.66,9.04,1.16,2.53,2.76,4.56,4.83,6.07,2.07,1.51,4.67,2.5,7.8,2.96,3.13.46,7.05.27,11.76-.56l8.19-1.46c1.21-.22,2.28-.79,3.21-1.74.93-.95,1.26-2.18.99-3.7-.24-1.37-.6-4.27-1.08-8.73-.48-4.45-.99-9.57-1.55-15.34-.55-5.77-1.11-11.78-1.67-18.02-.56-6.24-1.12-11.81-1.68-16.72-.45-4.18-.69-7.99-.72-11.45-12.91,4.04-25.51,8.6-37.78,13.59.73,7.26,1.34,13.54,1.84,18.81Z"/><path class="cls-5" d="M232.12,188.27c.11.75.22,1.5.36,2.3.11.61.57,1.04,1.4,1.28.83.25,1.79.39,2.89.43,1.1.04,2.23,0,3.38-.13,1.15-.12,2.18-.27,3.09-.43,3.94-.7,7.41-2.14,10.39-4.31.72-.52,1.4-1.08,2.05-1.67.11-1.04.26-2.06.44-3.07-8.11,1.66-16.11,3.53-24,5.61Z"/><path class="cls-5" d="M325.9,174.18c-.24.64-.47,1.27-.74,1.87-1.47,3.2-3.2,5.89-5.18,8.08-1.98,2.19-4.22,3.79-6.71,4.8-2.49,1.02-4.97,1.49-7.44,1.43-2.62-.07-5.03-.82-7.23-2.27-2.2-1.44-3.25-3.93-3.16-7.48.04-1.54.31-2.95.8-4.25-12.66,1.38-25.08,3.3-37.27,5.71-.98,1.32-2.07,2.55-3.3,3.66-.11,1.09-.2,2.2-.23,3.34-.14,5.55.62,10.31,2.29,14.28,1.67,3.97,3.98,7.23,6.92,9.77,2.94,2.54,6.44,4.41,10.49,5.59,4.05,1.18,8.39,1.83,13.01,1.95,9.55.24,17.34-1.56,23.38-5.42,6.03-3.85,10.97-8.43,14.8-13.73,1.07,6.35,3.41,11.34,7.02,14.98,3.61,3.64,9.11,5.55,16.5,5.74,5.24.13,9.69-.68,13.36-2.43,2.89-1.39,5.29-3.13,7.25-5.21.69-2.77,1.4-5.67,2.15-8.7,1.15-4.68,2.41-9.8,3.78-15.33-.02,0-.04-.02-.06-.02-1.38-.34-2.95-.84-4.7-1.51-1.76-.66-3.31-1.82-4.65-3.47-1.35-1.65-1.97-4.4-1.87-8.26.02-.7.08-1.63.17-2.78-12.75-.75-25.88-.87-39.4-.34Z"/><path class="cls-5" d="M378.38,192.9c-.09,3.39-.64,6.84-1.65,10.36-1.02,3.52-2.6,6.72-4.75,9.59-.46.61-.96,1.18-1.49,1.73-2.09,8.43-3.91,15.65-5.43,21.66-2.04,7.98-3.57,14.23-4.6,18.77-1.04,4.54-1.77,8.06-2.22,10.56-.68,3.83-.93,7.27-.76,10.3.17,3.04.95,5.71,2.34,8.01,1.39,2.31,3.47,4.26,6.24,5.87,2.77,1.61,6.5,2.82,11.21,3.65l8.2,1.45c1.97.35,3.32.24,4.05-.32.72-.56,1.34-1.83,1.84-3.8,5.01-20.41,9.44-37.07,13.28-49.97,3.84-12.89,7.6-22.88,11.28-29.96,3.67-7.08,7.51-11.73,11.5-13.95,3.99-2.21,8.64-2.86,13.95-1.92,5.46.96,8.84,3.32,10.14,7.07,1.29,3.75,1.56,7.79.79,12.12-.74,4.17-1.91,9.28-3.53,15.35-1.62,6.07-3.28,12.35-4.97,18.84-1.7,6.49-3.33,12.64-4.9,18.46-1.58,5.82-2.69,10.57-3.33,14.23-.62,3.5-.83,6.68-.63,9.55s.97,5.37,2.32,7.49c1.34,2.13,3.45,3.96,6.31,5.49,2.86,1.54,6.71,2.73,11.57,3.59l7.28,1.29c2.58.46,4.31.37,5.21-.24.89-.62,1.66-2.76,2.31-6.42.24-1.33.87-4.05,1.91-8.17,1.04-4.11,2.27-8.88,3.7-14.29,1.43-5.42,2.97-11.29,4.63-17.61,1.66-6.32,3.24-12.4,4.74-18.23,1.5-5.83,2.84-11.22,4.03-16.17,1.18-4.94,2.01-8.75,2.48-11.41.73-4.13,1.22-7.97,1.47-11.52,0,0,0-.01,0-.02-.05-.25-.1-.52-.15-.78-35.31-13.93-72.22-23.94-112.66-27.88-1.29,5.25-2.51,10.2-3.65,14.85,1.33.35,1.99,1.13,1.96,2.34Z"/><path class="cls-5" d="M492.88,204.39c.77,3.61,1.83,6.72,3.19,9.34,1.36,2.63,3.17,4.64,5.43,6.05,2.26,1.41,5.2,2.24,8.82,2.5,3.62.26,8.07-.18,13.37-1.3l5.95-1.27c-12.1-5.77-24.32-11.15-36.73-16.05-.02.24-.02.48-.04.73Z"/><path class="cls-5" d="M770.29,421.1c.15,2.41.62,4.76,1.42,7.07.79,2.31,1.98,4.43,3.53,6.38,1.56,1.95,3.51,3.64,5.85,5.09,2.34,1.45,5.28,2.48,8.82,3.08l14.29,2.44c1.9.32,3.4.41,4.47.24,1.08-.16,2.07-.87,2.99-2.12.73-.99,1.82-3.29,3.27-6.9,1.45-3.6,3.1-7.94,4.95-13.02,1.84-5.07,3.83-10.58,5.97-16.52,2.13-5.94,4.21-11.74,6.23-17.42.98-2.75,1.92-5.41,2.84-7.98-7.35-2.83-14.59-5.75-21.7-8.74-1.13,3.02-2.12,5.69-2.95,7.96-.92,2.51-2.01,5.4-3.27,8.68-1.26,3.29-2.83,7.36-4.71,12.22-1.88,4.86-4.35,11.37-7.42,19.53.5-5.38,1.15-11.91,1.98-19.61.82-7.7,1.63-15.3,2.42-22.79.43-4.06.82-7.87,1.19-11.48-12.29-5.4-24.24-11-35.9-16.75.05.61.09,1.22.15,1.86,1.21,15.47,3.08,38.4,5.6,68.79Z"/><path class="cls-5" d="M839.13,404.07c-.5,11.96-.66,21.52-.48,28.69,0,2.52.21,4.9.67,7.15.46,2.25,1.29,4.32,2.51,6.2,1.22,1.89,2.97,3.52,5.26,4.89,2.29,1.37,5.33,2.38,9.14,3.03l12.04,2.05c2.58.44,4.46.34,5.62-.3,1.16-.64,2.49-2.1,4-4.36,2.33-3.8,5.12-8.3,8.39-13.48,3.26-5.18,6.68-10.65,10.25-16.42,3.37-5.44,6.72-10.95,10.06-16.52-10.4-2.84-20.55-5.86-30.49-9.05-1.23,3.53-2.57,7.35-4.06,11.52-2.56,7.2-5.57,15.61-9.03,25.24.83-11.48,1.59-21.22,2.25-29.23.32-3.91.62-7.5.89-10.79-8.78-2.95-17.38-6.03-25.83-9.21-.54,7.43-.94,14.3-1.2,20.58Z"/><path class="cls-5" d="M919.2,408.32c3.37,3.37,7.52,6.13,12.48,8.26,6.28,2.69,14.18,4.04,23.7,4.04,5.35,0,10.26-.42,14.75-1.26-9.76-1.75-19.18-3.64-28.25-5.64-7.69-1.7-15.24-3.51-22.68-5.4Z"/><path class="cls-5" d="M1037.33,428.24c-.03,1-.08,1.98-.17,2.92-.14,1.52-.21,3.18-.21,4.97,0,.55.34,1,1.04,1.35.69.35,1.52.62,2.48.83.96.21,1.97.35,3,.41,1.03.07,1.97.1,2.79.1,3.59,0,6.86-.72,9.83-2.17,2.97-1.45,5.49-3.45,7.56-6,.02-.19.03-.4.05-.6-9-.46-17.79-1.06-26.38-1.8Z"/><path class="cls-5" d="M983.02,433.54c-.76,10.28-1.42,18.77-1.97,25.46-.55,6.7-.93,11.94-1.14,15.73-.21,3.8-.31,6.73-.31,8.8,0,3.18.31,5.97.93,8.38.62,2.42,1.72,4.45,3.31,6.11,1.59,1.66,3.73,2.93,6.42,3.83,2.69.9,6.17,1.35,10.46,1.35h7.45c1.1,0,2.14-.34,3.1-1.04.96-.69,1.45-1.72,1.45-3.1,0-1.24.14-3.86.41-7.87.28-4,.62-8.59,1.04-13.77.41-5.18.86-10.56,1.35-16.15.48-5.59.86-10.59,1.14-15.01.57-8.27,1.77-14.82,3.6-19.7-12.58-1.37-24.71-3.02-36.37-4.88-.31,4.24-.6,8.22-.87,11.85Z"/><path class="cls-5" d="M1064.08,430.06c-.15.19-.28.39-.43.58-.69,8.83-1.28,15.94-1.76,21.32-.49,5.38-.86,9.73-1.14,13.04-.28,3.31-.49,5.87-.62,7.66-.14,1.8-.21,3.52-.21,5.18,0,3.31.31,6.25.93,8.8.62,2.56,1.69,4.66,3.21,6.31,1.52,1.66,3.65,2.93,6.42,3.83,2.76.9,6.28,1.35,10.56,1.35h7.45c1.79,0,2.97-.28,3.52-.83.55-.55.9-1.66,1.04-3.31.55-6.62,1.1-13.46,1.66-20.5.55-7.04,1.1-14.21,1.66-21.53,3.73,6.9,7.42,13.29,11.08,19.15,3.66,5.87,7.28,10.94,10.87,15.22,3.59,4.28,7.21,7.66,10.87,10.14,3.66,2.48,7.35,3.73,11.08,3.73,3.17,0,5.9-.83,8.18-2.48,2.28-1.66,4.17-3.59,5.69-5.8,1.52-2.21,2.62-4.35,3.31-6.42.69-2.07,1.04-3.45,1.04-4.14,0-.83-1.17-2.55-3.52-5.18-2.35-2.62-5.49-6-9.42-10.14-3.93-4.14-8.52-8.9-13.77-14.28-5.25-5.38-10.76-11.32-16.56-17.8,2.52-1.07,4.88-2.12,7.15-3.15-20.29.48-39.72.19-58.27-.75Z"/><path class="cls-7" d="M1063.7,430.04c-.02.2-.03.41-.05.6.15-.19.28-.39.43-.58-.13,0-.25-.01-.38-.02Z"/><path class="cls-3" d="M655.68,347.28l-2.89-8.25c-1.06-3.04-3.67-5.27-6.83-5.87-3.17-.59-6.4.54-8.5,2.99-2.16,2.52-4.45,4.91-6.85,7.16-.52-1.03-1.23-1.96-2.12-2.73-3.73-3.26-8.58-6.55-12.65-8.58-1.79-.9-3.83-1.17-5.79-.78l-.53.11c-1.92.38-3.66,1.38-4.96,2.84l-5.14,5.78c-.41.47-.77.97-1.08,1.5-.27-.02-.54-.02-.81-.01l-5.87.16h-13l-5.6-.16c-.32,0-.63.02-.95.05-1.03-2.95-3.52-5.19-6.6-5.84-3.27-.7-6.66.48-8.79,3.05-1.39,1.67-2.85,3.27-4.39,4.79-.02-.39-.06-.79-.13-1.18l-.11-.58c-.42-2.29-1.71-4.34-3.6-5.7-3.96-2.84-7.76-4.97-11.97-6.69-1.55-.63-3.24-.82-4.89-.55l-.64.11c-2.28.38-4.33,1.63-5.72,3.48l-4.29,5.72c-1.2,1.59-1.82,3.53-1.8,5.49-.22.22-.42.46-.62.7-.57-.1-1.16-.15-1.74-.14l-8.07.16h-23.45l-6.76-.14-1.57-3.33c-1.35-2.87-4.12-4.82-7.28-5.12-3.16-.3-6.24,1.08-8.12,3.64-3.33,4.54-6.77,8-9.97,10.63v-10.13c0-2.39-.95-4.68-2.64-6.36l-.42-.42c-1.69-1.69-3.98-2.64-6.36-2.64h-7.58c-.35,0-.69.03-1.04.07-1.66-2.05-3.51-3.93-5.75-5.81-1.86-1.56-4.27-2.29-6.68-2.06l-.53.05c-1.58.16-3.1.74-4.39,1.67l-2.7,1.96c-.18.13-.35.26-.51.4-.58.25-1.13.56-1.65.93l-2,1.42c-.27-.13-.55-.25-.83-.36l-7.58-2.81c-1.92-.71-4.03-.75-5.98-.1l-.48.16c-2.37.79-4.3,2.53-5.34,4.8-1.94,4.25-4.29,7.86-7.34,11.22-.11-.11-.21-.22-.33-.32l-.42-.37c-.66-.58-1.39-1.05-2.17-1.4v-3.21c0-2.6-1.12-5.07-3.08-6.78l-.42-.37c-1.69-1.48-3.88-2.26-6.12-2.22l-7.11.16h-14.84l-6.41-.16c-1.84-.04-3.67.48-5.21,1.51l-.48.32c-1.97,1.31-3.31,3.34-3.8,5.61-1.06-.76-2.27-1.31-3.6-1.56-3.17-.59-6.4.55-8.5,2.99-2.16,2.52-4.45,4.91-6.86,7.16-.52-1.03-1.23-1.96-2.12-2.73-3.73-3.26-8.58-6.55-12.65-8.58-1.79-.9-3.83-1.17-5.79-.78l-.53.11c-1.24.25-2.41.76-3.43,1.48-.3-.28-.62-.55-.96-.78l-6.62-4.61c-1.51-1.05-3.3-1.61-5.14-1.61h-.64c-2.63,0-5.13,1.15-6.84,3.15-9.16,10.72-18.23,16.41-29.04,21.65-.26.13-.5.27-.75.42-.9-1.19-1.83-2.36-2.81-3.52-1.71-2.03-4.23-3.21-6.89-3.21h-.04c.36-1.2.73-2.42,1.09-3.66.79-2.66.3-5.53-1.31-7.78l-.27-.37c-1.33-1.86-3.31-3.14-5.55-3.59l-7.9-1.59c-1.54-.31-3.13-.21-4.62.29l-.48.16c-2.85.95-5.04,3.26-5.83,6.16-1.23,4.49-2.41,8.64-3.57,12.6-.41-1.87-1.4-3.58-2.87-4.86l-.42-.37c-.66-.58-1.39-1.05-2.17-1.4v-3.21c0-2.6-1.12-5.07-3.08-6.78l-.42-.37c-1.69-1.48-3.87-2.26-6.12-2.22l-7.11.16h-14.84l-6.41-.16c-1.85-.04-3.67.48-5.21,1.51l-.48.32c-2.5,1.67-4.01,4.48-4.01,7.49v1.33c-.49-.79-1.08-1.56-1.81-2.29l-3.23-3.18c-1.79-1.76-4.24-2.7-6.75-2.57l-5.19.25h-14.69l-7.86-.16c-1.84-.04-3.64.49-5.17,1.51l-.48.32c-1.64,1.1-2.85,2.69-3.49,4.5-.62-.29-1.27-.53-1.95-.68-3.27-.7-6.66.48-8.79,3.05-1.39,1.67-2.85,3.27-4.39,4.79-.02-.39-.06-.79-.13-1.18l-.11-.58c-.42-2.29-1.71-4.34-3.6-5.7-3.96-2.84-7.76-4.97-11.97-6.69-1.55-.63-3.24-.82-4.89-.55l-.64.11c-2.28.38-4.33,1.63-5.72,3.48l-4.29,5.72c-1.2,1.59-1.82,3.53-1.8,5.49-.77.78-1.4,1.71-1.85,2.73l-2.86,6.57c-.89,2.04-.99,4.33-.29,6.43l.16.48c.68,2.04,2.07,3.77,3.9,4.87-.5.77-.88,1.62-1.13,2.53l-.16.58c-.66,2.43-.28,5.03,1.07,7.17l4.5,7.15c1.34,2.14,3.52,3.61,6.01,4.06l.58.11c.53.1,1.07.15,1.61.15,1.07,0,2.13-.19,3.13-.56,9.54-3.54,18.65-8.45,26.26-14.01.11,2.64,1.36,5.12,3.49,6.76l6.25,4.82c.16.12.39.29.56.4.68.46,2.76,1.85,5.79,1.85,1.71,0,3.41-.43,5.19-1.32.03-.02.07-.03.1-.05,5.42-2.79,9.93-5.66,13.91-8.87,1.79,1.91,3.38,3.77,4.74,5.57,1.53,2.01,3.83,3.29,6.35,3.52l.58.05c2.55.23,5.08-.63,6.96-2.38l1.53-1.43c.49.49,1.02.95,1.63,1.32l6.53,4.06c.97.67,3.11,2.01,6.06,2.01,2.39,0,4.1-.86,4.93-1.27.18-.09.35-.18.52-.28,2.17-1.27,4.99-3.04,7.64-5.53,4.68-4.44,8.1-10.26,9.91-16.65l4.61.1c-.99,2.06-1.16,4.43-.45,6.63l2.38,7.42c.78,2.44,2.57,4.43,4.91,5.47l.48.21c1.16.51,2.4.77,3.65.77.47,0,.93-.04,1.4-.11,8.93-1.41,16.85-2.82,24.42-4.37,1.2,1.74,2.98,3.01,5.04,3.58l.58.16c2.31.63,4.79.31,6.87-.89l6.89-3.97c2.29-1.32,3.88-3.58,4.36-6.19v-.05c1.91.19,3.86-.18,5.83-1.14l-.1,5.9c-.04,2.41.89,4.74,2.58,6.46s4,2.69,6.42,2.69h9.17c2.41,0,4.72-.97,6.41-2.69,1.69-1.72,2.62-4.04,2.58-6.46l-.05-3.04,4.5,6.75c1.32,1.99,3.38,3.36,5.72,3.83l.53.11c.58.12,1.18.17,1.77.17,1.28,0,2.55-.27,3.72-.81,13.11-5.96,23.91-13.03,32.83-21.5,1.36.75,2.9,1.14,4.49,1.1l2.07-.04c-.92.56-1.96,1.05-3.12,1.5-3.2,1.21-5.43,4.14-5.76,7.54s1.3,6.7,4.2,8.51l6.53,4.06c.97.67,3.11,2.01,6.06,2.01,2.39,0,4.1-.86,4.93-1.27.18-.09.35-.18.52-.28,2.17-1.27,4.99-3.04,7.64-5.53,4.68-4.44,8.1-10.26,9.91-16.65l7.13.15c.56.01,1.11-.04,1.65-.13l.72.44s-.1.03-.15.05c-3.17,1.04-5.5,3.74-6.07,7.02-.57,3.28.72,6.61,3.36,8.65l6.45,4.99c2.42,1.98,4.88,2.4,6.53,2.4,1.96,0,3.44-.57,4.41-.95l.2-.08c.17-.07.35-.14.52-.22,14.64-6.7,24.83-16.41,32.57-31.11v11.35l-.25,4.8c-.14,2.72.95,5.35,2.97,7.17l4.19,3.76c.05.05.11.09.16.14.76.65,3.08,2.64,6.76,2.64,1.47,0,2.93-.3,4.36-.87,11.35-4.4,20.46-9.8,27.99-16.64,1.71,1.62,3.99,2.53,6.36,2.46l7.81-.16h23.51l7.64.15c.05,1.58.52,3.13,1.37,4.49l4.5,7.15c1.34,2.14,3.52,3.61,6.01,4.06l.58.11c.53.1,1.07.15,1.61.15,1.07,0,2.13-.19,3.13-.56,10.92-4.06,21.28-9.9,29.46-16.47-.03.27-.05.55-.05.82v5.67c0,2.18.79,4.28,2.22,5.92l.37.42c1.77,2.02,4.35,3.15,7.03,3.08l5.6-.16h13.27l5.82.16c.08,0,.16,0,.24,0,2.53,0,4.94-1.07,6.65-2.95,1.31,1.61,3.15,2.73,5.21,3.14l.53.11c.58.12,1.17.17,1.76.17,1.28,0,2.55-.27,3.72-.81,15.62-7.1,27.97-15.77,37.75-26.51,1.98-2.06,2.98-4.45,2.98-7.12,0-1.34-.25-2.7-.74-4.05ZM607.03,357.96c.32.25.64.5.94.76-.31.14-.63.28-.94.42v-1.17ZM105.47,355.82c.51.08,1.02.13,1.54.11l1.38-.03c-1.23.94-2.56,1.85-3.96,2.74.43-.77.81-1.72,1.04-2.83ZM285.4,360.58c-1.78.68-3.26,1.9-4.28,3.43l-.04-2.63v-8.08c.2-.18.39-.37.59-.54.48.48,1.02.91,1.61,1.28,2.47,1.54,4.63,3.08,6.54,4.67-1.46.67-2.94,1.29-4.41,1.86Z"/><path class="cls-6" d="M52.24,357.48l2.86-6.57.48-.21c3.23,1.64,6.89,2.76,10.86,3.55l.27.42-2.17,7.05-.48.26c-4.24-.74-7.63-1.85-11.66-4.03l-.16-.48ZM95.54,353.92c.11.37.16.64.16.85,0,.37-.16.64-.58,1.11-8,9.22-21.46,17.54-34.87,22.52l-.58-.11-4.5-7.15.16-.58c14.52-4.72,27.66-12.88,37.84-25.12l2.38,8.48ZM57.7,344.49l4.29-5.72.64-.11c3.5,1.43,6.73,3.23,10.12,5.67l.11.58-4.4,6.04-.58.11c-3.71-2.86-6.31-4.35-10.07-6.04l-.11-.53Z"/><path class="cls-6" d="M136.82,376.55c-3.5-4.61-7.79-8.96-11.76-12.56-5.35,5.78-11.18,9.7-18.18,13.3-.53.26-.9.37-1.17.37-.32,0-.53-.16-.85-.37l-6.25-4.82c12.19-5.67,22.84-13.67,27.72-24.69h-12.61l-7.9.16-.37-.42v-7.21l.48-.32,7.95.16h15l5.41-.26,3.23,3.18c.37.37.58.64.58.95s-.16.69-.48,1.27c-2.44,4.72-4.88,8.74-7.31,12.24,5.03,4.19,9.01,7.68,13.41,12.67l-.05.58-6.25,5.83-.58-.05Z"/><path class="cls-6" d="M157.13,356.42l-8,.16-.37-.42v-6.73l.42-.37,7.9.16h25.01l7.47-.16.42.37v6.73l-.37.42-7.53-.16h-7.37c-.37,7.15-3.29,14.15-8.53,19.13-1.8,1.7-3.82,3.02-5.99,4.29-.42.21-.64.32-.9.32s-.58-.16-1.11-.53l-6.73-4.19c8.37-3.18,13.88-9.38,14.57-19.02h-8.9ZM176.74,344.7h-14.68l-7.05.16-.37-.42v-6.84l.48-.32,6.52.16h15.05l7.21-.16.42.37v6.78l-.37.42-7.21-.16Z"/><path class="cls-6" d="M195.29,368.97c2.23-.26,4.35-.48,6.41-.74,3.39-10.12,6.31-19.93,9.33-30.95l.48-.16,7.9,1.59.27.37c-3.18,10.76-6.04,19.34-9.17,27.98,4.77-.64,9.7-1.48,14.41-2.44-1.27-2.17-2.65-4.24-4.13-6.25l.16-.53,5.83-3.55h.48c4.77,5.67,8.16,11.23,11.45,17.75l-.11.58-6.89,3.97-.58-.16c-.79-1.75-1.64-3.44-2.49-5.14-9.59,2.12-19.29,3.92-30.74,5.72l-.48-.21-2.38-7.42.27-.42Z"/><path class="cls-6" d="M262.44,356.57c-4.03,2.86-8.21,5.56-12.88,8.27-1.06.58-1.32.58-2.28-.21l-5.67-4.93c12.45-6.04,22.31-12.61,31.96-23.9h.64l6.62,4.61.05.64c-3.39,3.5-6.68,6.52-9.8,9.17v12.24l.26,16.64h-9.17l.27-16.48v-6.04Z"/><path class="cls-6" d="M286.98,346.93l5.14-5.78.53-.11c3.18,1.59,7.42,4.4,10.76,7.31v.53l-5.51,6.41-.48.05c-3.18-3.07-6.73-5.67-10.39-7.95l-.05-.48ZM328.05,351.33c.16.42.21.74.21,1.01,0,.37-.16.58-.53.95-9.43,10.39-20.93,18.12-34.92,24.48l-.53-.11-4.77-7.15.11-.53c13.14-5.03,26.71-14.36,37.52-26.97l2.91,8.32Z"/><path class="cls-6" d="M341.67,356.42l-8,.16-.37-.42v-6.73l.42-.37,7.9.16h25.01l7.47-.16.42.37v6.73l-.37.42-7.53-.16h-7.37c-.37,7.15-3.29,14.15-8.53,19.13-1.8,1.7-3.82,3.02-5.99,4.29-.42.21-.64.32-.9.32s-.58-.16-1.11-.53l-6.73-4.19c8.37-3.18,13.88-9.38,14.57-19.02h-8.9ZM361.28,344.7h-14.68l-7.05.16-.37-.42v-6.84l.48-.32,6.52.16h15.05l7.21-.16.42.37v6.78l-.37.42-7.21-.16Z"/><path class="cls-6" d="M397.75,349.37c-3.23,4.24-6.68,7.84-10.55,10.97-.58.42-.9.64-1.27.64-.21,0-.48-.11-.85-.32l-6.31-3.82c8.32-6.31,13.67-12.88,17.54-21.36l.48-.16,7.58,2.81.11.53c-.69,1.33-1.38,2.54-2.17,3.82l6.78-.11,4.03-.32,4.61,4.29c.48.42.74.74.74,1.11,0,.26-.11.58-.32,1.06-6.68,14.36-15.26,24.17-30.31,31.05-.69.26-1.06.42-1.38.42-.27,0-.53-.11-.9-.42l-6.57-5.09c11.82-3.87,22.95-12.29,28.88-25.17l-10.12.05ZM412.8,337.92l2.76-1.96.53-.05c1.96,1.64,3.82,3.5,5.41,5.62l-.05.53-2.91,2.07h-.53c-1.64-2.17-3.13-3.92-5.25-5.72l.05-.48ZM417.78,334.58l2.7-1.96.53-.05c1.96,1.64,3.66,3.34,5.25,5.46l-.05.53-2.76,2.01h-.53c-1.64-2.17-3.07-3.71-5.19-5.51l.05-.48Z"/><path class="cls-6" d="M441.58,366.64c8.11-3.02,18.07-9.86,26.23-20.99l3.5,7.42c.21.37.32.64.32.9,0,.32-.11.58-.42,1.01-7.79,9.7-18.02,16.8-32.11,22.26-.53.21-.85.27-1.11.27-.32,0-.53-.16-.9-.48l-4.19-3.76.26-5.03v-27.45l.42-.37h7.58l.42.42v25.81Z"/><path class="cls-6" d="M508.09,362.3h-23.69l-7.9.16-.37-.42v-7.58l.48-.32,7.58.16h23.63l8.16-.16.42.37v7.53l-.37.42-7.95-.16Z"/><path class="cls-6" d="M521.72,357.48l2.86-6.57.48-.21c3.23,1.64,6.89,2.76,10.86,3.55l.27.42-2.17,7.05-.48.26c-4.24-.74-7.63-1.85-11.66-4.03l-.16-.48ZM565.01,353.92c.11.37.16.64.16.85,0,.37-.16.64-.58,1.11-8,9.22-21.46,17.54-34.87,22.52l-.58-.11-4.5-7.15.16-.58c14.52-4.72,27.66-12.88,37.84-25.12l2.38,8.48ZM527.18,344.49l4.29-5.72.64-.11c3.5,1.43,6.73,3.23,10.12,5.67l.11.58-4.4,6.04-.58.11c-3.71-2.86-6.31-4.35-10.07-6.04l-.11-.53Z"/><path class="cls-6" d="M597.03,357.16v14.04l.16,5.67-.37.42-5.94-.16h-13.51l-5.72.16-.37-.42v-5.67l.48-.32,5.19.16h12.98v-3.87h-11.76l-5.67.16-.37-.42v-5.56l.48-.32,5.67.16h11.66v-3.55h-12.29l-5.94.16-.37-.42v-5.62l.48-.32,5.72.16h13.25l5.99-.16.42.37-.16,5.35Z"/><path class="cls-6" d="M605.14,346.93l5.14-5.78.53-.11c3.18,1.59,7.42,4.4,10.76,7.31v.53l-5.51,6.41-.48.05c-3.18-3.07-6.73-5.67-10.39-7.95l-.05-.48ZM646.21,351.33c.16.42.21.74.21,1.01,0,.37-.16.58-.53.95-9.43,10.39-20.93,18.12-34.92,24.48l-.53-.11-4.77-7.15.11-.53c13.14-5.03,26.71-14.36,37.52-26.97l2.91,8.32Z"/></svg>