<?xml version="1.0" encoding="UTF-8"?><svg id="Laag_1" xmlns="http://www.w3.org/2000/svg" viewBox="0 0 84.01 192.67"><defs><style>.cls-1{fill:#fff;}.cls-1,.cls-2{stroke-width:0px;}.cls-2{fill:#fdc303;}</style></defs><path class="cls-2" d="M68.21,12.41c-5.7-5.21-13.89-7.74-25.03-7.74h-12.98c-2.09,0-7.63,0-11.65,4.03-3.69,3.69-4.25,8.74-4.45,13.2-.72,10.67-1.38,20-1.96,27.72-.59,7.76-1.1,14.38-1.54,19.86-.44,5.54-.78,10.16-1,13.73-.21,3.37-.42,6.21-.63,8.44-.24,2.57-.4,4.65-.48,6.33-.08,1.67-.12,3.3-.12,4.86,0,4.3.32,8.06.97,11.48.82,4.37,2.41,8.2,4.71,11.4,1.42,1.97,3.11,3.67,5.07,5.08-.45.18-.88.38-1.31.58-4.52,2.14-8.21,5.13-10.95,8.87-2.46,3.36-4.27,7.18-5.37,11.35-.98,3.72-1.48,7.6-1.48,11.52,0,7.47,1.86,13.97,5.51,19.34,3.17,4.65,9.71,10.2,22.93,10.2,6.6,0,12.3-1.39,16.95-4.12,4.42-2.61,7.95-5.94,10.47-9.9,2.27-3.57,3.87-7.48,4.74-11.62.75-3.56,1.12-6.94,1.12-10.06,0-8.27-2.29-15.08-6.82-20.24-.65-.74-1.35-1.44-2.08-2.08,1.5-.61,2.86-1.45,4.04-2.51,2.67-2.36,4.34-5.64,5.11-10.02l2.61-13.06c1.03-5.15,2.1-10.56,3.2-16.22,1.1-5.66,2.21-11.4,3.31-17.21,1.1-5.8,2.12-11.47,3.02-16.87.9-5.39,1.63-10.41,2.17-14.95.57-4.83.85-8.69.85-11.8,0-7.48-3.08-14.25-8.91-19.6Z"/><path class="cls-1" d="M75.11,7.74c-5.7-5.21-13.89-7.74-25.03-7.74h-12.98c-2.09,0-7.63,0-11.65,4.03-3.69,3.69-4.25,8.74-4.45,13.2-.72,10.67-1.38,20-1.96,27.72-.59,7.76-1.1,14.38-1.54,19.86-.44,5.54-.78,10.16-1,13.73-.21,3.37-.42,6.21-.63,8.44-.24,2.57-.4,4.65-.48,6.33-.08,1.67-.12,3.3-.12,4.86,0,4.3.32,8.06.97,11.48.82,4.37,2.41,8.2,4.71,11.4,1.42,1.97,3.11,3.67,5.07,5.08-.45.18-.88.38-1.31.58-4.52,2.14-8.21,5.13-10.95,8.87-2.46,3.36-4.27,7.18-5.37,11.35-.98,3.72-1.48,7.6-1.48,11.52,0,7.47,1.86,13.97,5.51,19.34,3.17,4.65,9.71,10.2,22.93,10.2,6.6,0,12.3-1.39,16.95-4.12,4.42-2.61,7.95-5.94,10.47-9.9,2.27-3.57,3.87-7.48,4.74-11.62.75-3.56,1.12-6.94,1.12-10.06,0-8.27-2.29-15.08-6.82-20.24-.65-.74-1.35-1.44-2.08-2.08,1.5-.61,2.86-1.45,4.04-2.51,2.67-2.36,4.34-5.64,5.11-10.02l2.61-13.06c1.03-5.15,2.1-10.56,3.2-16.22,1.1-5.66,2.21-11.4,3.31-17.21,1.1-5.8,2.12-11.47,3.02-16.87.9-5.39,1.63-10.41,2.17-14.95.57-4.83.85-8.69.85-11.8,0-7.48-3.08-14.25-8.91-19.6Z"/><path class="cls-2" d="M39.62,134.3c6.16,0,10.56,1.51,13.2,4.51,2.64,3.01,3.96,7.23,3.96,12.65,0,2.35-.3,4.92-.88,7.7-.59,2.79-1.65,5.39-3.19,7.81-1.54,2.42-3.74,4.48-6.6,6.16-2.86,1.68-6.57,2.53-11.11,2.53-6.6,0-11.08-1.73-13.42-5.17-2.35-3.44-3.52-7.73-3.52-12.87,0-2.93.36-5.79,1.1-8.58.73-2.78,1.9-5.28,3.52-7.48,1.61-2.2,3.81-3.96,6.6-5.28,2.78-1.32,6.23-1.98,10.34-1.98ZM44.46,118.9c-3.67,0-6.68-.44-9.02-1.32-2.35-.88-4.18-2.23-5.5-4.07-1.32-1.83-2.24-4.1-2.75-6.82-.52-2.71-.77-5.83-.77-9.35,0-1.32.03-2.75.11-4.29.07-1.54.22-3.48.44-5.83.22-2.34.44-5.28.66-8.8.22-3.52.55-8.03.99-13.53s.95-12.13,1.54-19.91c.58-7.77,1.24-17.08,1.98-27.94.14-3.22.51-5.13,1.1-5.72.44-.44,1.61-.66,3.52-.66h12.98c8.06,0,13.82,1.58,17.27,4.73,3.44,3.16,5.17,6.86,5.17,11.11,0,2.64-.26,6.13-.77,10.45-.52,4.33-1.21,9.13-2.09,14.41-.88,5.28-1.87,10.82-2.97,16.61-1.1,5.8-2.2,11.52-3.3,17.16-1.1,5.65-2.17,11.04-3.19,16.17-1.03,5.14-1.91,9.54-2.64,13.2-.3,1.76-.77,2.94-1.43,3.52-.66.59-1.8.88-3.41.88h-7.92Z"/></svg>