<?xml version="1.0" encoding="UTF-8" standalone="no"?>
<!DOCTYPE svg PUBLIC "-//W3C//DTD SVG 1.1//EN"
 "http://www.w3.org/Graphics/SVG/1.1/DTD/svg11.dtd">
<!-- Generated by graphviz version 2.26.3 (20100126.1600)
 -->
<!-- Title: _anonymous_0 Pages: 1 -->
<svg width="413pt" height="798pt"
 viewBox="0.00 0.00 413.00 798.00" xmlns="http://www.w3.org/2000/svg" xmlns:xlink="http://www.w3.org/1999/xlink">
<g id="graph1" class="graph" transform="scale(1 1) rotate(0) translate(4 794)">
<title>_anonymous_0</title>
<polygon fill="white" stroke="white" points="-4,5 -4,-794 410,-794 410,5 -4,5"/>
<!-- START -->
<g id="node1" class="node"><title>START</title>
<ellipse fill="none" stroke="black" cx="82" cy="-772" rx="41.0898" ry="18"/>
<text text-anchor="middle" x="82" y="-767.4" font-family="Times New Roman,serif" font-size="14.00">START</text>
</g>
<!-- CheckInputIsXml -->
<g id="node3" class="node"><title>CheckInputIsXml</title>
<polygon fill="none" stroke="black" points="164,-716 4.26326e-014,-716 0,-676 164,-676 164,-716"/>
<text text-anchor="middle" x="82" y="-699.4" font-family="Times New Roman,serif" font-size="14.00">CheckInputIsXml</text>
<text text-anchor="middle" x="82" y="-683.4" font-family="Times New Roman,serif" font-size="14.00">(XmlWellFormedChecker)</text>
</g>
<!-- START&#45;&gt;CheckInputIsXml -->
<g id="edge2" class="edge"><title>START&#45;&gt;CheckInputIsXml</title>
<path fill="none" stroke="black" d="M82,-753.989C82,-745.697 82,-735.63 82,-726.226"/>
<polygon fill="black" stroke="black" points="85.5001,-726.021 82,-716.021 78.5001,-726.021 85.5001,-726.021"/>
</g>
<!-- HelloWorlds -->
<g id="node5" class="node"><title>HelloWorlds</title>
<polygon fill="none" stroke="black" points="245,-216 73,-216 73,-176 245,-176 245,-216"/>
<text text-anchor="middle" x="159" y="-199.4" font-family="Times New Roman,serif" font-size="14.00">HelloWorlds</text>
<text text-anchor="middle" x="159" y="-183.4" font-family="Times New Roman,serif" font-size="14.00">(ForEachChildElementPipe)</text>
</g>
<!-- CheckInputIsXml&#45;&gt;HelloWorlds -->
<g id="edge4" class="edge"><title>CheckInputIsXml&#45;&gt;HelloWorlds</title>
<path fill="none" stroke="black" d="M72.0494,-675.711C64.0014,-657.417 54,-629.544 54,-604 54,-604 54,-604 54,-288 54,-258.623 77.5385,-236.44 102.326,-221.225"/>
<polygon fill="black" stroke="black" points="104.213,-224.176 111.109,-216.133 100.702,-218.12 104.213,-224.176"/>
<text text-anchor="middle" x="76.5" y="-461.4" font-family="Times New Roman,serif" font-size="14.00">success</text>
</g>
<!-- Text2Xml -->
<g id="node7" class="node"><title>Text2Xml</title>
<polygon fill="none" stroke="black" points="204,-624 98,-624 98,-584 204,-584 204,-624"/>
<text text-anchor="middle" x="151" y="-607.4" font-family="Times New Roman,serif" font-size="14.00">Text2Xml</text>
<text text-anchor="middle" x="151" y="-591.4" font-family="Times New Roman,serif" font-size="14.00">(Text2XmlPipe)</text>
</g>
<!-- CheckInputIsXml&#45;&gt;Text2Xml -->
<g id="edge6" class="edge"><title>CheckInputIsXml&#45;&gt;Text2Xml</title>
<path fill="none" stroke="black" d="M97.3133,-675.582C106.848,-662.869 119.25,-646.333 129.732,-632.358"/>
<polygon fill="black" stroke="black" points="132.767,-634.144 135.967,-624.044 127.167,-629.944 132.767,-634.144"/>
<text text-anchor="middle" x="137" y="-645.4" font-family="Times New Roman,serif" font-size="14.00">failure</text>
</g>
<!-- EXIT -->
<g id="node18" class="node"><title>EXIT</title>
<polyline fill="none" stroke="black" points="174,-124 144,-124 "/>
<path fill="none" stroke="black" d="M144,-124C138,-124 132,-118 132,-112"/>
<polyline fill="none" stroke="black" points="132,-112 132,-100 "/>
<path fill="none" stroke="black" d="M132,-100C132,-94 138,-88 144,-88"/>
<polyline fill="none" stroke="black" points="144,-88 174,-88 "/>
<path fill="none" stroke="black" d="M174,-88C180,-88 186,-94 186,-100"/>
<polyline fill="none" stroke="black" points="186,-100 186,-112 "/>
<path fill="none" stroke="black" d="M186,-112C186,-118 180,-124 174,-124"/>
<text text-anchor="middle" x="159" y="-101.4" font-family="Times New Roman,serif" font-size="14.00">EXIT</text>
</g>
<!-- HelloWorlds&#45;&gt;EXIT -->
<g id="edge20" class="edge"><title>HelloWorlds&#45;&gt;EXIT</title>
<path fill="none" stroke="black" d="M159,-175.578C159,-163.383 159,-147.714 159,-134.334"/>
<polygon fill="black" stroke="black" points="162.5,-134.204 159,-124.204 155.5,-134.204 162.5,-134.204"/>
<text text-anchor="middle" x="181.5" y="-145.4" font-family="Times New Roman,serif" font-size="14.00">success</text>
</g>
<!-- RenameElementLineToTest -->
<g id="node9" class="node"><title>RenameElementLineToTest</title>
<polygon fill="none" stroke="black" points="278,-532 108,-532 108,-492 278,-492 278,-532"/>
<text text-anchor="middle" x="193" y="-515.4" font-family="Times New Roman,serif" font-size="14.00">RenameElementLineToTest</text>
<text text-anchor="middle" x="193" y="-499.4" font-family="Times New Roman,serif" font-size="14.00">(XsltPipe)</text>
</g>
<!-- Text2Xml&#45;&gt;RenameElementLineToTest -->
<g id="edge8" class="edge"><title>Text2Xml&#45;&gt;RenameElementLineToTest</title>
<path fill="none" stroke="black" d="M160.321,-583.582C166.016,-571.109 173.39,-554.956 179.692,-541.152"/>
<polygon fill="black" stroke="black" points="182.88,-542.595 183.849,-532.044 176.513,-539.688 182.88,-542.595"/>
<text text-anchor="middle" x="196.5" y="-553.4" font-family="Times New Roman,serif" font-size="14.00">success</text>
</g>
<!-- CheckEmptyMessage -->
<g id="node11" class="node"><title>CheckEmptyMessage</title>
<polygon fill="none" stroke="black" points="220,-440 82,-400 220,-360 358,-400 220,-440"/>
<text text-anchor="middle" x="220" y="-403.4" font-family="Times New Roman,serif" font-size="14.00">CheckEmptyMessage</text>
<text text-anchor="middle" x="220" y="-387.4" font-family="Times New Roman,serif" font-size="14.00">(CompareStringPipe)</text>
</g>
<!-- RenameElementLineToTest&#45;&gt;CheckEmptyMessage -->
<g id="edge10" class="edge"><title>RenameElementLineToTest&#45;&gt;CheckEmptyMessage</title>
<path fill="none" stroke="black" d="M197.827,-491.977C200.813,-479.589 204.781,-463.129 208.535,-447.559"/>
<polygon fill="black" stroke="black" points="212.017,-448.05 210.958,-437.509 205.212,-446.41 212.017,-448.05"/>
<text text-anchor="middle" x="227.5" y="-461.4" font-family="Times New Roman,serif" font-size="14.00">success</text>
</g>
<!-- CheckEmptyMessage&#45;&gt;HelloWorlds -->
<g id="edge14" class="edge"><title>CheckEmptyMessage&#45;&gt;HelloWorlds</title>
<path fill="none" stroke="black" d="M181.14,-370.849C162.809,-354.619 142.835,-332.714 133,-308 122.28,-281.061 132.094,-248.636 142.593,-225.623"/>
<polygon fill="black" stroke="black" points="145.861,-226.904 147.076,-216.379 139.563,-223.849 145.861,-226.904"/>
<text text-anchor="middle" x="155.5" y="-283.4" font-family="Times New Roman,serif" font-size="14.00">lessthan</text>
</g>
<!-- CheckEmptyMessage&#45;&gt;HelloWorlds -->
<g id="edge16" class="edge"><title>CheckEmptyMessage&#45;&gt;HelloWorlds</title>
<path fill="none" stroke="black" d="M208.953,-363.057C197.235,-323.869 178.942,-262.691 168.047,-226.255"/>
<polygon fill="black" stroke="black" points="171.268,-224.812 165.05,-216.234 164.562,-226.817 171.268,-224.812"/>
<text text-anchor="middle" x="221.5" y="-283.4" font-family="Times New Roman,serif" font-size="14.00">greaterthan</text>
</g>
<!-- CreateNewMessage -->
<g id="node13" class="node"><title>CreateNewMessage</title>
<polygon fill="none" stroke="black" points="405,-308 279,-308 279,-268 405,-268 405,-308"/>
<text text-anchor="middle" x="342" y="-291.4" font-family="Times New Roman,serif" font-size="14.00">CreateNewMessage</text>
<text text-anchor="middle" x="342" y="-275.4" font-family="Times New Roman,serif" font-size="14.00">(FixedResult)</text>
</g>
<!-- CheckEmptyMessage&#45;&gt;CreateNewMessage -->
<g id="edge12" class="edge"><title>CheckEmptyMessage&#45;&gt;CreateNewMessage</title>
<path fill="none" stroke="black" d="M253.337,-369.396C271.691,-352.546 294.285,-331.804 312.07,-315.476"/>
<polygon fill="black" stroke="black" points="314.872,-317.656 319.871,-308.315 310.138,-312.499 314.872,-317.656"/>
<text text-anchor="middle" x="317" y="-329.4" font-family="Times New Roman,serif" font-size="14.00">equals</text>
</g>
<!-- CreateNewMessage&#45;&gt;HelloWorlds -->
<g id="edge18" class="edge"><title>CreateNewMessage&#45;&gt;HelloWorlds</title>
<path fill="none" stroke="black" d="M301.84,-267.81C274.308,-253.969 237.607,-235.518 208.301,-220.785"/>
<polygon fill="black" stroke="black" points="209.573,-217.507 199.066,-216.143 206.429,-223.761 209.573,-217.507"/>
<text text-anchor="middle" x="283.5" y="-237.4" font-family="Times New Roman,serif" font-size="14.00">success</text>
</g>
<!-- END -->
<g id="node20" class="node"><title>END</title>
<ellipse fill="none" stroke="black" cx="159" cy="-18" rx="29.0158" ry="18"/>
<text text-anchor="middle" x="159" y="-13.4" font-family="Times New Roman,serif" font-size="14.00">END</text>
</g>
<!-- EXIT&#45;&gt;END -->
<g id="edge22" class="edge"><title>EXIT&#45;&gt;END</title>
<path fill="none" stroke="black" d="M159,-87.7663C159,-75.8492 159,-60.0384 159,-46.4817"/>
<polygon fill="black" stroke="black" points="162.5,-46.2103 159,-36.2103 155.5,-46.2103 162.5,-46.2103"/>
<text text-anchor="middle" x="181.5" y="-57.4" font-family="Times New Roman,serif" font-size="14.00">success</text>
</g>
</g>
</svg>
