<?xml version="1.0" encoding="UTF-8" standalone="no"?>
<!DOCTYPE svg PUBLIC "-//W3C//DTD SVG 1.1//EN"
 "http://www.w3.org/Graphics/SVG/1.1/DTD/svg11.dtd">
<!-- Generated by graphviz version 2.26.3 (20100126.1600)
 -->
<!-- Title: _anonymous_0 Pages: 1 -->
<svg width="462pt" height="188pt"
 viewBox="0.00 0.00 462.00 188.00" xmlns="http://www.w3.org/2000/svg" xmlns:xlink="http://www.w3.org/1999/xlink">
<g id="graph1" class="graph" transform="scale(1 1) rotate(0) translate(4 184)">
<title>_anonymous_0</title>
<polygon fill="white" stroke="white" points="-4,5 -4,-184 459,-184 459,5 -4,5"/>
<!-- HelloWorld -->
<g id="node1" class="node"><title>HelloWorld</title>
<polygon fill="none" stroke="black" points="82,-108 2.13163e-014,-108 0,-72 82,-72 82,-108"/>
<text text-anchor="middle" x="41" y="-85.4" font-family="Times New Roman,serif" font-size="14.00">HelloWorld</text>
</g>
<!-- JAVA_INT_HelloWorld -->
<g id="node2" class="node"><title>JAVA_INT_HelloWorld</title>
<ellipse fill="black" stroke="black" cx="41" cy="-162" rx="1.8" ry="1.8"/>
</g>
<!-- JAVA_INT_HelloWorld&#45;&gt;HelloWorld -->
<g id="edge2" class="edge"><title>JAVA_INT_HelloWorld&#45;&gt;HelloWorld</title>
<path fill="none" stroke="black" d="M41,-159.923C41,-153.757 41,-134.957 41,-118.402"/>
<polygon fill="black" stroke="black" points="44.5001,-118.003 41,-108.003 37.5001,-118.003 44.5001,-118.003"/>
</g>
<!-- ManageDatabase -->
<g id="node4" class="node"><title>ManageDatabase</title>
<polygon fill="none" stroke="black" points="210,-108 100,-108 100,-72 210,-72 210,-108"/>
<text text-anchor="middle" x="155" y="-85.4" font-family="Times New Roman,serif" font-size="14.00">ManageDatabase</text>
</g>
<!-- AbT0 -->
<g id="node7" class="node"><title>AbT0</title>
<ellipse fill="none" stroke="black" cx="155" cy="-18" rx="33.0404" ry="18"/>
<text text-anchor="middle" x="155" y="-13.4" font-family="Times New Roman,serif" font-size="14.00">JDBC</text>
</g>
<!-- ManageDatabase&#45;&gt;AbT0 -->
<g id="edge6" class="edge"><title>ManageDatabase&#45;&gt;AbT0</title>
<path fill="none" stroke="black" d="M155,-71.8314C155,-64.131 155,-54.9743 155,-46.4166"/>
<polygon fill="black" stroke="black" points="158.5,-46.4132 155,-36.4133 151.5,-46.4133 158.5,-46.4132"/>
</g>
<!-- JAVA_INT_ManageDatabase -->
<g id="node5" class="node"><title>JAVA_INT_ManageDatabase</title>
<ellipse fill="black" stroke="black" cx="155" cy="-162" rx="1.8" ry="1.8"/>
</g>
<!-- JAVA_INT_ManageDatabase&#45;&gt;ManageDatabase -->
<g id="edge4" class="edge"><title>JAVA_INT_ManageDatabase&#45;&gt;ManageDatabase</title>
<path fill="none" stroke="black" d="M155,-159.923C155,-153.757 155,-134.957 155,-118.402"/>
<polygon fill="black" stroke="black" points="158.5,-118.003 155,-108.003 151.5,-118.003 158.5,-118.003"/>
</g>
<!-- JOB_dump Statistics -->
<g id="node9" class="node"><title>JOB_dump Statistics</title>
<polygon fill="none" stroke="black" points="306.77,-154.544 306.77,-169.456 289.331,-180 264.669,-180 247.23,-169.456 247.23,-154.544 264.669,-144 289.331,-144 306.77,-154.544"/>
<text text-anchor="middle" x="277" y="-157.4" font-family="Times New Roman,serif" font-size="14.00">JOB</text>
</g>
<!-- AbT1 -->
<g id="node10" class="node"><title>AbT1</title>
<text text-anchor="middle" x="277" y="-85.4" font-family="Times New Roman,serif" font-size="14.00">dumpStatistics</text>
</g>
<!-- JOB_dump Statistics&#45;&gt;AbT1 -->
<g id="edge8" class="edge"><title>JOB_dump Statistics&#45;&gt;AbT1</title>
<path fill="none" stroke="black" d="M277,-143.831C277,-136.131 277,-126.974 277,-118.417"/>
<polygon fill="black" stroke="black" points="280.5,-118.413 277,-108.413 273.5,-118.413 280.5,-118.413"/>
</g>
<!-- JOB_cleanup Database -->
<g id="node12" class="node"><title>JOB_cleanup Database</title>
<polygon fill="none" stroke="black" points="428.77,-154.544 428.77,-169.456 411.331,-180 386.669,-180 369.23,-169.456 369.23,-154.544 386.669,-144 411.331,-144 428.77,-154.544"/>
<text text-anchor="middle" x="399" y="-157.4" font-family="Times New Roman,serif" font-size="14.00">JOB</text>
</g>
<!-- AbT2 -->
<g id="node13" class="node"><title>AbT2</title>
<text text-anchor="middle" x="399" y="-85.4" font-family="Times New Roman,serif" font-size="14.00">cleanupDatabase</text>
</g>
<!-- JOB_cleanup Database&#45;&gt;AbT2 -->
<g id="edge10" class="edge"><title>JOB_cleanup Database&#45;&gt;AbT2</title>
<path fill="none" stroke="black" d="M399,-143.831C399,-136.131 399,-126.974 399,-118.417"/>
<polygon fill="black" stroke="black" points="402.5,-118.413 399,-108.413 395.5,-118.413 402.5,-118.413"/>
</g>
</g>
</svg>
