<?xml version="1.0" encoding="UTF-8" standalone="no"?>
<!DOCTYPE svg PUBLIC "-//W3C//DTD SVG 1.1//EN"
 "http://www.w3.org/Graphics/SVG/1.1/DTD/svg11.dtd">
<!-- Generated by graphviz version 2.26.3 (20100126.1600)
 -->
<!-- Title: _anonymous_0 Pages: 1 -->
<svg width="281pt" height="300pt"
 viewBox="0.00 0.00 281.00 300.00" xmlns="http://www.w3.org/2000/svg" xmlns:xlink="http://www.w3.org/1999/xlink">
<g id="graph1" class="graph" transform="scale(1 1) rotate(0) translate(4 296)">
<title>_anonymous_0</title>
<polygon fill="white" stroke="white" points="-4,5 -4,-296 278,-296 278,5 -4,5"/>
<!-- HelloWorld -->
<g id="node1" class="node"><title>HelloWorld</title>
<polygon fill="none" stroke="black" points="131,-36 49,-36 49,-1.06581e-014 131,-0 131,-36"/>
<text text-anchor="middle" x="90" y="-13.4" font-family="Times New Roman,serif" font-size="14.00">HelloWorld</text>
</g>
<!-- JAVA_INT_HelloWorld -->
<g id="node2" class="node"><title>JAVA_INT_HelloWorld</title>
<ellipse fill="black" stroke="black" cx="90" cy="-74" rx="1.8" ry="1.8"/>
</g>
<!-- JAVA_INT_HelloWorld&#45;&gt;HelloWorld -->
<g id="edge2" class="edge"><title>JAVA_INT_HelloWorld&#45;&gt;HelloWorld</title>
<path fill="none" stroke="black" d="M90,-72.1368C90,-67.9085 90,-57.109 90,-46.2578"/>
<polygon fill="black" stroke="black" points="93.5001,-46.0511 90,-36.0511 86.5001,-46.0512 93.5001,-46.0511"/>
</g>
<!-- HelloWorlds -->
<g id="node4" class="node"><title>HelloWorlds</title>
<polygon fill="none" stroke="black" points="88,-148 2.13163e-014,-148 0,-112 88,-112 88,-148"/>
<text text-anchor="middle" x="44" y="-125.4" font-family="Times New Roman,serif" font-size="14.00">HelloWorlds</text>
</g>
<!-- HelloWorlds&#45;&gt;JAVA_INT_HelloWorld -->
<g id="edge6" class="edge"><title>HelloWorlds&#45;&gt;JAVA_INT_HelloWorld</title>
<path fill="none" stroke="black" d="M58.8079,-111.973C66.6084,-102.477 75.8549,-91.2201 82.2451,-83.4408"/>
<polygon fill="black" stroke="black" points="85.1415,-85.4287 88.7844,-75.4798 79.7324,-80.9855 85.1415,-85.4287"/>
</g>
<!-- JAVA_INT_HelloWorlds -->
<g id="node5" class="node"><title>JAVA_INT_HelloWorlds</title>
<ellipse fill="black" stroke="black" cx="44" cy="-202" rx="1.8" ry="1.8"/>
</g>
<!-- JAVA_INT_HelloWorlds&#45;&gt;HelloWorlds -->
<g id="edge4" class="edge"><title>JAVA_INT_HelloWorlds&#45;&gt;HelloWorlds</title>
<path fill="none" stroke="black" d="M44,-199.923C44,-193.757 44,-174.957 44,-158.402"/>
<polygon fill="black" stroke="black" points="47.5001,-158.003 44,-148.003 40.5001,-158.003 47.5001,-158.003"/>
</g>
<!-- ManageDatabase -->
<g id="node8" class="node"><title>ManageDatabase</title>
<polygon fill="none" stroke="black" points="272,-220 162,-220 162,-184 272,-184 272,-220"/>
<text text-anchor="middle" x="217" y="-197.4" font-family="Times New Roman,serif" font-size="14.00">ManageDatabase</text>
</g>
<!-- N10107 -->
<g id="node13" class="node"><title>N10107</title>
<ellipse fill="none" stroke="black" cx="217" cy="-130" rx="33.0404" ry="18"/>
<text text-anchor="middle" x="217" y="-125.4" font-family="Times New Roman,serif" font-size="14.00">JDBC</text>
</g>
<!-- ManageDatabase&#45;&gt;N10107 -->
<g id="edge12" class="edge"><title>ManageDatabase&#45;&gt;N10107</title>
<path fill="none" stroke="black" d="M217,-183.831C217,-176.131 217,-166.974 217,-158.417"/>
<polygon fill="black" stroke="black" points="220.5,-158.413 217,-148.413 213.5,-158.413 220.5,-158.413"/>
</g>
<!-- JAVA_INT_ManageDatabase -->
<g id="node9" class="node"><title>JAVA_INT_ManageDatabase</title>
<ellipse fill="black" stroke="black" cx="191" cy="-274" rx="1.8" ry="1.8"/>
</g>
<!-- JAVA_INT_ManageDatabase&#45;&gt;ManageDatabase -->
<g id="edge8" class="edge"><title>JAVA_INT_ManageDatabase&#45;&gt;ManageDatabase</title>
<path fill="none" stroke="black" d="M191.643,-272.22C193.774,-266.319 200.82,-246.806 206.945,-229.844"/>
<polygon fill="black" stroke="black" points="210.297,-230.868 210.401,-220.273 203.713,-228.49 210.297,-230.868"/>
</g>
<!-- WEB -->
<g id="node11" class="node"><title>WEB</title>
<ellipse fill="none" stroke="black" cx="242" cy="-274" rx="31.0281" ry="18"/>
<text text-anchor="middle" x="242" y="-269.4" font-family="Times New Roman,serif" font-size="14.00">WEB</text>
</g>
<!-- WEB&#45;&gt;ManageDatabase -->
<g id="edge10" class="edge"><title>WEB&#45;&gt;ManageDatabase</title>
<path fill="none" stroke="black" d="M235.82,-256.202C233.047,-248.215 229.71,-238.605 226.621,-229.709"/>
<polygon fill="black" stroke="black" points="229.869,-228.392 223.282,-220.093 223.256,-230.688 229.869,-228.392"/>
</g>
<!-- JOB_HelloWorld -->
<g id="node15" class="node"><title>JOB_HelloWorld</title>
<polygon fill="none" stroke="black" points="165.77,-122.544 165.77,-137.456 148.331,-148 123.669,-148 106.23,-137.456 106.23,-122.544 123.669,-112 148.331,-112 165.77,-122.544"/>
<text text-anchor="middle" x="136" y="-125.4" font-family="Times New Roman,serif" font-size="14.00">JOB</text>
</g>
<!-- JOB_HelloWorld&#45;&gt;JAVA_INT_HelloWorld -->
<g id="edge14" class="edge"><title>JOB_HelloWorld&#45;&gt;JAVA_INT_HelloWorld</title>
<path fill="none" stroke="black" d="M121.949,-112.894C114.012,-103.232 104.392,-91.5204 97.7948,-83.4894"/>
<polygon fill="black" stroke="black" points="100.312,-81.0399 91.2602,-75.5342 94.9031,-85.4831 100.312,-81.0399"/>
</g>
<!-- JOB_HelloWorlds -->
<g id="node17" class="node"><title>JOB_HelloWorlds</title>
<polygon fill="none" stroke="black" points="73.7697,-266.544 73.7697,-281.456 56.331,-292 31.669,-292 14.2303,-281.456 14.2303,-266.544 31.669,-256 56.331,-256 73.7697,-266.544"/>
<text text-anchor="middle" x="44" y="-269.4" font-family="Times New Roman,serif" font-size="14.00">JOB</text>
</g>
<!-- JOB_HelloWorlds&#45;&gt;JAVA_INT_HelloWorlds -->
<g id="edge16" class="edge"><title>JOB_HelloWorlds&#45;&gt;JAVA_INT_HelloWorlds</title>
<path fill="none" stroke="black" d="M44,-255.831C44,-242.657 44,-225.219 44,-213.812"/>
<polygon fill="black" stroke="black" points="47.5001,-213.807 44,-203.807 40.5001,-213.807 47.5001,-213.807"/>
</g>
</g>
</svg>
