<?xml version="1.0" encoding="utf-8"?>
<svg version="1.1" xmlns="http://www.w3.org/2000/svg" xmlns:xlink="http://www.w3.org/1999/xlink" viewBox="0 0 234.5 43.9" xml:space="preserve">
<path fill="#FFFFFF" d="M13,12.9h5.6v8.7H13V43H4V21.6H0v-8.7h4C4,4.5,8.6-0.6,18.6,0v8.7C15.2,8.4,13,9.4,13,12.9z"/>
<path fill="#FFFFFF" d="M40,12.3v10.2c-3.7-0.6-9,0.9-9,6.9V43h-9V12.9h9v5.4C32.1,14.2,36.2,12.3,40,12.3z"/>
<path fill="#FFFFFF" d="M74.1,12.9V43h-9v-2.8c-2,2.3-4.9,3.7-9,3.7c-7.9,0-14.4-6.9-14.4-15.9s6.5-15.9,14.4-15.9c4,0,7,1.4,9,3.7
	v-2.8H74.1z M65.1,27.9c0-4.5-3-7.3-7.2-7.3s-7.2,2.8-7.2,7.3s3,7.3,7.2,7.3S65.1,32.5,65.1,27.9L65.1,27.9z"/>
<path fill="#FFFFFF" d="M109.6,24.5V43h-9V25.9c0-3.7-2.4-5.5-5.2-5.5c-3.3,0-5.6,1.9-5.6,6.2V43h-9V12.9h9v2.8
	c1.6-2.2,4.6-3.7,8.6-3.7C104.5,12.1,109.6,16.4,109.6,24.5z"/>
<path fill="#FFFFFF" d="M134.5,43l-9.6-13.3V43h-9V0.9h9v25.2l9-13.2h10.6l-11,15l11.3,15L134.5,43z"/>
<path fill="#FDC300" d="M147.4,38.1c0-3.2,2.6-5.7,5.7-5.7c3.2,0,5.7,2.6,5.7,5.7c0,3.2-2.6,5.7-5.7,5.7c0,0,0,0,0,0
	C150,43.8,147.5,41.3,147.4,38.1z M147.7,12.9v-12h10.8v12l-1.8,15h-7.2L147.7,12.9z"/>
<path fill="#FFFFFF" d="M167.3,7.3V8h4v1.3h-4v12.2H166V9.3h-2.3V8h2.3V7.3c0-3.3,1.9-5.2,5.4-5v1.3C168.6,3.4,167.3,4.7,167.3,7.3z
	"/>
<path fill="#FFFFFF" d="M179.3,7.8v1.3c-2.3,0-4.5,1.4-4.5,4.9v7.5h-1.4V8h1.4v2.7C175.5,8.9,177.3,7.7,179.3,7.8z"/>
<path fill="#FFFFFF" d="M194.5,8v13.5h-1.4v-3.1c-1.2,2.1-3.4,3.4-5.8,3.4c-3.9,0-7-3.2-7-7s3.2-7,7-7l0,0c2.4,0,4.6,1.2,5.8,3.3v-3
	L194.5,8z M193.1,14.8c0-3.2-2.6-5.7-5.7-5.7c-3.2,0-5.7,2.6-5.7,5.7c0,3.1,2.6,5.7,5.7,5.7c3.1,0,5.7-2.5,5.7-5.6
	C193.1,14.9,193.1,14.8,193.1,14.8z"/>
<path fill="#FFFFFF" d="M218,13v8.6h-1.4V13c0-2.6-1.5-3.9-3.6-3.9c-2.3,0-4,1.5-4,5v7.5h-1.4V13c0-2.6-1.4-3.9-3.5-3.9
	s-4.2,1.5-4.2,5v7.5h-1.4V8h1.4v2.3c0.8-1.6,2.5-2.7,4.4-2.6c1.9-0.1,3.6,1,4.2,2.8c0.8-1.7,2.6-2.8,4.5-2.8
	C215.9,7.7,218,9.6,218,13z"/>
<path fill="#FFFFFF" d="M234.5,14.8c0,0.2,0,0.4,0,0.7h-12.2c0.3,2.9,2.8,5.1,5.7,5c1.9,0.1,3.7-0.8,4.7-2.4l1.2,0.7
	c-1.3,2-3.5,3.1-5.9,3c-3.9,0-7.1-3.1-7.1-7s3.1-7.1,7-7.1C232,7.7,234.5,11.1,234.5,14.8z M222.3,14.1h10.9
	c-0.1-2.9-2.4-5.1-5.3-5.1C224.9,8.9,222.5,11.2,222.3,14.1z"/>
<path fill="#FFFFFF" d="M182.8,28l-4.3,13.5h-1.5L173.3,30l-3.8,11.5h-1.5L163.8,28h1.4l3.6,11.8l3.8-11.8h1.4l3.8,11.8l3.6-11.8
	H182.8z"/>
<path fill="#FFFFFF" d="M184.3,34.8c0-3.9,3.1-7.1,7-7.1c3.9,0,7.1,3.1,7.1,7c0,3.9-3.1,7.1-7,7.1c0,0,0,0,0,0c-3.9,0.1-7-3-7.1-6.9
	C184.3,34.9,184.3,34.8,184.3,34.8z M197.1,34.8c0-3.2-2.6-5.7-5.7-5.7s-5.7,2.6-5.7,5.7c0,3.1,2.6,5.7,5.7,5.7
	c3.1,0,5.7-2.5,5.7-5.6C197.2,34.9,197.2,34.8,197.1,34.8L197.1,34.8z"/>
<path fill="#FFFFFF" d="M207.6,27.8v1.3c-2.3,0-4.5,1.4-4.5,4.9v7.5h-1.4V28h1.4v2.7C203.8,28.9,205.7,27.7,207.6,27.8z"/>
<path fill="#FFFFFF" d="M218.9,41.5l-7.2-6.6v6.6h-1.4V22.6h1.4v11.5l6.8-6.1h1.9l-7.3,6.5l7.5,7L218.9,41.5z"/>
</svg>
