<?xml version="1.0" encoding="UTF-8" standalone="no"?>
<!DOCTYPE svg PUBLIC "-//W3C//DTD SVG 1.1//EN"
 "http://www.w3.org/Graphics/SVG/1.1/DTD/svg11.dtd">
<!-- Generated by graphviz version 2.26.3 (20100126.1600)
 -->
<!-- Title: _anonymous_0 Pages: 1 -->
<svg width="100pt" height="298pt"
 viewBox="0.00 0.00 100.00 298.00" xmlns="http://www.w3.org/2000/svg" xmlns:xlink="http://www.w3.org/1999/xlink">
<g id="graph1" class="graph" transform="scale(1 1) rotate(0) translate(4 294)">
<title>_anonymous_0</title>
<polygon fill="white" stroke="white" points="-4,5 -4,-294 97,-294 97,5 -4,5"/>
<!-- START -->
<g id="node1" class="node"><title>START</title>
<ellipse fill="none" stroke="black" cx="46" cy="-272" rx="41.0898" ry="18"/>
<text text-anchor="middle" x="46" y="-267.4" font-family="Times New Roman,serif" font-size="14.00">START</text>
</g>
<!-- HelloWorld -->
<g id="node3" class="node"><title>HelloWorld</title>
<polygon fill="none" stroke="black" points="92,-216 2.13163e-014,-216 0,-176 92,-176 92,-216"/>
<text text-anchor="middle" x="46" y="-199.4" font-family="Times New Roman,serif" font-size="14.00">HelloWorld</text>
<text text-anchor="middle" x="46" y="-183.4" font-family="Times New Roman,serif" font-size="14.00">(FixedResult)</text>
</g>
<!-- START&#45;&gt;HelloWorld -->
<g id="edge2" class="edge"><title>START&#45;&gt;HelloWorld</title>
<path fill="none" stroke="black" d="M46,-253.989C46,-245.697 46,-235.63 46,-226.226"/>
<polygon fill="black" stroke="black" points="49.5001,-226.021 46,-216.021 42.5001,-226.021 49.5001,-226.021"/>
</g>
<!-- EXIT -->
<g id="node5" class="node"><title>EXIT</title>
<polyline fill="none" stroke="black" points="61,-124 31,-124 "/>
<path fill="none" stroke="black" d="M31,-124C25,-124 19,-118 19,-112"/>
<polyline fill="none" stroke="black" points="19,-112 19,-100 "/>
<path fill="none" stroke="black" d="M19,-100C19,-94 25,-88 31,-88"/>
<polyline fill="none" stroke="black" points="31,-88 61,-88 "/>
<path fill="none" stroke="black" d="M61,-88C67,-88 73,-94 73,-100"/>
<polyline fill="none" stroke="black" points="73,-100 73,-112 "/>
<path fill="none" stroke="black" d="M73,-112C73,-118 67,-124 61,-124"/>
<text text-anchor="middle" x="46" y="-101.4" font-family="Times New Roman,serif" font-size="14.00">EXIT</text>
</g>
<!-- HelloWorld&#45;&gt;EXIT -->
<g id="edge4" class="edge"><title>HelloWorld&#45;&gt;EXIT</title>
<path fill="none" stroke="black" d="M46,-175.578C46,-163.383 46,-147.714 46,-134.334"/>
<polygon fill="black" stroke="black" points="49.5001,-134.204 46,-124.204 42.5001,-134.204 49.5001,-134.204"/>
<text text-anchor="middle" x="68.5" y="-145.4" font-family="Times New Roman,serif" font-size="14.00">success</text>
</g>
<!-- END -->
<g id="node7" class="node"><title>END</title>
<ellipse fill="none" stroke="black" cx="46" cy="-18" rx="29.0158" ry="18"/>
<text text-anchor="middle" x="46" y="-13.4" font-family="Times New Roman,serif" font-size="14.00">END</text>
</g>
<!-- EXIT&#45;&gt;END -->
<g id="edge6" class="edge"><title>EXIT&#45;&gt;END</title>
<path fill="none" stroke="black" d="M46,-87.7663C46,-75.8492 46,-60.0384 46,-46.4817"/>
<polygon fill="black" stroke="black" points="49.5001,-46.2103 46,-36.2103 42.5001,-46.2103 49.5001,-46.2103"/>
<text text-anchor="middle" x="68.5" y="-57.4" font-family="Times New Roman,serif" font-size="14.00">success</text>
</g>
</g>
</svg>
