<?xml version="1.0" encoding="UTF-8" standalone="no"?>
<!DOCTYPE svg PUBLIC "-//W3C//DTD SVG 1.1//EN"
 "http://www.w3.org/Graphics/SVG/1.1/DTD/svg11.dtd">
<!-- Generated by graphviz version 2.26.3 (20100126.1600)
 -->
<!-- Title: _anonymous_0 Pages: 1 -->
<svg width="749pt" height="464pt"
 viewBox="0.00 0.00 749.00 464.00" xmlns="http://www.w3.org/2000/svg" xmlns:xlink="http://www.w3.org/1999/xlink">
<g id="graph1" class="graph" transform="scale(1 1) rotate(0) translate(4 460)">
<title>_anonymous_0</title>
<polygon fill="white" stroke="white" points="-4,5 -4,-460 746,-460 746,5 -4,5"/>
<!-- START -->
<g id="node1" class="node"><title>START</title>
<ellipse fill="none" stroke="black" cx="86" cy="-438" rx="41.0898" ry="18"/>
<text text-anchor="middle" x="86" y="-433.4" font-family="Times New Roman,serif" font-size="14.00">START</text>
</g>
<!-- ENTER -->
<g id="node2" class="node"><title>ENTER</title>
<polyline fill="none" stroke="black" points="105,-382 67,-382 "/>
<path fill="none" stroke="black" d="M67,-382C61,-382 55,-376 55,-370"/>
<polyline fill="none" stroke="black" points="55,-370 55,-358 "/>
<path fill="none" stroke="black" d="M55,-358C55,-352 61,-346 67,-346"/>
<polyline fill="none" stroke="black" points="67,-346 105,-346 "/>
<path fill="none" stroke="black" d="M105,-346C111,-346 117,-352 117,-358"/>
<polyline fill="none" stroke="black" points="117,-358 117,-370 "/>
<path fill="none" stroke="black" d="M117,-370C117,-376 111,-382 105,-382"/>
<text text-anchor="middle" x="86" y="-359.4" font-family="Times New Roman,serif" font-size="14.00">ENTER</text>
</g>
<!-- START&#45;&gt;ENTER -->
<g id="edge2" class="edge"><title>START&#45;&gt;ENTER</title>
<path fill="none" stroke="black" d="M86,-419.708C86,-411.464 86,-401.538 86,-392.362"/>
<polygon fill="black" stroke="black" points="89.5001,-392.082 86,-382.082 82.5001,-392.082 89.5001,-392.082"/>
</g>
<!-- Query -->
<g id="node4" class="node"><title>Query</title>
<polygon fill="none" stroke="black" points="172,-308 4.26326e-014,-308 0,-268 172,-268 172,-308"/>
<text text-anchor="middle" x="86" y="-291.4" font-family="Times New Roman,serif" font-size="14.00">Query</text>
<text text-anchor="middle" x="86" y="-275.4" font-family="Times New Roman,serif" font-size="14.00">(ForEachChildElementPipe)</text>
</g>
<!-- ENTER&#45;&gt;Query -->
<g id="edge3" class="edge"><title>ENTER&#45;&gt;Query</title>
<path fill="none" stroke="black" d="M86,-345.989C86,-337.697 86,-327.63 86,-318.226"/>
<polygon fill="black" stroke="black" points="89.5001,-318.021 86,-308.021 82.5001,-318.021 89.5001,-318.021"/>
</g>
<!-- AbT0 -->
<g id="node19" class="node"><title>AbT0</title>
<polygon fill="none" stroke="black" stroke-dasharray="5,2" points="343,-306 249,-306 249,-270 343,-270 343,-306"/>
<text text-anchor="middle" x="296" y="-283.4" font-family="Times New Roman,serif" font-size="14.00">inputValidator</text>
</g>
<!-- ENTER&#45;&gt;AbT0 -->
<g id="edge19" class="edge"><title>ENTER&#45;&gt;AbT0</title>
<path fill="none" stroke="black" stroke-dasharray="5,2" d="M117.439,-352.622C152.223,-340.034 208.651,-319.612 248.757,-305.097"/>
</g>
<!-- ManageDatabaseRLY -->
<g id="node6" class="node"><title>ManageDatabaseRLY</title>
<polygon fill="none" stroke="black" points="155,-216 17,-216 17,-176 155,-176 155,-216"/>
<text text-anchor="middle" x="86" y="-199.4" font-family="Times New Roman,serif" font-size="14.00">ManageDatabaseRLY</text>
<text text-anchor="middle" x="86" y="-183.4" font-family="Times New Roman,serif" font-size="14.00">(XsltPipe)</text>
</g>
<!-- Query&#45;&gt;ManageDatabaseRLY -->
<g id="edge5" class="edge"><title>Query&#45;&gt;ManageDatabaseRLY</title>
<path fill="none" stroke="black" d="M86,-267.582C86,-255.469 86,-239.885 86,-226.352"/>
<polygon fill="black" stroke="black" points="89.5001,-226.044 86,-216.044 82.5001,-226.044 89.5001,-226.044"/>
<text text-anchor="middle" x="108.5" y="-237.4" font-family="Times New Roman,serif" font-size="14.00">success</text>
</g>
<!-- EXIT -->
<g id="node8" class="node"><title>EXIT</title>
<polyline fill="none" stroke="black" points="390,-124 360,-124 "/>
<path fill="none" stroke="black" d="M360,-124C354,-124 348,-118 348,-112"/>
<polyline fill="none" stroke="black" points="348,-112 348,-100 "/>
<path fill="none" stroke="black" d="M348,-100C348,-94 354,-88 360,-88"/>
<polyline fill="none" stroke="black" points="360,-88 390,-88 "/>
<path fill="none" stroke="black" d="M390,-88C396,-88 402,-94 402,-100"/>
<polyline fill="none" stroke="black" points="402,-100 402,-112 "/>
<path fill="none" stroke="black" d="M402,-112C402,-118 396,-124 390,-124"/>
<text text-anchor="middle" x="375" y="-101.4" font-family="Times New Roman,serif" font-size="14.00">EXIT</text>
</g>
<!-- ManageDatabaseRLY&#45;&gt;EXIT -->
<g id="edge7" class="edge"><title>ManageDatabaseRLY&#45;&gt;EXIT</title>
<path fill="none" stroke="black" d="M143.152,-175.886C173.567,-165.392 211.678,-152.573 246,-142 276.799,-132.513 312.061,-122.746 337.926,-115.783"/>
<polygon fill="black" stroke="black" points="338.943,-119.134 347.697,-113.166 337.132,-112.373 338.943,-119.134"/>
<text text-anchor="middle" x="268.5" y="-145.4" font-family="Times New Roman,serif" font-size="14.00">success</text>
</g>
<!-- END -->
<g id="node18" class="node"><title>END</title>
<ellipse fill="none" stroke="black" cx="375" cy="-18" rx="29.0158" ry="18"/>
<text text-anchor="middle" x="375" y="-13.4" font-family="Times New Roman,serif" font-size="14.00">END</text>
</g>
<!-- EXIT&#45;&gt;END -->
<g id="edge17" class="edge"><title>EXIT&#45;&gt;END</title>
<path fill="none" stroke="black" d="M375,-87.7663C375,-75.8492 375,-60.0384 375,-46.4817"/>
<polygon fill="black" stroke="black" points="378.5,-46.2103 375,-36.2103 371.5,-46.2103 378.5,-46.2103"/>
<text text-anchor="middle" x="397.5" y="-57.4" font-family="Times New Roman,serif" font-size="14.00">success</text>
</g>
<!-- AbT1 -->
<g id="node23" class="node"><title>AbT1</title>
<polygon fill="none" stroke="black" stroke-dasharray="5,2" points="656,-306 552,-306 552,-270 656,-270 656,-306"/>
<text text-anchor="middle" x="604" y="-283.4" font-family="Times New Roman,serif" font-size="14.00">outputValidator</text>
</g>
<!-- EXIT&#45;&gt;AbT1 -->
<g id="edge25" class="edge"><title>EXIT&#45;&gt;AbT1</title>
<path fill="none" stroke="black" stroke-dasharray="5,2" d="M402.112,-124.137C409.498,-129.546 417.302,-135.716 424,-142 455.291,-171.357 453.479,-188.011 486,-216 511.102,-237.603 543.43,-256.838 567.9,-269.98"/>
</g>
<!-- InputValidateError -->
<g id="node9" class="node"><title>InputValidateError</title>
<polygon fill="none" stroke="black" points="293,-216 173,-216 173,-176 293,-176 293,-216"/>
<text text-anchor="middle" x="233" y="-199.4" font-family="Times New Roman,serif" font-size="14.00">InputValidateError</text>
<text text-anchor="middle" x="233" y="-183.4" font-family="Times New Roman,serif" font-size="14.00">(FixedResult)</text>
</g>
<!-- InputValidateError&#45;&gt;EXIT -->
<g id="edge9" class="edge"><title>InputValidateError&#45;&gt;EXIT</title>
<path fill="none" stroke="black" d="M264.868,-175.802C286.813,-161.893 316.011,-143.387 338.83,-128.925"/>
<polygon fill="black" stroke="black" points="340.975,-131.709 347.547,-123.4 337.227,-125.797 340.975,-131.709"/>
<text text-anchor="middle" x="338.5" y="-145.4" font-family="Times New Roman,serif" font-size="14.00">success</text>
</g>
<!-- InputValidateFailure -->
<g id="node11" class="node"><title>InputValidateFailure</title>
<polygon fill="none" stroke="black" points="439,-216 311,-216 311,-176 439,-176 439,-216"/>
<text text-anchor="middle" x="375" y="-199.4" font-family="Times New Roman,serif" font-size="14.00">InputValidateFailure</text>
<text text-anchor="middle" x="375" y="-183.4" font-family="Times New Roman,serif" font-size="14.00">(XsltPipe)</text>
</g>
<!-- InputValidateFailure&#45;&gt;EXIT -->
<g id="edge11" class="edge"><title>InputValidateFailure&#45;&gt;EXIT</title>
<path fill="none" stroke="black" d="M375,-175.578C375,-163.383 375,-147.714 375,-134.334"/>
<polygon fill="black" stroke="black" points="378.5,-134.204 375,-124.204 371.5,-134.204 378.5,-134.204"/>
<text text-anchor="middle" x="397.5" y="-145.4" font-family="Times New Roman,serif" font-size="14.00">success</text>
</g>
<!-- InternalXsdError -->
<g id="node13" class="node"><title>InternalXsdError</title>
<polygon fill="none" stroke="black" points="605,-216 495,-216 495,-176 605,-176 605,-216"/>
<text text-anchor="middle" x="550" y="-199.4" font-family="Times New Roman,serif" font-size="14.00">InternalXsdError</text>
<text text-anchor="middle" x="550" y="-183.4" font-family="Times New Roman,serif" font-size="14.00">(XsltPipe)</text>
</g>
<!-- InternalXsdError&#45;&gt;EXIT -->
<g id="edge13" class="edge"><title>InternalXsdError&#45;&gt;EXIT</title>
<path fill="none" stroke="black" d="M521.287,-175.875C505.174,-165.068 484.452,-151.96 465,-142 448.13,-133.362 428.684,-125.356 412.194,-119.099"/>
<polygon fill="black" stroke="black" points="412.951,-115.646 402.358,-115.439 410.51,-122.207 412.951,-115.646"/>
<text text-anchor="middle" x="513.5" y="-145.4" font-family="Times New Roman,serif" font-size="14.00">success</text>
</g>
<!-- InternalXsdFailure -->
<g id="node15" class="node"><title>InternalXsdFailure</title>
<polygon fill="none" stroke="black" points="741,-216 623,-216 623,-176 741,-176 741,-216"/>
<text text-anchor="middle" x="682" y="-199.4" font-family="Times New Roman,serif" font-size="14.00">InternalXsdFailure</text>
<text text-anchor="middle" x="682" y="-183.4" font-family="Times New Roman,serif" font-size="14.00">(XsltPipe)</text>
</g>
<!-- InternalXsdFailure&#45;&gt;EXIT -->
<g id="edge15" class="edge"><title>InternalXsdFailure&#45;&gt;EXIT</title>
<path fill="none" stroke="black" d="M634.625,-175.958C607.305,-164.914 572.106,-151.55 540,-142 496.704,-129.122 445.761,-118.706 412.056,-112.453"/>
<polygon fill="black" stroke="black" points="412.643,-109.002 402.177,-110.648 411.385,-115.888 412.643,-109.002"/>
<text text-anchor="middle" x="609.5" y="-145.4" font-family="Times New Roman,serif" font-size="14.00">success</text>
</g>
<!-- AbT0&#45;&gt;InputValidateError -->
<g id="edge23" class="edge"><title>AbT0&#45;&gt;InputValidateError</title>
<path fill="none" stroke="black" stroke-dasharray="5,2" d="M278.124,-269.794C272.629,-263.747 266.776,-256.814 262,-250 256.586,-242.276 251.444,-233.427 247.035,-225.158"/>
<polygon fill="black" stroke="black" points="250.089,-223.442 242.394,-216.159 243.867,-226.651 250.089,-223.442"/>
<text text-anchor="middle" x="294" y="-237.4" font-family="Times New Roman,serif" font-size="14.00">parserError</text>
</g>
<!-- AbT0&#45;&gt;InputValidateFailure -->
<g id="edge21" class="edge"><title>AbT0&#45;&gt;InputValidateFailure</title>
<path fill="none" stroke="black" stroke-dasharray="5,2" d="M311.608,-269.824C322.838,-256.745 338.196,-238.86 350.983,-223.97"/>
<polygon fill="black" stroke="black" points="353.92,-225.922 357.779,-216.055 348.609,-221.361 353.92,-225.922"/>
<text text-anchor="middle" x="357" y="-237.4" font-family="Times New Roman,serif" font-size="14.00">failure</text>
</g>
<!-- AbT1&#45;&gt;InternalXsdError -->
<g id="edge29" class="edge"><title>AbT1&#45;&gt;InternalXsdError</title>
<path fill="none" stroke="black" stroke-dasharray="5,2" d="M593.331,-269.824C585.797,-256.987 575.545,-239.521 566.904,-224.8"/>
<polygon fill="black" stroke="black" points="569.852,-222.907 561.771,-216.055 563.815,-226.451 569.852,-222.907"/>
<text text-anchor="middle" x="612" y="-237.4" font-family="Times New Roman,serif" font-size="14.00">parserError</text>
</g>
<!-- AbT1&#45;&gt;InternalXsdFailure -->
<g id="edge27" class="edge"><title>AbT1&#45;&gt;InternalXsdFailure</title>
<path fill="none" stroke="black" stroke-dasharray="5,2" d="M627.583,-269.865C634.561,-263.929 641.946,-257.041 648,-250 654.524,-242.412 660.677,-233.456 665.909,-225.042"/>
<polygon fill="black" stroke="black" points="669.061,-226.592 671.198,-216.215 663.056,-222.994 669.061,-226.592"/>
<text text-anchor="middle" x="676" y="-237.4" font-family="Times New Roman,serif" font-size="14.00">failure</text>
</g>
</g>
</svg>
