<?xml version="1.0" standalone="no"?>
<!DOCTYPE svg PUBLIC "-//W3C//DTD SVG 20010904//EN"
 "http://www.w3.org/TR/2001/REC-SVG-20010904/DTD/svg10.dtd">
<svg version="1.0" xmlns="http://www.w3.org/2000/svg"
 width="700.000000pt" height="700.000000pt" viewBox="0 0 700.000000 700.000000"
 preserveAspectRatio="xMidYMid meet">
<metadata>
Created by potrace 1.14, written by Peter Selinger 2001-2017
</metadata>
<g transform="translate(0.000000,700.000000) scale(0.100000,-0.100000)"
fill="#000000" stroke="none">
<path d="M2197 6454 c-1 -1 -54 -4 -117 -8 -63 -3 -126 -8 -140 -10 -14 -3
-47 -7 -75 -11 -27 -3 -97 -17 -155 -30 -465 -104 -796 -351 -987 -735 -46
-93 -115 -279 -127 -342 -2 -13 -11 -57 -19 -98 -23 -115 -36 -226 -42 -375
-2 -49 -4 -92 -4 -95 -1 -3 -119 -5 -263 -5 l-263 0 -3 -572 -2 -573 265 0
265 0 1 -47 c0 -27 0 -663 1 -1416 l0 -1367 22 -1 c24 -1 1107 0 1147 0 l25 1
-1 1403 c0 771 1 1408 3 1415 3 9 86 12 371 12 l367 0 0 568 c0 312 -3 569 -7
572 -4 3 -169 5 -366 5 -298 -1 -359 2 -364 13 -9 23 10 152 32 221 71 223
263 330 584 326 l121 -1 0 573 0 573 -106 1 c-58 0 -118 2 -133 3 -15 1 -29 1
-30 0z"/>
<path d="M4897 6454 c-1 -1 -63 -4 -137 -7 -74 -4 -146 -9 -160 -11 -14 -3
-43 -7 -65 -11 -286 -41 -520 -128 -724 -269 -80 -54 -225 -192 -282 -266
-149 -194 -254 -451 -299 -730 -6 -41 -13 -86 -16 -100 -3 -22 -14 -193 -18
-285 l-1 -30 -265 0 -265 0 0 -570 0 -570 265 -5 265 -5 1 -1407 c0 -774 3
-1410 6 -1413 4 -5 1078 -10 1171 -6 16 1 17 75 17 1416 l0 1415 370 0 370 0
0 570 c0 449 -3 570 -12 571 -7 1 -168 3 -358 4 -190 1 -351 3 -359 4 -17 1
-9 109 14 206 30 121 135 246 249 294 98 43 180 56 344 56 l122 0 0 572 0 572
-116 3 c-64 2 -116 2 -117 2z"/>
<path d="M5530 5534 c0 -800 1 -841 35 -1099 3 -22 8 -58 10 -80 3 -22 7 -56
10 -75 2 -19 7 -57 10 -85 5 -46 10 -94 20 -170 2 -16 7 -57 10 -90 3 -33 8
-71 10 -85 4 -23 19 -148 31 -250 3 -25 7 -58 9 -75 2 -16 7 -57 10 -90 3 -33
8 -71 10 -85 5 -30 10 -72 30 -245 16 -133 19 -157 32 -260 4 -33 7 -63 7 -67
1 -3 5 -10 9 -14 12 -13 938 -11 945 1 4 6 7 17 8 25 1 8 7 58 13 110 6 52 14
115 16 140 3 25 8 56 10 70 2 14 7 52 10 85 3 33 7 76 10 95 3 19 7 55 10 80
10 85 15 125 30 250 9 69 17 141 20 160 2 19 7 60 10 90 3 30 8 66 10 80 3 14
7 50 10 80 3 30 7 71 10 90 2 19 7 58 10 85 7 61 15 122 20 155 2 14 7 57 10
95 4 39 8 77 10 85 16 63 20 247 20 970 l0 825 -712 0 -713 0 0 -801z"/>
<path d="M6155 2163 c-153 -27 -259 -72 -369 -155 -354 -266 -396 -794 -89
-1113 267 -277 679 -316 986 -94 133 96 229 229 284 394 23 71 26 96 26 215 0
142 -10 197 -58 307 -93 209 -302 381 -530 433 -50 12 -212 20 -250 13z"/>
</g>
</svg>
